<svg width="25" height="12" viewBox="0 0 25 12" fill="none" xmlns="http://www.w3.org/2000/svg">
<path opacity="0.35" d="M2.66699 0.833374H19.333C20.5296 0.833374 21.5 1.80375 21.5 3.00037V9.00037C21.4998 10.1968 20.5295 11.1664 19.333 11.1664H2.66699C1.47048 11.1664 0.500176 10.1968 0.5 9.00037V3.00037L0.510742 2.77869C0.621596 1.68603 1.54509 0.833374 2.66699 0.833374Z" stroke="#4B3425"/>
<path opacity="0.4" d="M23 4V8C23.8047 7.66122 24.328 6.87313 24.328 6C24.328 5.12687 23.8047 4.33878 23 4Z" fill="#4B3425"/>
<path d="M2 3.66671C2 2.93033 2.59695 2.33337 3.33333 2.33337H18.6667C19.403 2.33337 20 2.93033 20 3.66671V8.33337C20 9.06975 19.403 9.66671 18.6667 9.66671H3.33333C2.59695 9.66671 2 9.06975 2 8.33337V3.66671Z" fill="#4B3425"/>
</svg>
