<svg width="97" height="96" viewBox="0 0 97 96" fill="none" xmlns="http://www.w3.org/2000/svg">
<g filter="url(#filter0_ddddd_1_2139)">
<rect x="0.737793" width="96" height="96" rx="48" fill="#BDA193"/>
<path fill-rule="evenodd" clip-rule="evenodd" d="M72.7378 28C74.9469 28 76.7378 29.7909 76.7378 32L76.7378 44C76.7378 46.2091 74.9469 48 72.7378 48C70.5287 48 68.7378 46.2091 68.7378 44L68.7378 32C68.7378 29.7909 70.5287 28 72.7378 28Z" fill="#4B3425"/>
<path fill-rule="evenodd" clip-rule="evenodd" d="M24.7378 28C26.9469 28 28.7378 29.7909 28.7378 32L28.7378 44C28.7378 46.2091 26.9469 48 24.7378 48C22.5287 48 20.7378 46.2091 20.7378 44L20.7378 32C20.7378 29.7909 22.5287 28 24.7378 28Z" fill="#4B3425"/>
<path fill-rule="evenodd" clip-rule="evenodd" d="M20.7378 64C20.7378 61.7909 22.5287 60 24.7378 60H72.7378C74.9469 60 76.7378 61.7909 76.7378 64C76.7378 66.2091 74.9469 68 72.7378 68H24.7378C22.5287 68 20.7378 66.2091 20.7378 64Z" fill="#4B3425"/>
</g>
<defs>
<filter id="filter0_ddddd_1_2139" x="-16.0622" y="-3.2" width="129.6" height="158.4" filterUnits="userSpaceOnUse" color-interpolation-filters="sRGB">
<feFlood flood-opacity="0" result="BackgroundImageFix"/>
<feColorMatrix in="SourceAlpha" type="matrix" values="0 0 0 0 0 0 0 0 0 0 0 0 0 0 0 0 0 0 127 0" result="hardAlpha"/>
<feOffset/>
<feColorMatrix type="matrix" values="0 0 0 0 1 0 0 0 0 0.807843 0 0 0 0 0.360784 0 0 0 0.1 0"/>
<feBlend mode="normal" in2="BackgroundImageFix" result="effect1_dropShadow_1_2139"/>
<feColorMatrix in="SourceAlpha" type="matrix" values="0 0 0 0 0 0 0 0 0 0 0 0 0 0 0 0 0 0 127 0" result="hardAlpha"/>
<feOffset dy="2.4"/>
<feGaussianBlur stdDeviation="2.8"/>
<feColorMatrix type="matrix" values="0 0 0 0 1 0 0 0 0 0.807843 0 0 0 0 0.360784 0 0 0 0.1 0"/>
<feBlend mode="normal" in2="effect1_dropShadow_1_2139" result="effect2_dropShadow_1_2139"/>
<feColorMatrix in="SourceAlpha" type="matrix" values="0 0 0 0 0 0 0 0 0 0 0 0 0 0 0 0 0 0 127 0" result="hardAlpha"/>
<feOffset dy="10.4"/>
<feGaussianBlur stdDeviation="5.2"/>
<feColorMatrix type="matrix" values="0 0 0 0 1 0 0 0 0 0.807843 0 0 0 0 0.360784 0 0 0 0.09 0"/>
<feBlend mode="normal" in2="effect2_dropShadow_1_2139" result="effect3_dropShadow_1_2139"/>
<feColorMatrix in="SourceAlpha" type="matrix" values="0 0 0 0 0 0 0 0 0 0 0 0 0 0 0 0 0 0 127 0" result="hardAlpha"/>
<feOffset dy="24"/>
<feGaussianBlur stdDeviation="7.2"/>
<feColorMatrix type="matrix" values="0 0 0 0 1 0 0 0 0 0.807843 0 0 0 0 0.360784 0 0 0 0.05 0"/>
<feBlend mode="normal" in2="effect3_dropShadow_1_2139" result="effect4_dropShadow_1_2139"/>
<feColorMatrix in="SourceAlpha" type="matrix" values="0 0 0 0 0 0 0 0 0 0 0 0 0 0 0 0 0 0 127 0" result="hardAlpha"/>
<feOffset dy="42.4"/>
<feGaussianBlur stdDeviation="8.4"/>
<feColorMatrix type="matrix" values="0 0 0 0 1 0 0 0 0 0.807843 0 0 0 0 0.360784 0 0 0 0.01 0"/>
<feBlend mode="normal" in2="effect4_dropShadow_1_2139" result="effect5_dropShadow_1_2139"/>
<feBlend mode="normal" in="SourceGraphic" in2="effect5_dropShadow_1_2139" result="shape"/>
</filter>
</defs>
</svg>
