<svg width="363" height="410" viewBox="0 0 363 410" fill="none" xmlns="http://www.w3.org/2000/svg">
<path d="M114.934 194.932C108.278 193.43 102.603 192.27 101.349 192.179C87.6963 191.132 73.8153 192.589 60.7777 196.912C-10.8153 220.76 -3.90901 315.401 8.92348 374.133C9.40214 376.295 13.1174 395.66 14.7585 395.728C14.7585 395.728 44.9365 397.048 86.5111 398.868C87.3088 329.919 90.9101 260.764 114.934 194.932Z" fill="#FE814B"/>
<path d="M228.991 227.382C222.358 233.753 215.087 239.533 207.178 244.244C191.747 253.437 170.458 258.102 153.021 256.145C127.265 253.278 128.838 220.214 139.984 201.85C140.508 201.008 126.308 197.458 114.911 194.909C90.9103 260.764 87.309 329.919 86.5112 398.868C119.698 400.324 160.133 402.077 198.311 403.761C212.99 343.435 227.418 283.133 234.552 221.26C231.908 224.241 229.72 226.699 228.991 227.382Z" fill="white"/>
<path d="M362.262 278.195C362.307 262.516 359.618 245.745 353.783 231.159C336.756 188.606 279.773 170.97 246.86 207.061C246.313 207.675 239.635 215.435 234.552 221.238C227.418 283.133 212.99 343.435 198.311 403.738C266.052 406.696 326.613 409.336 326.636 409.336C327.001 409.336 334.978 387.126 335.981 384.828C340.38 374.702 344.301 364.371 347.72 353.857C354.102 334.219 359.344 313.443 361.487 292.872C361.965 288.116 362.239 283.201 362.262 278.195Z" fill="#FE814B"/>
<path d="M111.447 115.265C112.404 117.859 113.361 120.43 114.342 123.024C114.797 124.276 116.826 123.73 116.347 122.478C115.39 119.884 114.433 117.313 113.453 114.719C112.997 113.467 110.991 113.99 111.447 115.265Z" fill="#4B3425"/>
<path d="M132.12 238.213C134.445 253.551 149.374 257.692 163.005 257.26C180.236 256.691 196.944 251.116 211.28 241.672C218.141 237.144 224.478 231.842 230.313 226.085C232.227 224.196 245.652 206.811 246.838 207.061C228.102 203.215 208.568 202.419 189.992 202.168C171.848 201.941 155.392 201.44 139.984 201.873C133.419 212.75 130.137 225.061 132.12 238.213Z" fill="#FEAF8F"/>
<path d="M253.607 310.03C250.325 335.494 243.761 360.411 234.073 384.214C233.572 385.465 235.578 385.989 236.079 384.76C245.835 360.798 252.376 335.699 255.681 310.03C255.864 308.711 253.767 308.711 253.607 310.03Z" fill="#4B3425"/>
<path d="M125.214 218.097C120.587 231.136 120.541 245.29 125.1 258.375C125.533 259.626 127.561 259.103 127.106 257.829C122.661 245.063 122.707 231.409 127.22 218.666C127.653 217.369 125.647 216.846 125.214 218.097Z" fill="#4B3425"/>
<path d="M137.271 267.636C150.355 272.779 165.922 270.913 179.233 267.75C193.661 264.314 208.454 258.443 219.623 248.476C220.626 247.589 219.144 246.11 218.141 246.997C207.246 256.736 192.727 262.403 178.664 265.748C165.694 268.82 150.56 270.663 137.818 265.634C136.588 265.133 136.041 267.136 137.271 267.636Z" fill="#4B3425"/>
<path d="M97.7024 136.382C97.2922 132.149 94.1467 128.645 90.4998 126.779C86.853 124.89 82.7274 124.367 78.693 123.866C69.5074 122.706 60.3446 121.545 51.159 120.408C45.0961 119.634 38.7368 118.746 33.8819 114.878C29.027 111.009 26.5653 103.113 30.3718 98.1298C35.409 91.5534 47.0107 94.3979 51.7289 87.5712C55.3074 82.4057 52.3443 74.828 47.6261 70.7775C42.9079 66.727 36.845 64.8611 31.671 61.4705C24.0809 56.487 18.6105 48.0674 16.9922 38.8514C16.6959 37.213 16.5364 35.4836 17.0378 33.8907C18.2003 30.2498 22.5993 28.7251 26.1778 29.5216C29.7791 30.318 32.7878 32.7529 35.7965 34.9602C40.7882 38.6011 46.9879 41.8324 52.7773 39.8526C58.4072 37.9412 61.5982 31.7744 63.3077 25.8807C65.0172 19.9642 65.8605 13.5926 69.2111 8.51814C72.8352 2.98853 79.3312 -0.356552 85.7361 0.0302939C92.1409 0.394384 98.2495 4.46764 101.304 10.3841C103.993 15.6407 104.267 21.8074 105.452 27.6556C106.615 33.4811 109.259 39.6706 114.501 41.9917C118.353 43.6983 122.752 42.9474 126.946 42.8791C131.14 42.8109 135.926 43.8576 138.001 47.6806C139.209 49.9334 139.186 52.6641 139.026 55.2354C138.251 67.1139 135.197 78.6965 134.057 90.5522C132.895 102.385 133.898 115.106 140.394 124.89L97.7024 136.382Z" fill="#4B3425"/>
<path d="M216.842 202.669L127.972 108.711C115.436 112.602 102.034 108.552 92.9621 99.495C84.8477 122.569 76.5511 162.005 99.0706 192.338L121.134 170.675C121.134 170.675 129.796 197.822 138.343 224.492C146.343 249.455 176.977 258.602 197.4 242.15C197.673 241.922 197.947 241.718 198.198 241.49C215.11 227.791 231.795 218.484 216.842 202.669Z" fill="#FEAF8F"/>
<path d="M127.972 108.711L101.122 80.335C101.122 80.335 97.0647 87.8216 92.9619 99.4952C102.056 108.575 115.436 112.602 127.972 108.711Z" fill="#FEAF8F"/>
<path d="M160.817 114.969C159.176 123.616 150.856 129.305 142.195 127.666C133.534 126.028 127.835 117.722 129.476 109.075C131.118 100.428 139.437 94.7391 148.098 96.3775C156.76 97.9932 162.458 106.322 160.817 114.969Z" fill="#FEAF8F"/>
<path d="M142.081 118.837C144.976 113.763 147.893 108.711 150.879 103.682C151.563 102.522 149.762 101.475 149.078 102.635C146.092 107.642 143.175 112.716 140.28 117.791C139.619 118.974 141.42 120.021 142.081 118.837Z" fill="#4B3425"/>
<path d="M121.134 170.675L138.958 225.538L136.268 153.608L121.134 170.675Z" fill="#4B3425"/>
<path d="M87.9246 116.516C84.2549 126.028 81.1094 136.313 79.3999 146.349C79.2404 147.282 80.0837 147.896 80.9271 147.532C84.6424 145.871 88.3804 144.21 92.0957 142.549C93.3265 142.002 92.2552 140.205 91.0472 140.751C87.3319 142.412 83.5939 144.073 79.8786 145.734C80.3801 146.121 80.9043 146.508 81.4057 146.918C83.1152 136.86 86.2607 126.574 89.9303 117.085C90.4318 115.833 88.4032 115.287 87.9246 116.516Z" fill="#4B3425"/>
<path d="M109.692 114.15C110.854 117.449 112.039 120.749 113.202 124.048C113.658 125.3 115.664 124.754 115.208 123.502C114.045 120.203 112.86 116.903 111.698 113.603C111.265 112.352 109.236 112.898 109.692 114.15Z" fill="#4B3425"/>
<path d="M111.949 126.187C114 125.027 116.051 123.844 118.126 122.683C119.288 122.023 118.24 120.225 117.077 120.885C115.026 122.046 112.974 123.229 110.9 124.39C109.715 125.05 110.763 126.847 111.949 126.187Z" fill="#4B3425"/>
<path d="M102.467 104.911C106.98 109.758 113.088 112.352 119.721 112.238C121.066 112.215 121.066 110.122 119.721 110.167C113.612 110.281 108.119 107.937 103.948 103.454C103.014 102.453 101.532 103.932 102.467 104.911Z" fill="#4B3425"/>
<path d="M94.8994 166.806C94.8994 166.806 95.7656 155.246 99.0933 150.468C104.746 142.344 107.003 141.843 112.04 138.908C114.137 137.679 117.054 137.201 119.493 137.269C121.909 137.315 124.485 139.158 124.416 141.57C124.371 143.937 122.069 145.552 119.995 146.69C110.832 151.787 100.461 156.452 95.606 165.759L94.8994 166.806Z" fill="#4B3425"/>
<path d="M126.08 136.564C127.471 139.59 127.425 142.981 126.012 146.008C125.442 147.214 127.243 148.26 127.813 147.054C129.59 143.3 129.59 139.295 127.881 135.517C127.311 134.311 125.533 135.358 126.08 136.564Z" fill="#4B3425"/>
<path d="M39.1245 287.639C36.9363 316.857 38.6458 347.031 44.2301 375.817C44.4808 377.136 46.4866 376.568 46.2359 375.27C40.6744 346.689 39.0333 316.675 41.1986 287.639C41.3126 286.296 39.2156 286.296 39.1245 287.639Z" fill="#4B3425"/>
<path d="M154.981 152.106C154.594 152.197 158.081 159.433 160.52 164.735C161.204 166.192 161.842 167.739 163.096 168.763C164.327 169.787 166.287 170.22 167.928 169.309C170.048 168.149 170.663 165.282 169.82 163.37C168.954 161.459 167.084 160.275 165.284 159.183C161.91 157.112 154.981 152.106 154.981 152.106Z" fill="#A28FFF"/>
<path d="M216.272 160.366C215.884 160.457 219.372 167.694 221.811 172.996C222.494 174.452 223.133 175.999 224.386 177.023C225.617 178.047 227.577 178.48 229.218 177.57C231.338 176.409 231.954 173.542 231.11 171.63C230.244 169.719 228.375 168.536 226.574 167.443C223.224 165.373 216.272 160.366 216.272 160.366Z" fill="#A28FFF"/>
<path d="M58.7037 154.063C58.453 153.767 53.4385 160.025 49.7232 164.508C48.6976 165.76 47.6035 167.011 47.1932 168.559C46.8057 170.129 47.2844 172.063 48.7887 173.155C50.7717 174.566 53.6209 173.861 54.9656 172.268C56.3104 170.675 56.584 168.468 56.7891 166.374C57.1994 162.46 58.7037 154.063 58.7037 154.063Z" fill="#A28FFF"/>
<path d="M120.564 120.339C120.176 120.317 121.407 128.258 122.205 134.016C122.433 135.608 122.615 137.27 123.504 138.612C124.393 139.955 126.148 140.91 127.972 140.524C130.342 140.023 131.755 137.452 131.504 135.381C131.231 133.31 129.795 131.626 128.382 130.056C125.761 127.143 120.564 120.339 120.564 120.339Z" fill="#A28FFF"/>
<path d="M134.468 97.4244C131.254 86.7293 135.22 77.0582 142.855 69.4805C148.645 63.7234 156.417 58.7399 160.247 51.2988C163.574 44.859 159.859 38.5329 153.637 35.7339C149.784 34.0045 145.477 33.8452 141.351 33.5039C138.046 33.2308 133.829 33.6859 134.855 28.9755C135.425 26.3586 136.77 23.4004 139.824 23.1273C141.146 23.0136 141.169 20.92 139.824 21.0566C136.633 21.3296 134.65 23.4004 133.51 26.2904C132.53 28.748 131.413 32.9578 134.354 34.5051C135.995 35.3699 138.32 35.3471 140.12 35.5064C143.38 35.8022 146.685 35.8705 149.853 36.6669C155.597 38.1005 161.409 42.8792 158.856 49.3646C156.987 54.075 152.474 57.9207 148.804 61.243C145.18 64.5198 141.374 67.6828 138.228 71.4603C131.938 78.9924 129.635 88.527 132.485 97.9933C132.826 99.2449 134.855 98.6988 134.468 97.4244Z" fill="#4B3425"/>
<path d="M40.7883 99.8138C44.23 99.5179 46.5549 97.4927 48.6975 94.9213C51.1363 92.0313 53.7575 88.6863 54.1906 84.8178C54.9656 77.7181 47.8541 73.3262 41.5632 73.0532C34.657 72.7801 24.3317 75.2832 19.9326 81.1314C18.2915 83.3159 17.0607 86.7065 18.7702 89.2324C20.115 91.2349 22.7818 91.8038 24.7192 90.3474C25.7677 89.551 24.742 87.7305 23.6707 88.5497C20.1378 91.2121 20.2289 84.5447 21.1179 83.0884C21.87 81.8823 22.9413 80.8356 24.081 80.0164C25.6309 78.9013 27.4316 78.1277 29.2322 77.4905C34.0415 75.7611 39.9449 74.1682 44.9822 75.6701C50.179 77.1947 53.598 82.0189 51.3415 87.3209C49.6776 91.2577 45.4381 97.3562 40.7883 97.743C39.4663 97.8568 39.4663 99.9275 40.7883 99.8138Z" fill="#4B3425"/>
</svg>
