<svg width="18" height="12" viewBox="0 0 18 12" fill="none" xmlns="http://www.w3.org/2000/svg">
<path d="M2.6665 7.33362C3.21879 7.33362 3.6665 7.78133 3.6665 8.33362V10.3336C3.66633 10.8858 3.21868 11.3336 2.6665 11.3336H1.6665C1.11433 11.3336 0.66668 10.8858 0.666504 10.3336V8.33362C0.666504 7.78133 1.11422 7.33362 1.6665 7.33362H2.6665ZM7.3335 5.33362C7.88563 5.33379 8.3335 5.78144 8.3335 6.33362V10.3336C8.33332 10.8856 7.88552 11.3334 7.3335 11.3336H6.3335C5.78132 11.3336 5.33367 10.8858 5.3335 10.3336V6.33362C5.3335 5.78133 5.78121 5.33362 6.3335 5.33362H7.3335ZM11.9995 2.99963C12.5517 2.99963 12.9993 3.4475 12.9995 3.99963V10.3336C12.9993 10.8858 12.5517 11.3336 11.9995 11.3336H10.9995C10.4475 11.3334 9.99969 10.8856 9.99951 10.3336V3.99963C9.99969 3.44761 10.4475 2.99981 10.9995 2.99963H11.9995ZM16.6665 0.666626C17.2188 0.666626 17.6665 1.11434 17.6665 1.66663V10.3336C17.6663 10.8858 17.2187 11.3336 16.6665 11.3336H15.6665C15.1143 11.3336 14.6667 10.8858 14.6665 10.3336V1.66663C14.6665 1.11434 15.1142 0.666626 15.6665 0.666626H16.6665Z" fill="#4B3425"/>
</svg>
