<svg width="617" height="240" viewBox="0 0 617 240" fill="none" xmlns="http://www.w3.org/2000/svg">
<path opacity="0.48" d="M256.806 234.433C194.85 232.397 133.399 225.781 74.3697 214.823C57.9757 211.769 41.5285 208.318 27.6362 202.466C13.7438 196.613 2.51289 187.993 0.330572 178.116C-0.600905 173.854 0.30396 169.242 4.74844 165.775C13.5043 158.92 31.2024 159.286 45.6536 160.86C81.1029 164.709 115.541 171.675 147.371 181.456C96.3792 168.51 46.798 147.342 31.4419 116.377C29.4725 112.417 28.1152 108.25 29.0467 104.162C31.6282 92.9977 51.482 85.1729 70.9365 84.4413C90.3645 83.7097 109.1 88.4968 125.974 94.0951C155.036 103.749 181.356 116.17 203.499 130.706C154.45 116.281 125.468 85.5705 112.773 54.5893C111.23 50.8518 109.899 46.9076 111.522 43.1701C114.955 35.3453 130.791 31.0671 144.63 31.9578C158.469 32.8484 170.578 37.6037 181.596 42.5022C220.931 59.9808 255.875 82.0557 272.854 109.045C236.952 86.6678 225.695 52.0605 245.043 23.5286C250.312 15.7515 258.11 8.16523 270.246 3.63256C282.408 -0.900107 299.627 -1.56808 310.645 3.7916C319.322 8.02209 322.489 14.8609 324.804 21.302C335.157 50.2952 337.073 80.3221 330.473 109.729C329.541 84.314 344.658 58.7562 372.336 38.9238C386.627 28.6815 404.246 20.0138 423.86 13.35C452.603 3.60075 485.87 21.0157 471.685 38.4466C471.578 38.5739 471.498 38.6852 471.392 38.8124C450.394 64.4021 419.069 87.145 380.639 104.703C404.246 82.994 437.885 64.9588 477.087 52.9989C492.204 48.3867 510.328 44.6333 525.95 48.5775C546.229 53.6987 551.632 69.9526 543.062 81.8012C534.493 93.6497 516.183 102.063 498.618 109.92C469.422 122.993 440.254 136.066 411.059 149.139C453.933 129.673 499.336 109.522 553.096 104.528C563.794 103.526 575.957 103.399 584.074 107.518C593.708 112.417 593.309 121.625 586.709 128.034C580.109 134.444 568.878 138.706 558.019 142.746C522.277 156.057 486.535 169.369 450.819 182.681C490.5 167.349 536.143 151.286 582.663 157.123C597.461 158.984 612.79 164.073 616.276 172.598C620.322 182.506 606.722 191.937 592.484 197.981C560.042 211.769 520.175 218.004 481.319 223.968C408.69 235.117 331.511 246.25 259.76 233.685L256.806 234.433Z" fill="#FFF0EB"/>
</svg>
