<svg width="16" height="12" viewBox="0 0 16 12" fill="none" xmlns="http://www.w3.org/2000/svg">
<path d="M6.12012 8.73125C7.3957 7.65237 9.26447 7.65237 10.54 8.73125C10.6041 8.78927 10.6408 8.87142 10.6426 8.95782C10.6443 9.04428 10.6106 9.12771 10.5488 9.18828L8.55176 11.2039C8.49324 11.2631 8.41334 11.2967 8.33008 11.2967C8.24683 11.2967 8.16695 11.2631 8.10841 11.2039L6.11036 9.18828C6.04876 9.12769 6.01484 9.0442 6.01661 8.95782C6.01844 8.87137 6.05598 8.78923 6.12012 8.73125ZM3.45509 6.0418C6.20318 3.48576 10.4589 3.48581 13.207 6.0418C13.269 6.10166 13.3047 6.1842 13.3057 6.27032C13.3065 6.3565 13.2726 6.43961 13.2119 6.50079L12.0576 7.66778C11.9387 7.78688 11.7461 7.78953 11.624 7.67364C10.7216 6.85645 9.54753 6.40406 8.33008 6.40411C7.1134 6.40461 5.93997 6.85697 5.03809 7.67364C4.91602 7.78946 4.72343 7.78686 4.6045 7.66778L3.4502 6.50079C3.38953 6.43972 3.35564 6.35641 3.35645 6.27032C3.35739 6.18419 3.39312 6.10164 3.45509 6.0418ZM0.790046 3.36016C5.00516 -0.67901 11.6552 -0.679261 15.8701 3.36016C15.931 3.4201 15.9653 3.50225 15.9658 3.5877C15.9663 3.67326 15.9324 3.7555 15.8721 3.81622L14.7158 4.98321C14.5967 5.10268 14.4041 5.10393 14.2832 4.98614C12.6773 3.4594 10.5459 2.60833 8.33008 2.60821C6.11399 2.6082 3.98213 3.45925 2.37598 4.98614C2.25519 5.10413 2.06241 5.1029 1.94337 4.98321L0.787116 3.81622C0.726852 3.75545 0.692803 3.67328 0.693366 3.5877C0.693982 3.50219 0.729035 3.42008 0.790046 3.36016Z" fill="#4B3425"/>
</svg>
