<svg width="720" height="720" viewBox="0 0 720 720" fill="none" xmlns="http://www.w3.org/2000/svg">
<path d="M360 440C437.32 440 500 502.68 500 580C500 657.32 437.32 720 360 720C282.68 720 220 657.32 220 580C220 502.68 282.68 440 360 440Z" fill="#16572E"/>
<path d="M140 220C217.32 220 280 282.68 280 360C280 437.32 217.32 500 140 500C62.6802 500 4.74968e-06 437.32 3.0598e-06 360C1.36992e-06 282.68 62.6801 220 140 220Z" fill="#16572E"/>
<path d="M360 3.0598e-06C437.32 1.36992e-06 500 62.6801 500 140C500 217.32 437.32 280 360 280C282.68 280 220 217.32 220 140C220 62.6801 282.68 4.74968e-06 360 3.0598e-06Z" fill="#16572E"/>
<path d="M580 220C657.32 220 720 282.68 720 360C720 437.32 657.32 500 580 500C502.68 500 440 437.32 440 360C440 282.68 502.68 220 580 220Z" fill="#16572E"/>
</svg>
