<?xml version="1.0" encoding="UTF-8"?>
<svg version="1.1" xmlns="http://www.w3.org/2000/svg" width="462" height="606">
<path d="M0 0 C152.46 0 304.92 0 462 0 C462 199.98 462 399.96 462 606 C309.54 606 157.08 606 0 606 C0 406.02 0 206.04 0 0 Z " fill="#FEFEFE" transform="translate(0,0)"/>
<path d="M0 0 C152.46 0 304.92 0 462 0 C462 199.98 462 399.96 462 606 C309.54 606 157.08 606 0 606 C0 406.02 0 206.04 0 0 Z M22.35769123 92.62987864 C20.400985 96.04570038 20.58640869 99.31362248 20.61968327 103.14356041 C20.61502335 103.97536969 20.61036343 104.80717896 20.6055623 105.66419458 C20.59354861 108.46992174 20.6030322 111.27517033 20.61231995 114.0809021 C20.60814981 116.10535816 20.60267407 118.12981188 20.59600013 120.15426123 C20.58148465 125.73185912 20.58580926 131.30931001 20.59316695 136.88691616 C20.5978813 142.89657434 20.58540415 148.90619992 20.57514954 154.91584778 C20.55891849 166.01363004 20.55652341 177.11137362 20.56145453 188.20916281 C20.56600801 198.4618623 20.56541716 208.71454427 20.55961418 218.96724319 C20.55885732 220.34141296 20.55810134 221.71558273 20.55734624 223.0897525 C20.55620107 225.16039588 20.55505119 227.23103925 20.55388699 229.30168261 C20.54317822 248.55879102 20.53846057 267.81589357 20.54635715 287.07300377 C20.54665433 287.79927278 20.5469515 288.52554179 20.54725768 289.27381896 C20.54970673 295.17199215 20.55231826 301.07016526 20.55494181 306.96833837 C20.56504411 329.97533924 20.55669071 352.98226712 20.53344727 375.98925781 C20.50738615 401.82717177 20.49452374 427.66504179 20.50163502 453.50296938 C20.5023511 456.25702134 20.50302548 459.0110733 20.50367546 461.76512527 C20.50384527 462.44326162 20.50401508 463.12139797 20.50419003 463.8200839 C20.50649493 474.06563342 20.49850694 484.3111422 20.48538399 494.55668259 C20.470489 506.20661837 20.46998296 517.85647521 20.4874549 529.50641201 C20.49599482 535.45342964 20.49804163 541.40026455 20.48280334 547.34727287 C20.46903516 552.7877908 20.47361758 558.22796811 20.49304258 563.66846593 C20.4968272 565.64017525 20.49381044 567.61191135 20.48343093 569.58359699 C20.4703509 572.2577316 20.48176366 574.9306749 20.49942875 577.60475731 C20.48977824 578.37558545 20.48012773 579.14641359 20.47018477 579.94060016 C20.5404604 585.09912353 21.71802047 588.0420805 25 592 C28.63718614 594.42479076 30.3164357 594.25139837 34.64897728 594.25447559 C35.33135543 594.25768207 36.01373357 594.26088855 36.71678984 594.26419219 C39.02012938 594.27254198 41.32321225 594.26655067 43.6265564 594.26069641 C45.2878784 594.26371484 46.94919901 594.26760276 48.61051714 594.27228898 C53.18894404 594.28261769 57.76729306 594.28037482 62.34572649 594.27610838 C67.27833951 594.27364995 72.21093335 594.28264433 77.14353943 594.29014587 C86.81231124 594.30291974 96.48105531 594.30468321 106.14983414 594.30234561 C114.00632187 594.30056522 121.86280115 594.30230609 129.71928787 594.30657005 C131.39421862 594.30746284 131.39421862 594.30746284 133.10298634 594.30837366 C135.37114409 594.30958536 137.63930183 594.3107995 139.90745957 594.31201603 C161.1966099 594.32290201 182.4857444 594.32072413 203.77489562 594.31463119 C223.26469103 594.30946158 242.75443645 594.32071676 262.24422197 594.33972941 C282.23991526 594.35908654 302.23558488 594.36736751 322.2312876 594.36360615 C333.46390465 594.36169081 344.69647916 594.36421394 355.92908859 594.37832069 C365.49190119 594.39020846 375.05464507 594.39166877 384.61745857 594.37953053 C389.49903585 594.37362336 394.38048729 594.3725929 399.26205635 594.38453293 C403.72796655 594.39532956 408.19364488 594.39236305 412.65954395 594.37827124 C414.27797115 594.37560705 415.89641617 594.37804441 417.51482598 594.38600711 C419.70994662 594.39606036 421.90425302 594.38773732 424.09934044 594.37473011 C425.93038073 594.37481263 425.93038073 594.37481263 427.79841173 594.37489682 C432.78501375 593.79098 435.04819738 592.11221572 438.28086513 588.33472675 C440.34341291 584.33385783 440.55819007 581.03881109 440.50615788 576.64437199 C440.51227123 575.81393136 440.51838459 574.98349074 440.52468321 574.12788525 C440.54031249 571.33871817 440.52740528 568.55041698 440.5146637 565.76124573 C440.5199876 563.74402369 440.52705239 561.72680562 440.53571075 559.70959514 C440.5543855 554.16121104 440.5480164 548.61309298 440.53755772 543.06469762 C440.53057944 537.08299436 440.54655321 531.10134651 440.55955505 525.11965942 C440.57997034 514.07691147 440.58200772 503.0342343 440.57433859 491.99147697 C440.56726814 481.78974247 440.5672061 471.58803951 440.57420158 461.38630486 C440.57511291 460.01830723 440.57602367 458.65030961 440.57693387 457.28231199 C440.57831699 455.22091039 440.57970808 453.15950879 440.58112001 451.09810721 C440.59410244 431.931018 440.59921302 412.76393935 440.5875864 393.59684849 C440.58714843 392.87420245 440.58671046 392.1515564 440.58625922 391.407012 C440.58265232 385.53846687 440.57881759 379.66992188 440.57496829 373.8013769 C440.56011993 350.90814911 440.56890058 328.0150406 440.59692383 305.12182617 C440.62834304 279.4051046 440.64332455 253.68845366 440.63312382 227.97171253 C440.63208702 225.230312 440.6310998 222.48891146 440.6301403 219.74751091 C440.62989142 219.07250129 440.62964253 218.39749167 440.6293861 217.70202721 C440.62594432 207.50716807 440.63525869 197.31237126 440.65091133 187.1175251 C440.66866872 175.52510851 440.6683574 163.93281754 440.64555968 152.34040255 C440.63439218 146.42359075 440.63131194 140.50706495 440.64986038 134.59026527 C440.6666146 129.17622724 440.66038247 123.76272576 440.63564359 118.34872281 C440.63074329 116.38782392 440.63432201 114.42688216 440.64713103 112.46601898 C440.66326927 109.80385248 440.64870891 107.14355112 440.62641239 104.48146915 C440.63840407 103.71704841 440.65039575 102.95262767 440.66275081 102.16504267 C440.56289694 96.34114334 438.74103957 93.44724808 435 89 C431.43892764 86.17859454 427.09386201 86.73286381 422.74316406 86.77294922 C421.49870766 86.77251114 421.49870766 86.77251114 420.22911072 86.77206421 C417.49117518 86.7734558 414.75351291 86.78900896 412.015625 86.8046875 C410.11562244 86.80841824 408.21561796 86.81126492 406.31561279 86.81326294 C401.31787798 86.82089461 396.32025964 86.84053915 391.3225708 86.8626709 C386.22157364 86.88313933 381.12055765 86.89226679 376.01953125 86.90234375 C366.01296969 86.92378543 356.00649454 86.95791581 346 87 C345.81751709 88.00595215 345.63503418 89.0119043 345.44702148 90.04833984 C345.19296977 91.39428587 344.93846986 92.74014735 344.68359375 94.0859375 C344.56512085 94.74585693 344.44664795 95.40577637 344.32458496 96.08569336 C342.29720159 106.64106213 337.1413507 116.4489581 328.1875 122.625 C320.49094654 127.83149205 313.78625082 130.1163234 304.44322205 130.14044189 C303.79813189 130.14341302 303.15304173 130.14638414 302.48840338 130.1494453 C300.33462216 130.15809153 298.18089679 130.1596371 296.02709961 130.16113281 C294.47934858 130.16576402 292.93159868 130.17078909 291.3838501 130.17617798 C287.18306162 130.18927823 282.98228912 130.19574276 278.78148341 130.20018864 C276.15296577 130.20312431 273.52445243 130.20723013 270.89593697 130.21169281 C262.66050104 130.22536393 254.42507503 130.23503144 246.18962854 130.2388947 C236.70494085 130.24336914 227.22039771 130.26089005 217.73575395 130.2898953 C210.39114972 130.31157064 203.04658598 130.32160216 195.70195013 130.32293582 C191.32193885 130.32398003 186.94206352 130.32980504 182.56208611 130.34775543 C178.43587065 130.36433675 174.30989186 130.36634329 170.18365479 130.35761642 C168.67771835 130.35685129 167.17176866 130.36111876 165.66586494 130.37107468 C151.37600198 130.45992922 138.91725958 128.73890742 127.8125 119.1015625 C120.62351057 111.77641797 116.26330111 102.47705452 115.42944336 92.26123047 C115.34681747 91.27476532 115.26419159 90.28830017 115.17906189 89.27194214 C115.09042625 88.14733078 115.09042625 88.14733078 115 87 C104.02107345 86.9072621 93.0422403 86.83621562 82.06300163 86.79275131 C76.96471177 86.77188908 71.86669017 86.74359617 66.76855469 86.69824219 C61.84725437 86.65473604 56.92621185 86.63085263 52.00473404 86.62049103 C50.12845934 86.61310824 48.25219854 86.59869127 46.37603378 86.57707977 C43.74500951 86.54798223 41.11504637 86.54404662 38.48388672 86.54589844 C37.7106456 86.53151733 36.93740448 86.51713623 36.14073181 86.50231934 C30.04918676 86.54861869 26.6194041 88.40042137 22.35769123 92.62987864 Z " fill="#D5C2B9" transform="translate(0,0)"/>
<path d="M0 0 C6.58438836 4.50246747 11.29635606 11.12267636 13.73828125 18.71484375 C14.63234362 27.81140855 14.02477412 35.58198898 9.73828125 43.71484375 C12.90598829 46.8146979 12.90598829 46.8146979 17.05078125 47.83984375 C20.38442074 46.44436676 22.89205636 44.47172587 25.67578125 42.1875 C32.39498435 37.38988718 40.8256141 37.89904318 48.73828125 38.71484375 C58.28213504 40.96977728 64.16681293 46.37991363 69.44140625 54.43359375 C73.54047733 61.64400794 73.45445352 68.55381087 72.73828125 76.71484375 C71.7446391 80.25739402 70.45224866 83.46289666 68.73828125 86.71484375 C69.30675781 87.12734375 69.87523437 87.53984375 70.4609375 87.96484375 C82.80691609 97.19856396 90.05670262 108.264091 92.73828125 123.71484375 C93.04515421 127.1161046 93.10818997 130.4886436 93.11328125 133.90234375 C93.13777344 134.77826172 93.16226563 135.65417969 93.1875 136.55664062 C93.19136719 137.40677734 93.19523438 138.25691406 93.19921875 139.1328125 C93.20743652 139.89360107 93.2156543 140.65438965 93.22412109 141.43823242 C92.49590676 144.85059358 91.28344944 146.31289067 88.73828125 148.71484375 C85.70323032 149.46500127 82.72445293 149.38782606 79.61108398 149.34594727 C78.22755234 149.35668022 78.22755234 149.35668022 76.81607056 149.36763 C73.76750148 149.38453809 70.72039842 149.36510334 67.671875 149.34375 C65.55485411 149.34457843 63.43783327 149.34703683 61.32081604 149.35105896 C56.88466017 149.35391832 52.44900881 149.33920062 48.01293945 149.31176758 C42.32061117 149.2776641 36.62918398 149.28370878 30.9368124 149.30243015 C26.56594808 149.3129868 22.19529428 149.30407478 17.82444954 149.28904533 C15.72524706 149.28385466 13.62602268 149.28435601 11.52682304 149.29059029 C8.59609378 149.29602711 5.66666514 149.27571723 2.73608398 149.24829102 C1.42920876 149.25807983 1.42920876 149.25807983 0.09593201 149.26806641 C-5.76358586 149.1745973 -5.76358586 149.1745973 -8.29882812 146.83468628 C-9.46744122 144.26193744 -9.66476628 142.35690151 -9.6953125 139.53125 C-9.7063501 138.52658691 -9.7173877 137.52192383 -9.72875977 136.48681641 C-9.71901123 135.42769043 -9.7092627 134.36856445 -9.69921875 133.27734375 C-9.695271 132.2001709 -9.69132324 131.12299805 -9.68725586 130.01318359 C-9.5283875 121.19233362 -8.24421609 113.67983844 -4.26171875 105.71484375 C-13.17171875 105.71484375 -22.08171875 105.71484375 -31.26171875 105.71484375 C-30.02421875 108.68484375 -30.02421875 108.68484375 -28.76171875 111.71484375 C-26.11647799 118.89870817 -25.79685596 125.85798859 -25.82421875 133.46484375 C-25.82679688 134.52445313 -25.829375 135.5840625 -25.83203125 136.67578125 C-25.97962668 144.29170565 -25.97962668 144.29170565 -28.26171875 147.71484375 C-32.20665484 149.02982245 -35.97877177 148.8705935 -40.09179688 148.87597656 C-40.99449814 148.88094147 -41.8971994 148.88590637 -42.82725525 148.89102173 C-45.81583413 148.90563736 -48.80435999 148.91244325 -51.79296875 148.91796875 C-53.86657717 148.9237193 -55.94018557 148.92947704 -58.01379395 148.9352417 C-62.36157479 148.94574902 -66.70933715 148.95159391 -71.05712891 148.95507812 C-76.63608513 148.96057193 -82.21479841 148.98462002 -87.79367828 149.01305008 C-92.07611819 149.03164272 -96.35849908 149.03688019 -100.64097595 149.038414 C-102.69833204 149.0414471 -104.75568693 149.04949762 -106.81300354 149.06259918 C-109.68607291 149.07959429 -112.55854183 149.07779585 -115.43164062 149.07128906 C-116.28576035 149.08050385 -117.13988007 149.08971863 -118.0198822 149.09921265 C-123.84981605 149.05770991 -123.84981605 149.05770991 -125.94116974 147.31687546 C-130.78497869 141.44058048 -128.78935162 129.89547176 -128.26171875 122.71484375 C-126.03938862 108.91398688 -118.32376436 97.90808955 -107.9609375 88.9296875 C-106.26171875 87.71484375 -106.26171875 87.71484375 -104.26171875 87.71484375 C-104.55046875 87.01101562 -104.83921875 86.3071875 -105.13671875 85.58203125 C-108.53126041 76.55349337 -110.22825129 67.79386952 -107.19140625 58.40625 C-103.32886939 49.95299311 -98.12222689 44.33134854 -89.76171875 40.27734375 C-82.14207044 37.57283895 -72.95619433 37.24254036 -65.22265625 39.66796875 C-60.33464809 42.00121736 -56.23378523 45.05636146 -52.26171875 48.71484375 C-48.79671875 46.23984375 -48.79671875 46.23984375 -45.26171875 43.71484375 C-45.55046875 42.97621094 -45.83921875 42.23757812 -46.13671875 41.4765625 C-49.42889158 32.48024299 -51.31310395 23.76612143 -47.29296875 14.68359375 C-42.24472103 5.04602993 -35.87545892 -1.337909 -25.34765625 -4.8125 C-16.22525363 -6.87956127 -8.00413713 -4.54811937 0 0 Z " fill="#D5C2B9" transform="translate(176.26171875,161.28515625)"/>
<path d="M0 0 C72.6 0 145.2 0 220 0 C220 199.98 220 399.96 220 606 C213.73 606 207.46 606 201 606 C203.475 603.525 203.475 603.525 206 601 C207.54759868 598.9290836 207.54759868 598.9290836 208.75 596.875 C209.36101562 595.88113281 209.36101562 595.88113281 209.984375 594.8671875 C212.30442789 590.60185949 212.14307089 586.57487113 212.13422108 581.86013508 C212.13657331 581.01657185 212.13892554 580.17300862 212.14134905 579.30388287 C212.14805268 576.45227576 212.14758041 573.60071407 212.14717102 570.74909973 C212.15046879 568.69393602 212.15419418 566.63877295 212.1583125 564.58361071 C212.16835041 558.91644737 212.17205217 553.24929462 212.17470181 547.58212364 C212.17859954 541.47766726 212.18817821 535.37321932 212.19691467 529.26876831 C212.21575864 515.21455857 212.22593719 501.16035077 212.23437535 487.10613194 C212.23858066 480.16254802 212.2438028 473.21896496 212.24905988 466.27538176 C212.26695064 442.51143668 212.28194717 418.74749135 212.28938007 394.98354053 C212.28985483 393.49139896 212.29033072 391.99925739 212.29080774 390.50711582 C212.29104411 389.76714054 212.29128049 389.02716525 212.29152403 388.26476647 C212.29272524 384.5156223 212.29394068 380.76647814 212.29516602 377.01733398 C212.29540617 376.27330221 212.29564632 375.52927044 212.29589374 374.76269225 C212.3037877 350.63623319 212.32722122 326.50982328 212.35972196 302.38338568 C212.39401273 276.88163587 212.41373051 251.37991483 212.41702431 225.87814158 C212.41744186 223.07910231 212.41792142 220.28006305 212.41844749 217.48102379 C212.41857069 216.79181058 212.41869388 216.10259738 212.4188208 215.39249893 C212.42115375 204.29665954 212.43681898 193.2008772 212.45728934 182.10505815 C212.47753607 170.95360521 212.48269643 159.80221981 212.47351871 148.65074561 C212.46896279 142.60829342 212.47093529 136.56602659 212.49028015 130.52359962 C212.50783218 124.99351404 212.50697887 119.46375016 212.49138286 113.93366154 C212.48899467 111.9315994 212.49339266 109.92951544 212.50521151 107.92748675 C212.52027524 105.20762251 212.51069624 102.48890628 212.49498463 99.76907063 C212.50520683 98.9903759 212.51542904 98.21168118 212.52596101 97.40938964 C212.44351813 90.87769029 210.27533518 85.93507849 206.2890625 80.79296875 C198.40898676 73.19036047 191.27488795 71.87475848 180.51611328 71.79467773 C179.68618362 71.78477814 178.85625397 71.77487854 178.00117493 71.76467896 C175.27424921 71.73324188 172.54730611 71.70837732 169.8203125 71.68359375 C167.92316246 71.66300884 166.02601685 71.64201197 164.12887573 71.62062073 C159.14770098 71.56555881 154.16648593 71.5160798 149.1852417 71.46777344 C144.09741653 71.41744213 139.00964952 71.3618169 133.921875 71.30664062 C123.94796641 71.19925341 113.97400722 71.09776565 104 71 C103.9906543 70.17274414 103.98130859 69.34548828 103.97167969 68.49316406 C103.91799681 64.74483585 103.8343429 60.99775838 103.75 57.25 C103.73582031 55.94804688 103.72164063 54.64609375 103.70703125 53.3046875 C103.67480469 52.05429687 103.64257812 50.80390625 103.609375 49.515625 C103.5779541 47.78747559 103.5779541 47.78747559 103.54589844 46.02441406 C103.20547481 42.948818 103.20547481 42.948818 101.36322021 40.62689209 C98.27526784 38.50107865 96.31569506 38.4830674 92.57910156 38.45410156 C91.27805481 38.43438293 89.97700806 38.41466431 88.63653564 38.39434814 C87.22123253 38.3926851 85.80592885 38.39145417 84.390625 38.390625 C82.93900711 38.37564128 81.48740626 38.35891371 80.03582764 38.34051514 C76.22181409 38.29685002 72.40803049 38.27684471 68.59381104 38.26177979 C64.69912117 38.24220542 60.80467953 38.20023588 56.91015625 38.16015625 C49.27350424 38.08486345 41.63695646 38.03456673 34 38 C33.72987595 37.1719989 33.45975189 36.3439978 33.18144226 35.49090576 C32.82467911 34.40690491 32.46791595 33.32290405 32.1003418 32.20605469 C31.74771774 31.13055359 31.39509369 30.05505249 31.03178406 28.94696045 C27.53717557 18.9657314 20.46749672 10.39847012 11.0859375 5.46875 C9.20053454 4.61310539 7.30026476 3.78899675 5.3828125 3.0078125 C3 2 3 2 0 0 Z " fill="#FEFDFD" transform="translate(242,0)"/>
<path d="M0 0 C72.6 0 145.2 0 220 0 C220 0.33 220 0.66 220 1 C219.38253906 1.14695313 218.76507813 1.29390625 218.12890625 1.4453125 C206.72284237 4.46609654 197.04542665 11.16111626 190.98046875 21.4140625 C188.08920962 26.88190553 185.91667483 31.84972011 185 38 C184.1945575 38.00586624 183.38911499 38.01173248 182.55926514 38.01777649 C174.96677143 38.07569283 167.37460629 38.14776299 159.78240585 38.23571491 C155.87920956 38.28043273 151.97611798 38.31968549 148.07275391 38.34643555 C144.30539845 38.37245484 140.53844565 38.41284682 136.77133942 38.46318626 C135.33449565 38.47986442 133.89758222 38.49137282 132.46065521 38.49761391 C130.44729072 38.50724372 128.43405298 38.53699877 126.42089844 38.56762695 C125.27506287 38.57873001 124.12922729 38.58983307 122.94866943 38.60127258 C119.60531513 39.0533704 118.21359327 39.4469635 116 42 C115.354631 45.09010736 115.354631 45.09010736 115.390625 48.63671875 C115.35839844 49.93544922 115.32617188 51.23417969 115.29296875 52.57226562 C115.27822414 53.94400595 115.26390669 55.31575093 115.25 56.6875 C115.22184125 58.07100111 115.19191392 59.45446744 115.16015625 60.83789062 C115.08933891 64.22532021 115.03669824 67.61205667 115 71 C113.92417664 70.99920441 112.84835327 70.99840881 111.7399292 70.99758911 C101.5598717 70.99397373 91.38031687 71.02197728 81.20042038 71.0802784 C75.96780347 71.1092477 70.73563168 71.12739793 65.50292969 71.12011719 C60.44511485 71.1134896 55.38817693 71.13620317 50.33054352 71.17855453 C48.40906143 71.18962494 46.48748976 71.19044119 44.56600189 71.18042374 C32.57083866 71.12594635 22.38395679 71.32397573 12.98797607 79.81912231 C7.18547636 85.87573693 5.54901741 92.45642271 5.61968327 100.5796175 C5.61269339 101.84338894 5.61269339 101.84338894 5.6055623 103.13269112 C5.59360823 105.95680913 5.60300938 108.78044642 5.61231995 111.60456848 C5.60814721 113.6493869 5.60267002 115.69420301 5.59600013 117.7390148 C5.58151882 123.35911987 5.5857987 128.97907862 5.59316695 134.59919178 C5.59788969 140.65999876 5.58539663 146.72077367 5.57514954 152.78157043 C5.55893331 163.96945982 5.55651999 175.15730377 5.56145453 186.34519869 C5.56601163 196.68248206 5.56541263 207.01974806 5.55961418 217.35703087 C5.55885731 218.74364048 5.55810133 220.13025009 5.55734624 221.51685971 C5.55620104 223.60636616 5.55505116 225.69587261 5.55388699 227.78537905 C5.54318135 247.2128895 5.53845732 266.64039416 5.54635715 286.06790638 C5.54665433 286.80029077 5.5469515 287.53267516 5.54725768 288.28725302 C5.54970661 294.23471977 5.5523182 300.18218645 5.55494181 306.12965312 C5.5650427 329.32515106 5.55669213 352.52057661 5.53344727 375.71606445 C5.50737156 401.7785402 5.49452769 427.84097236 5.50163502 453.90346164 C5.50235107 456.68281503 5.50302546 459.46216843 5.50367546 462.24152184 C5.50384527 462.92586474 5.50401508 463.61020765 5.50419003 464.31528822 C5.50649252 474.64336818 5.49851836 484.97140765 5.48538399 495.29947853 C5.47047115 507.0469423 5.47000595 518.7943275 5.4874549 530.54179505 C5.49598045 536.53590974 5.49807634 542.52984332 5.48280334 548.52394867 C5.46899276 554.01204902 5.47367296 559.4998125 5.49304258 564.98789319 C5.49681404 566.97236995 5.49384774 568.95687347 5.48343093 570.94132648 C5.34189865 588.32173359 5.34189865 588.32173359 14 603 C15.485 604.485 15.485 604.485 17 606 C11.39 606 5.78 606 0 606 C0 406.02 0 206.04 0 0 Z " fill="#FEFEFE" transform="translate(0,0)"/>
<path d="M0 0 C7.50399362 3.37796598 12.75944917 9.44013104 16.7578125 16.50390625 C18.06355655 20.78384509 18.66411732 24.98033098 19.16015625 29.421875 C20.05723544 32.85987037 21.11124703 33.99154154 23.8828125 36.19140625 C26.82087449 36.80619092 26.82087449 36.80619092 30.12011719 36.73730469 C32.01162506 36.76688263 32.01162506 36.76688263 33.94134521 36.79705811 C35.31245886 36.79872113 36.68357309 36.79995207 38.0546875 36.80078125 C39.46146549 36.81576556 40.86822589 36.83249324 42.27496338 36.85089111 C45.97060969 36.8945498 49.66601871 36.91456006 53.36187744 36.92962646 C57.13592552 36.94920319 60.90971754 36.99117245 64.68359375 37.03125 C72.08326447 37.10653579 79.48282766 37.1568367 86.8828125 37.19140625 C87.00726337 42.98966823 87.09755079 48.78713722 87.1574707 54.58642578 C87.18247297 56.55531372 87.2164865 58.52411018 87.26000977 60.49267578 C87.74331687 82.92949747 87.74331687 82.92949747 79.6015625 91.62890625 C78.869375 92.14453125 78.1371875 92.66015625 77.3828125 93.19140625 C76.650625 93.72765625 75.9184375 94.26390625 75.1640625 94.81640625 C70.49094318 97.63308091 66.76936562 98.44358817 61.31257629 98.46556091 C60.34282436 98.47341593 60.34282436 98.47341593 59.35348147 98.48142964 C57.19498234 98.49638777 55.03672115 98.49713386 52.87817383 98.49780273 C51.32717491 98.50542721 49.77617976 98.51385521 48.22518921 98.52302551 C44.01626307 98.54495282 39.80740958 98.55376737 35.59843278 98.55885196 C32.96590394 98.56249853 30.33339403 98.56874025 27.70087242 98.57585335 C18.50817405 98.60034461 9.31553206 98.61339842 0.12280273 98.61694336 C-8.43133174 98.6205753 -16.98510668 98.65044686 -25.53913134 98.69234794 C-32.89390477 98.72710498 -40.2485594 98.74249276 -47.60341436 98.74318939 C-51.99128052 98.74398056 -56.37878057 98.75264458 -60.76656151 98.78118706 C-64.89783083 98.80745983 -69.02843298 98.80952214 -73.15974808 98.79353142 C-74.66975808 98.79172403 -76.17980726 98.79834316 -77.68973351 98.81435013 C-87.52163296 98.91216243 -95.72337269 98.14188088 -103.25331402 91.2308569 C-109.14423697 85.1745345 -111.45943556 78.51570103 -111.45707703 70.18640137 C-111.44159317 69.35274048 -111.42610931 68.51907959 -111.41015625 67.66015625 C-111.40591141 66.78363403 -111.40166656 65.90711182 -111.39729309 65.00402832 C-111.3806388 62.23282802 -111.34301259 59.46238289 -111.3046875 56.69140625 C-111.28962349 54.80079183 -111.2759381 52.91016589 -111.26367188 51.01953125 C-111.23077889 46.40986986 -111.17909005 41.80076563 -111.1171875 37.19140625 C-110.33902176 37.18998123 -109.56085602 37.18855621 -108.7591095 37.18708801 C-101.4169724 37.16924072 -94.07553603 37.12757732 -86.73370838 37.05931568 C-82.9593547 37.025059 -79.18540517 36.9999379 -75.41088867 36.99584961 C-71.76654046 36.99156358 -68.12310374 36.96307799 -64.47904015 36.91797447 C-63.09047446 36.90500879 -61.70179964 36.90068858 -60.31318092 36.90525246 C-58.36471488 36.91016381 -56.41625342 36.88118021 -54.46801758 36.85083008 C-53.3599324 36.84416824 -52.25184723 36.83750641 -51.11018372 36.8306427 C-47.15038567 35.9849192 -45.63569797 34.29308104 -43.1171875 31.19140625 C-42.31276257 28.19952752 -42.31276257 28.19952752 -42.1796875 25.00390625 C-41.12362209 16.43911891 -37.97807302 10.11643746 -31.1171875 4.75390625 C-29.2421875 3.4453125 -29.2421875 3.4453125 -27.1171875 2.19140625 C-25.77914062 1.38509766 -25.77914062 1.38509766 -24.4140625 0.5625 C-17.10537238 -2.47701449 -7.58946877 -1.96869679 0 0 Z " fill="#FEFEFE" transform="translate(242.1171875,16.80859375)"/>
<path d="M0 0 C0.89010428 -0.00694553 1.78020857 -0.01389106 2.69728571 -0.02104706 C5.68610352 -0.03937385 8.67413266 -0.02903691 11.66297913 -0.01878357 C13.80321855 -0.02583917 15.94345297 -0.03458266 18.0836792 -0.04489136 C23.90185575 -0.06743545 29.71976092 -0.06443381 35.53796458 -0.05556989 C40.39155895 -0.05046774 45.24510197 -0.05774629 50.09869105 -0.06504196 C61.54692367 -0.08205699 72.99502306 -0.07845899 84.44325256 -0.06175232 C96.26195572 -0.04482826 108.08028961 -0.06066608 119.89895242 -0.0929752 C130.03918252 -0.11964786 140.1792975 -0.1269534 150.31955916 -0.11846012 C156.37892414 -0.11352428 162.43806689 -0.11578219 168.4974041 -0.13624763 C174.19466475 -0.15456812 179.89139312 -0.14869012 185.58862495 -0.12404823 C187.68123736 -0.11902887 189.77389007 -0.1225591 191.86647034 -0.13519669 C194.72027177 -0.15106978 197.57230809 -0.13623055 200.42602539 -0.11352539 C201.25695943 -0.12536112 202.08789348 -0.13719685 202.94400734 -0.14939123 C207.18787211 -0.08064746 208.83228504 0.17817698 212.32965946 2.82736301 C214.27650452 5.5146637 214.27650452 5.5146637 214.27650452 9.1396637 C212.9324185 13.67595402 212.9324185 13.67595402 210.27650452 15.5146637 C206.43848268 16.79400431 202.82450822 16.65932904 198.82511902 16.65510559 C197.95220337 16.65807671 197.07928772 16.66104784 196.17992008 16.66410899 C193.24351804 16.67280764 190.30715671 16.67430522 187.3707428 16.67579651 C185.27006442 16.68042381 183.16938688 16.68544835 181.06871033 16.69084167 C175.3538588 16.70397503 169.63901902 16.71041231 163.92415476 16.71485233 C160.35597353 16.71778118 156.78779554 16.7218856 153.21961594 16.72635651 C142.06195596 16.74003308 130.90430334 16.7496993 119.74663556 16.7535584 C106.85463383 16.75804153 93.962738 16.77560066 81.07076848 16.80455899 C71.11317289 16.82615193 61.15560715 16.83626138 51.19798839 16.83759952 C45.24707972 16.83864914 39.29627058 16.84459044 33.34538651 16.86241913 C27.74922847 16.8788588 22.15324522 16.88107528 16.55707169 16.87228012 C14.50154147 16.87150758 12.44600202 16.87588092 10.3904953 16.88573837 C7.58740601 16.89839415 4.78494175 16.8926158 1.9818573 16.88215637 C1.16580493 16.89021278 0.34975256 16.89826918 -0.49102867 16.90656972 C-5.06972449 16.86652882 -8.09655637 16.39339288 -11.72349548 13.5146637 C-13.26936424 10.42292618 -13.0170907 7.92036817 -12.72349548 4.5146637 C-9.45739012 -0.34667149 -5.38014147 -0.05321456 0 0 Z " fill="#D5C3BA" transform="translate(172.72349548339844,504.48533630371094)"/>
<path d="M0 0 C0.89010428 -0.00694553 1.78020857 -0.01389106 2.69728571 -0.02104706 C5.68610352 -0.03937385 8.67413266 -0.02903691 11.66297913 -0.01878357 C13.80321855 -0.02583917 15.94345297 -0.03458266 18.0836792 -0.04489136 C23.90185575 -0.06743545 29.71976092 -0.06443381 35.53796458 -0.05556989 C40.39155895 -0.05046774 45.24510197 -0.05774629 50.09869105 -0.06504196 C61.54692367 -0.08205699 72.99502306 -0.07845899 84.44325256 -0.06175232 C96.26195572 -0.04482826 108.08028961 -0.06066608 119.89895242 -0.0929752 C130.03918252 -0.11964786 140.1792975 -0.1269534 150.31955916 -0.11846012 C156.37892414 -0.11352428 162.43806689 -0.11578219 168.4974041 -0.13624763 C174.19466475 -0.15456812 179.89139312 -0.14869012 185.58862495 -0.12404823 C187.68123736 -0.11902887 189.77389007 -0.1225591 191.86647034 -0.13519669 C194.72027177 -0.15106978 197.57230809 -0.13623055 200.42602539 -0.11352539 C201.25695943 -0.12536112 202.08789348 -0.13719685 202.94400734 -0.14939123 C207.18863606 -0.08063508 208.82901128 0.1742536 212.32184696 2.83126926 C214.27650452 5.5146637 214.27650452 5.5146637 214.40150452 9.0771637 C213.03555891 13.25088638 211.99803867 14.24130675 208.27650452 16.5146637 C205.2543849 16.89614879 202.60244507 17.04724644 199.58460999 17.00914001 C198.70998549 17.01396885 197.83536098 17.01879768 196.93423271 17.02377284 C194.00374855 17.03504376 191.07413699 17.01772457 188.14369202 17.00050354 C186.04271712 17.00264941 183.94174338 17.0065271 181.84077454 17.01200867 C176.13418855 17.02170823 170.42791508 17.00639082 164.72136688 16.98610258 C158.75260774 16.96854441 152.78385844 16.97205642 146.81507874 16.9728241 C136.79109971 16.9709506 126.76724173 16.95358007 116.74330139 16.92628479 C105.15019369 16.89483351 93.55721856 16.88428858 81.96407127 16.8857559 C70.81707798 16.88697626 59.6701279 16.87676713 48.52314758 16.86017227 C43.77684695 16.8531071 39.03056162 16.84944584 34.28425598 16.84838486 C28.69628288 16.84637694 23.10842125 16.83417508 17.52048492 16.81405258 C15.46818982 16.80820703 13.41588189 16.80575095 11.3635788 16.80690765 C8.56506674 16.80788812 5.76686755 16.79658709 2.96839905 16.78208923 C2.15371092 16.78518644 1.33902279 16.78828364 0.49964714 16.7914747 C-3.65125569 16.75589306 -7.06478232 16.57233452 -10.72349548 14.5146637 C-13.20388455 10.79408009 -13.18686751 8.91669799 -12.72349548 4.5146637 C-9.44668087 -0.34106386 -5.38479939 -0.05326063 0 0 Z " fill="#D5C2B9" transform="translate(172.72349548339844,337.48533630371094)"/>
<path d="M0 0 C0.87870805 -0.0055344 1.75741611 -0.01106879 2.66275167 -0.0167709 C5.60703918 -0.0303837 8.55047992 -0.01540469 11.49475098 -0.00050354 C13.60557923 -0.00428648 15.716405 -0.00978631 17.82722473 -0.01687622 C23.56065793 -0.03085125 29.29379172 -0.01964652 35.02720833 -0.00316501 C41.02400073 0.01067331 47.02077553 0.0042268 53.01757812 0.0007019 C63.08863151 -0.00200118 73.15956578 0.01148388 83.23059082 0.03465271 C94.87825884 0.06126299 106.52572767 0.06300987 118.17341566 0.05126435 C129.3727419 0.04048948 140.57199601 0.04667137 151.77131653 0.06081963 C156.53995974 0.06658194 161.30855022 0.0664948 166.07719421 0.06175423 C171.69146939 0.05698601 177.30552613 0.0670799 182.91975975 0.08870888 C184.98172964 0.094279 187.04372052 0.09473999 189.10569191 0.08975601 C191.91746569 0.08381143 194.7285698 0.0962926 197.5402832 0.11352539 C198.35886228 0.10751535 199.17744136 0.1015053 200.02082586 0.09531313 C204.61132478 0.14657464 207.64678192 0.60293082 211.2701416 3.50120544 C213.2701416 6.50120544 213.2701416 6.50120544 213.0201416 9.50120544 C212.2701416 12.50120544 212.2701416 12.50120544 210.2701416 15.50120544 C206.3979737 16.79192808 202.73389746 16.64926981 198.69813538 16.64837646 C197.36932757 16.6538915 197.36932757 16.6538915 196.01367515 16.65951794 C193.03348433 16.67056608 190.05332836 16.67440049 187.07312012 16.6782074 C184.9412627 16.68447102 182.80940639 16.69111773 180.67755127 16.69812012 C174.87806232 16.71553521 169.07858162 16.72608255 163.279073 16.73432565 C159.6586367 16.73947306 156.03820297 16.7455488 152.41776848 16.75183678 C141.09832996 16.77088737 129.77889796 16.7851207 118.45944649 16.79344875 C105.377233 16.80323192 92.29518822 16.82958023 79.21303421 16.86994964 C69.11023326 16.90005985 59.00748082 16.91491264 48.90463585 16.91822976 C42.86597491 16.9205854 36.82749426 16.92961302 30.7888813 16.95469093 C25.11143433 16.97788858 19.43428741 16.98223843 13.75680542 16.97192955 C11.67021121 16.97143211 9.58360263 16.97781352 7.49705315 16.9914856 C4.65404829 17.00907602 1.81213543 17.00216206 -1.03086853 16.98895264 C-1.86150659 16.99992188 -2.69214464 17.01089113 -3.54795355 17.02219278 C-7.19542289 16.98111916 -9.2891776 16.83597992 -12.23814487 14.59572124 C-13.84323288 12.34201628 -14.29770819 11.24030112 -14.2923584 8.50120544 C-14.31427246 7.84120544 -14.33618652 7.18120544 -14.35876465 6.50120544 C-12.28973535 -0.07856476 -5.83011503 -0.06840914 0 0 Z " fill="#D5C2B9" transform="translate(173.7298583984375,420.49879455566406)"/>
<path d="M0 0 C0.71800781 0.33773438 1.43601562 0.67546875 2.17578125 1.0234375 C5.76375049 2.26409076 9.12515593 2.33002264 12.875 2.3125 C13.55691406 2.32861328 14.23882812 2.34472656 14.94140625 2.36132812 C18.62360071 2.36483498 21.35066037 2.00699541 24.6953125 0.41796875 C28.23833391 -1.10226384 29.45808006 -1.34844668 33 0 C41.75872585 5.82227441 46.94895581 13.8203645 50.3359375 23.58203125 C51 27 51 27 51 38 C26.25 38 1.5 38 -24 38 C-24 25.19439462 -23.08412977 16.74056616 -15 7 C-6.31887879 -1.61645736 -6.31887879 -1.61645736 0 0 Z " fill="#FEFDFD" transform="translate(86,259)"/>
<path d="M0 0 C8.77474118 2.90331171 18.2434712 2.91068868 26.7578125 -0.81640625 C29.18021049 -1.54109853 30.27211589 -1.2929813 32.625 -0.375 C41.21298523 5.05272004 46.15126181 11.66553981 50 20.9375 C50.93019125 26.42562839 50.625 32.05859999 50.625 37.625 C25.875 37.625 1.125 37.625 -24.375 37.625 C-24.375 22.962445 -21.77527427 14.10001662 -11.75 3.6875 C-7.86153165 -0.17358477 -5.34134358 -2.13289146 0 0 Z " fill="#FEFDFD" transform="translate(204.375,259.375)"/>
<path d="M0 0 C8.44334202 2.79366117 17.7760954 2.96424365 26.125 -0.1875 C28.96718318 -1.20764922 30.12446862 -1.57153878 33.00390625 -0.56640625 C36.44733859 1.50950913 38.43650822 3.24851233 40.6875 6.625 C40.88623224 8.59812726 41.000033 10.58037398 41.0625 12.5625 C41.46993435 19.40432209 43.22288444 25.26285287 45.6875 31.625 C42.053569 35.5922252 39.65061694 36.96245118 34.23632812 37.27197266 C32.06404343 37.30485232 29.89119312 37.30887974 27.71875 37.2890625 C26.56507935 37.29384613 25.41140869 37.29862976 24.22277832 37.30355835 C21.78864169 37.30695407 19.35445926 37.29777484 16.92041016 37.27685547 C13.19980948 37.25008856 9.48222586 37.27661795 5.76171875 37.30859375 C3.39322252 37.3052896 1.02472817 37.29888326 -1.34375 37.2890625 C-3.0080304 37.30424423 -3.0080304 37.30424423 -4.70593262 37.31973267 C-13.30335709 37.1896022 -13.30335709 37.1896022 -17.06054688 34.08349609 C-18.17526367 32.86654053 -18.17526367 32.86654053 -19.3125 31.625 C-17.97916667 27.625 -16.64583333 23.625 -15.3125 19.625 C-15.4190434 17.70721883 -15.54650725 15.79055662 -15.6875 13.875 C-15.72957525 10.39958424 -15.7465813 8.32288762 -13.8984375 5.3515625 C-9.65896757 1.07601197 -6.01854123 -2.43236381 0 0 Z " fill="#FEFEFE" transform="translate(145.3125,216.375)"/>
<path d="M0 0 C3.89373193 0.95635521 5.33111278 1.57254692 7.5625 4.875 C7.9230644 8.21007917 8.0135807 10.15807203 6.20458984 13.03320312 C5.18679443 14.08411133 5.18679443 14.08411133 4.1484375 15.15625 C3.32569336 16.01605469 2.50294922 16.87585938 1.65527344 17.76171875 C0.62537075 18.80049323 -0.40566146 19.83814842 -1.4375 20.875 C-2.73173083 22.19373026 -4.02565423 23.51276229 -5.31933594 24.83203125 C-9.01923018 28.58985093 -12.74394469 32.32207642 -16.47802734 36.04589844 C-18.8315809 38.394037 -21.17967223 40.7475446 -23.52734375 43.1015625 C-25.02572067 44.59927954 -26.52440726 46.09668685 -28.0234375 47.59375 C-28.72342865 48.29576538 -29.4234198 48.99778076 -30.1446228 49.72106934 C-31.12176743 50.69348572 -31.12176743 50.69348572 -32.11865234 51.68554688 C-32.97395035 52.53965149 -32.97395035 52.53965149 -33.8465271 53.41101074 C-36.30558565 55.67379932 -37.99120474 56.8196642 -41.3359375 57.234375 C-45.15459357 56.79191107 -46.32528071 55.77756302 -49.0625 53.125 C-49.90941406 52.31417969 -50.75632812 51.50335937 -51.62890625 50.66796875 C-52.55574219 49.74628906 -53.48257813 48.82460938 -54.4375 47.875 C-55.52952608 46.80816178 -56.62198891 45.74177048 -57.71484375 44.67578125 C-67.24698421 35.30386846 -67.24698421 35.30386846 -67.8125 31.0625 C-67.4375 27.875 -67.4375 27.875 -65.375 24.9375 C-62.4375 22.875 -62.4375 22.875 -59.125 22.625 C-54.12584694 24.31962816 -51.13587479 27.19983677 -47.4375 30.875 C-46.90382813 31.39449219 -46.37015625 31.91398438 -45.8203125 32.44921875 C-44.67748214 33.57590744 -43.55469774 34.72288983 -42.4375 35.875 C-39.45461941 34.53561991 -37.38551237 33.06524045 -35.09350586 30.7421875 C-34.462827 30.10812988 -33.83214813 29.47407227 -33.18235779 28.82080078 C-32.17750084 27.79575439 -32.17750084 27.79575439 -31.15234375 26.75 C-30.45484512 26.0472998 -29.7573465 25.34459961 -29.03871155 24.62060547 C-26.8126717 22.37676702 -24.59343303 20.12635745 -22.375 17.875 C-20.15214401 15.62451746 -17.92784624 13.37550943 -15.70057678 11.12939453 C-14.31550535 9.73207735 -12.93311593 8.33209549 -11.55369568 6.92919922 C-10.92616898 6.2951416 -10.29864227 5.66108398 -9.65209961 5.0078125 C-9.1023497 4.44980957 -8.55259979 3.89180664 -7.9861908 3.31689453 C-5.16724384 0.69233951 -3.9190244 -0.14250998 0 0 Z " fill="#D5C2BA" transform="translate(134.4375,504.125)"/>
<path d="M0 0 C2.875 2.125 2.875 2.125 5 5 C5.3989892 8.35623638 5.46211444 10.26553547 3.64208984 13.15820312 C2.62429443 14.20911133 2.62429443 14.20911133 1.5859375 15.28125 C0.76319336 16.14105469 -0.05955078 17.00085938 -0.90722656 17.88671875 C-1.93712925 18.92549323 -2.96816146 19.96314842 -4 21 C-5.29423083 22.31873026 -6.58815423 23.63776229 -7.88183594 24.95703125 C-11.58173018 28.71485093 -15.30644469 32.44707642 -19.04052734 36.17089844 C-21.3940809 38.519037 -23.74217223 40.8725446 -26.08984375 43.2265625 C-27.58822067 44.72427954 -29.08690726 46.22168685 -30.5859375 47.71875 C-31.28592865 48.42076538 -31.9859198 49.12278076 -32.7071228 49.84606934 C-33.68426743 50.81848572 -33.68426743 50.81848572 -34.68115234 51.81054688 C-35.53645035 52.66465149 -35.53645035 52.66465149 -36.4090271 53.53601074 C-39.07570804 55.9898503 -40.72934205 56.96715603 -44.35986328 57.40771484 C-48.86937235 56.90262563 -50.1249633 55.70663826 -53.2421875 52.4765625 C-54.16257812 51.538125 -55.08296875 50.5996875 -56.03125 49.6328125 C-56.97934266 48.63037475 -57.92725736 47.62776868 -58.875 46.625 C-59.84477294 45.62866681 -60.81611375 44.63385715 -61.7890625 43.640625 C-69.81843272 35.36175457 -69.81843272 35.36175457 -70.375 31.1875 C-70 28 -70 28 -67.875 25.125 C-65 23 -65 23 -62.234375 22.45703125 C-57.47235583 23.25645234 -55.48370649 26.0434152 -52.375 29.5625 C-51.26989587 30.8038324 -50.15315449 32.03493096 -49.0234375 33.25390625 C-48.53794434 33.80377197 -48.05245117 34.3536377 -47.55224609 34.92016602 C-46.05307993 36.2201235 -46.05307993 36.2201235 -44.11772156 35.76193237 C-41.6189061 34.86288671 -40.42168537 33.77802429 -38.56420898 31.88891602 C-37.91350937 31.23476212 -37.26280975 30.58060822 -36.59239197 29.90663147 C-35.90061356 29.19623215 -35.20883514 28.48583282 -34.49609375 27.75390625 C-33.77639908 27.02759506 -33.05670441 26.30128387 -32.31520081 25.55296326 C-30.01544116 23.22978584 -27.72606733 20.89669938 -25.4375 18.5625 C-23.14367737 16.23361317 -20.84773619 13.90687197 -18.54908752 11.58274841 C-17.11907435 10.13576387 -15.69215832 8.68571064 -14.2686615 7.23231506 C-13.62111404 6.575009 -12.97356659 5.91770294 -12.30639648 5.24047852 C-11.73888168 4.66169449 -11.17136688 4.08291046 -10.58665466 3.48658752 C-7.05374571 0.17649208 -4.76343587 -0.66688102 0 0 Z " fill="#D5C2BA" transform="translate(137,337)"/>
<path d="M0 0 C0.83150574 -0.00540298 1.66301147 -0.01080597 2.51971436 -0.01637268 C5.26090382 -0.02885245 8.00104144 -0.01237426 10.7421875 0.00561523 C12.65120499 0.00546023 14.56022279 0.00397099 16.46923828 0.00120544 C20.46726417 -0.00017821 24.46493117 0.01237397 28.46289062 0.03515625 C33.58430066 0.0635407 38.70511445 0.06080308 43.8265686 0.04806614 C47.76771119 0.04110688 51.70871628 0.04890109 55.64984131 0.06132317 C57.53806023 0.06583525 59.42629392 0.06617659 61.31451416 0.06225777 C63.95477488 0.05934313 66.5942177 0.07586438 69.234375 0.09765625 C70.01270691 0.0931546 70.79103882 0.08865295 71.59295654 0.08401489 C76.107234 0.14583494 79.04725474 0.67738754 82.6171875 3.50170898 C84.6171875 6.50170898 84.6171875 6.50170898 84.4296875 9.50170898 C83.60515475 12.54613761 83.07666404 13.63250681 80.6171875 15.50170898 C77.40542165 17.10759191 73.90460175 16.66698675 70.37548828 16.67871094 C69.52330719 16.68528214 68.6711261 16.69185333 67.79312134 16.69862366 C64.96624673 16.7183738 62.13942524 16.7300221 59.3125 16.73999023 C57.8664419 16.74610353 57.8664419 16.74610353 56.3911705 16.75234032 C51.29024214 16.77320683 46.18934074 16.78750691 41.08837891 16.796875 C35.8132009 16.80795005 30.5384435 16.84236092 25.26341438 16.8820467 C21.21254681 16.90815722 17.16178037 16.9165618 13.11083603 16.92015648 C11.16593454 16.92503564 9.22103796 16.93668725 7.27621841 16.95519447 C4.5563622 16.9794713 1.83760654 16.97864221 -0.88232422 16.97167969 C-2.09033691 16.99089478 -2.09033691 16.99089478 -3.32275391 17.01049805 C-6.93344536 16.97675624 -8.96523044 16.82032688 -11.87869263 14.59733582 C-13.49734784 12.34213172 -13.95067816 11.24892827 -13.9453125 8.50170898 C-13.96722656 7.84170898 -13.98914063 7.18170898 -14.01171875 6.50170898 C-11.98807161 0.06625969 -5.7364952 -0.07125528 0 0 Z " fill="#D5C2B9" transform="translate(173.3828125,539.498291015625)"/>
<path d="M0 0 C0.86222672 -0.00700928 1.72445343 -0.01401855 2.61280823 -0.02124023 C5.46160125 -0.03883876 8.30940008 -0.027191 11.15820312 -0.01367188 C13.1383076 -0.01636626 15.11841079 -0.02024823 17.09851074 -0.02526855 C21.24793091 -0.03116612 25.3970066 -0.02259225 29.54638672 -0.00390625 C34.86643645 0.01888335 40.18567904 0.00576167 45.50569916 -0.01819611 C49.59436123 -0.03264704 53.6828318 -0.02805131 57.77149963 -0.01768494 C59.73311966 -0.01501571 61.69475705 -0.01829429 63.65635681 -0.02760315 C66.39767543 -0.0377571 69.13768518 -0.02228414 71.87890625 0 C73.09623192 -0.01214539 73.09623192 -0.01214539 74.33815002 -0.02453613 C77.90971669 0.02927893 80.01058401 0.19690556 82.9119873 2.36633301 C84.92596808 5.20277377 85.43945312 7.03412099 85.43945312 10.51757812 C83.66905863 13.26474199 82.37653469 15.04903734 79.43945312 16.51757812 C76.72019438 16.63681679 74.02575949 16.6959358 71.30541992 16.71044922 C70.46459869 16.71862671 69.62377747 16.7268042 68.75747681 16.73522949 C65.96788245 16.76009363 63.178339 16.77660176 60.38867188 16.79101562 C58.96103484 16.79900114 58.96103484 16.79900114 57.50455666 16.80714798 C52.46732005 16.83388352 47.43010826 16.85325745 42.39282227 16.86767578 C37.18714423 16.8843281 31.98209873 16.92910959 26.77665997 16.98004723 C22.77636478 17.01368524 18.7762204 17.02524941 14.77579689 17.03090286 C12.85682145 17.03762448 10.93785625 17.05287013 9.01901817 17.07679367 C6.33270934 17.10837575 3.64811528 17.10849278 0.96166992 17.10107422 C0.16927414 17.11747955 -0.62312164 17.13388489 -1.43952942 17.15078735 C-5.45394768 17.10541614 -7.34309251 16.68543519 -10.55802917 14.20376587 C-12.56054688 11.51757812 -12.56054688 11.51757812 -13.12304688 7.95507812 C-11.85999186 0.23640857 -6.88499479 -0.06869231 0 0 Z " fill="#D5C2B9" transform="translate(172.560546875,456.482421875)"/>
<path d="M0 0 C1.24484917 -0.01051392 1.24484917 -0.01051392 2.5148468 -0.02124023 C5.25120765 -0.03880835 7.98652948 -0.02720087 10.72290039 -0.01367188 C12.6295237 -0.01636739 14.53614567 -0.02025031 16.44276428 -0.02526855 C20.43658551 -0.03116221 24.43004858 -0.02260585 28.42382812 -0.00390625 C33.53627808 0.01886771 38.64788734 0.00576923 43.76030636 -0.01819611 C47.69721272 -0.03267086 51.63392078 -0.02804013 55.57083321 -0.01768494 C57.4554409 -0.01502149 59.34006676 -0.01827396 61.22465324 -0.02760315 C63.86249124 -0.0377947 66.49898084 -0.02223122 69.13671875 0 C69.91145538 -0.00809692 70.68619202 -0.01619385 71.48440552 -0.02453613 C76.65942874 0.05601513 79.66203069 1.21261109 83.63305664 4.51757812 C84.35961914 6.51757812 84.35961914 6.51757812 84.25805664 8.51757812 C84.25032227 9.17757813 84.24258789 9.83757812 84.23461914 10.51757812 C83.33373383 13.51272928 82.12770044 14.61236236 79.63305664 16.51757812 C76.65583845 16.91211951 74.04896433 17.06485265 71.07250977 17.03515625 C70.21028305 17.04216553 69.34805634 17.0491748 68.45970154 17.05639648 C65.61090851 17.07399501 62.76310969 17.06234725 59.91430664 17.04882812 C57.93420216 17.05152251 55.95409897 17.05540448 53.97399902 17.0604248 C49.82457886 17.06632237 45.67550317 17.0577485 41.52612305 17.0390625 C36.20607331 17.0162729 30.88683072 17.02939458 25.56681061 17.05335236 C21.47814853 17.06780329 17.38967796 17.06320756 13.30101013 17.05284119 C11.3393901 17.05017196 9.37775271 17.05345054 7.41615295 17.0627594 C4.67483434 17.07291335 1.93482458 17.05744039 -0.80639648 17.03515625 C-1.61794693 17.04325317 -2.42949738 17.0513501 -3.26564026 17.05969238 C-6.88490991 17.00515854 -8.94646222 16.83842678 -11.86657715 14.61022949 C-13.48213074 12.35691933 -13.93480322 11.26182627 -13.92944336 8.51757812 C-13.95135742 7.85757812 -13.97327148 7.19757813 -13.99584961 6.51757812 C-11.97580827 0.09359573 -5.73005462 -0.05972986 0 0 Z " fill="#D5C2BA" transform="translate(173.366943359375,372.482421875)"/>
<path d="M0 0 C2.73883355 1.59029045 2.94967699 2.83465297 3.875 5.875 C4.05700224 10.42505596 2.01749318 12.8249971 -0.90141296 16.195755 C-1.97441399 17.29828865 -1.97441399 17.29828865 -3.0690918 18.4230957 C-3.88391525 19.26358963 -4.69873871 20.10408356 -5.53825378 20.970047 C-6.85543144 22.30938545 -6.85543144 22.30938545 -8.19921875 23.67578125 C-9.56274223 25.06351997 -9.56274223 25.06351997 -10.95381165 26.47929382 C-12.87544475 28.43086646 -14.80214445 30.37730064 -16.73120117 32.3215332 C-19.19517921 34.80769183 -21.63490398 37.31631838 -24.07002544 39.83070087 C-26.40822287 42.23385557 -28.77433799 44.60889942 -31.13671875 46.98828125 C-32.00471603 47.89129471 -32.87271332 48.79430817 -33.76701355 49.72468567 C-40.63710698 56.54638203 -40.63710698 56.54638203 -45.2668457 56.84863281 C-49.64831808 55.85262222 -51.42721295 54.5905616 -54.59375 51.43359375 C-55.07074341 50.96188248 -55.54773682 50.4901712 -56.03918457 50.00416565 C-57.03688916 49.00751751 -58.02473573 48.00091181 -59.00292969 46.98510742 C-60.49852787 45.43902182 -62.03016579 43.9371162 -63.5703125 42.43554688 C-64.53886804 41.45811111 -65.50509877 40.47836501 -66.46875 39.49609375 C-67.33951172 38.61107178 -68.21027344 37.7260498 -69.10742188 36.81420898 C-71.48884567 33.27310062 -71.52652905 31.18782171 -71 27 C-68.53822256 24.17619646 -66.81163806 23.19840041 -63.1875 22.3125 C-58.26697806 23.37378904 -55.49910698 26.52172103 -52 30 C-51.3915625 30.59425781 -50.783125 31.18851562 -50.15625 31.80078125 C-48.75541833 33.18509367 -47.37529918 34.59031834 -46 36 C-42.91122406 34.63130155 -40.87599098 33.09238638 -38.55175781 30.65185547 C-37.8971759 29.97130096 -37.24259399 29.29074646 -36.56817627 28.58956909 C-35.52122589 27.4894902 -35.52122589 27.4894902 -34.453125 26.3671875 C-32.95403961 24.82333014 -31.45400996 23.28038919 -29.953125 21.73828125 C-27.59572904 19.30666369 -25.24502522 16.86977296 -22.91015625 14.41650391 C-20.65101971 12.04831545 -18.36721755 9.70638438 -16.078125 7.3671875 C-15.388255 6.62975311 -14.69838501 5.89231873 -13.98760986 5.13253784 C-9.29238644 0.38763364 -6.69671299 -0.9828959 0 0 Z " fill="#D5C2B9" transform="translate(138,421)"/>
<path d="M0 0 C5.57322672 2.35974832 10.38269205 6.09150579 12.75 11.8125 C13.50648782 18.43176841 13.3487129 23.08394055 10 29 C5.86627674 33.37688345 1.37786189 36.26558988 -4.6875 36.5 C-10.69379191 36.35804923 -14.70308983 34.11313193 -19 30 C-22.22172351 25.77962904 -23.71503742 21.32330561 -23.37109375 16.0078125 C-22.27134982 10.05761904 -19.7017849 6.13931038 -14.875 2.5 C-9.94283259 -0.45606093 -5.63216345 -1.21531385 0 0 Z " fill="#FEFDFD" transform="translate(104,213)"/>
<path d="M0 0 C4.2502579 2.50015171 6.9531181 5.40623621 9.1875 9.875 C10.51061933 21.33201054 10.51061933 21.33201054 7.8359375 26.47265625 C4.06291028 30.91884471 -0.02438179 34.25307014 -5.90625 35.21875 C-12.06302152 35.64044668 -16.12112192 33.78094374 -20.8125 29.875 C-25.70609542 24.47949736 -26.16683525 21.01567853 -26.08984375 13.85546875 C-25.5787429 8.36293426 -22.65872355 5.50812043 -18.6875 2.0625 C-12.86883609 -2.36474428 -6.89480056 -2.03453131 0 0 Z " fill="#FEFDFD" transform="translate(166.8125,171.125)"/>
<path d="M0 0 C5.87225993 2.10514978 9.5767887 5.86518305 13 11 C13.80439377 16.6022823 14.30135784 22.44348637 11.6796875 27.59375 C8.14437362 31.84246803 4.42142163 34.64464459 -1 36 C-7.2087343 36.45611391 -11.73424464 35.76957044 -16.5625 31.6875 C-19.90929893 28.47986111 -21.77801077 25.85335192 -22.3359375 21.1953125 C-22.4153745 14.95156421 -22.4436781 10.79449479 -18 6 C-12.02734103 0.42348678 -8.07221266 -0.68408582 0 0 Z " fill="#FEFDFD" transform="translate(222,213)"/>
</svg>
