<?xml version="1.0" encoding="UTF-8"?>
<svg version="1.1" xmlns="http://www.w3.org/2000/svg" width="272" height="358">
<path d="M0 0 C89.76 0 179.52 0 272 0 C272 118.14 272 236.28 272 358 C182.24 358 92.48 358 0 358 C0 239.86 0 121.72 0 0 Z " fill="#FEFEFE" transform="translate(0,0)"/>
<path d="M0 0 C5.155278 2.16856818 7.31729249 5.495947 9.79296875 10.3984375 C10.60546875 12.421875 10.60546875 12.421875 10.60546875 14.421875 C19.51546875 14.421875 28.42546875 14.421875 37.60546875 14.421875 C38.92776064 17.06645879 38.70224069 19.09948801 38.66796875 22.046875 C38.65894531 23.04976562 38.64992187 24.05265625 38.640625 25.0859375 C38.62322266 26.24222656 38.62322266 26.24222656 38.60546875 27.421875 C39.60400879 27.40616455 40.60254883 27.3904541 41.63134766 27.37426758 C45.35489762 27.31974881 49.07841265 27.28544566 52.80224609 27.25708008 C54.41037947 27.24204324 56.01847219 27.22160828 57.62646484 27.19555664 C59.94508939 27.15894678 62.26316924 27.14209778 64.58203125 27.12890625 C65.29477203 27.11342239 66.00751282 27.09793854 66.74185181 27.08198547 C72.21995257 27.08016071 76.26861148 28.14568556 80.24911594 32.02285099 C82.18666607 35.44985704 82.02302669 38.70550667 81.9931488 42.53794861 C82.00122711 43.77509978 82.00122711 43.77509978 82.00946862 45.0372439 C82.02379245 47.80484695 82.01663362 50.57197469 82.00952148 53.33959961 C82.01522274 55.32220343 82.02218605 57.30480396 82.03031921 59.28739929 C82.04829277 64.67580321 82.04707434 70.06404467 82.04137683 75.45246959 C82.03829103 79.94816979 82.04437064 84.44383851 82.05041558 88.93953425 C82.06447299 99.54394454 82.0628894 110.1482743 82.05151367 120.75268555 C82.04003095 131.69883939 82.05410804 142.64474828 82.08091015 153.59086984 C82.10304939 162.98374979 82.10970853 172.37655274 82.10383373 181.76945692 C82.10045874 187.38166738 82.10291522 192.99372079 82.12008476 198.60590935 C82.13552348 203.88287177 82.13163243 209.15947063 82.11277962 214.43641853 C82.10908522 216.37422744 82.11222686 218.3120631 82.12266541 220.24984741 C82.13581895 222.89325961 82.12437831 225.53545822 82.10667419 228.17881775 C82.1210817 229.33183605 82.1210817 229.33183605 82.13578027 230.50814766 C82.08630211 234.0932892 81.72069105 236.23492743 79.82414341 239.31206608 C75.63389301 243.29670963 72.77078529 243.67258417 67.01467896 243.68257141 C66.35395917 243.68639696 65.69323938 243.69022251 65.01249778 243.69416398 C62.80008019 243.70447696 60.58792294 243.70050513 58.37548828 243.6965332 C56.78859212 243.70088066 55.20169806 243.70606393 53.61480713 243.71202087 C49.3048376 243.72541942 44.99495572 243.72598853 40.68496943 243.72345757 C37.08657178 243.72238831 33.48819189 243.72727017 29.88979805 243.732063 C21.39966306 243.74316144 12.90957232 243.74359389 4.41943359 243.73754883 C-4.33745516 243.73150965 -13.09418321 243.74381783 -21.85104454 243.7651189 C-29.37048774 243.782737 -36.8898798 243.78873587 -44.40934289 243.78548115 C-48.8998305 243.78366827 -53.39020353 243.78630488 -57.88067245 243.80019569 C-62.10454131 243.81277259 -66.32815982 243.8108313 -70.55202484 243.79778481 C-72.10078898 243.79541906 -73.64957072 243.79815369 -75.19831467 243.80640793 C-77.31575766 243.81687784 -79.43236106 243.80877375 -81.54977417 243.7960968 C-83.32565068 243.79634841 -83.32565068 243.79634841 -85.13740349 243.79660511 C-89.68646037 243.27323952 -92.85567762 241.8189431 -96.24530125 238.7416296 C-97.93517731 235.33056502 -97.81124186 232.02955544 -97.7822113 228.30580139 C-97.78759684 227.48103394 -97.79298238 226.6562665 -97.79853112 225.8065061 C-97.81285495 223.03890305 -97.80569612 220.27177531 -97.79858398 217.50415039 C-97.80428524 215.52154657 -97.81124855 213.53894604 -97.81938171 211.55635071 C-97.83735527 206.16794679 -97.83613684 200.77970533 -97.83043933 195.39128041 C-97.82735353 190.89558021 -97.83343314 186.39991149 -97.83947808 181.90421575 C-97.85353549 171.29980546 -97.8519519 160.6954757 -97.84057617 150.09106445 C-97.82909345 139.14491061 -97.84317054 128.19900172 -97.86997265 117.25288016 C-97.89211189 107.86000021 -97.89877103 98.46719726 -97.89289623 89.07429308 C-97.88952124 83.46208262 -97.89197772 77.85002921 -97.90914726 72.23784065 C-97.92458598 66.96087823 -97.92069493 61.68427937 -97.90184212 56.40733147 C-97.89814772 54.46952256 -97.90128936 52.5316869 -97.91172791 50.59390259 C-97.92488145 47.95049039 -97.91344081 45.30829178 -97.89573669 42.66493225 C-97.9053417 41.89625338 -97.91494671 41.12757451 -97.92484277 40.33560234 C-97.85679423 35.40486813 -96.89000839 32.89751963 -93.39453125 29.421875 C-89.77641527 26.72901786 -85.6717879 27.16664314 -81.34765625 27.2265625 C-80.19085358 27.23080734 -80.19085358 27.23080734 -79.01068115 27.23513794 C-76.55513793 27.24630487 -74.09996365 27.27140271 -71.64453125 27.296875 C-69.97656778 27.30690932 -68.30859857 27.31603439 -66.640625 27.32421875 C-62.55845228 27.34623275 -58.47655425 27.38073833 -54.39453125 27.421875 C-54.41773438 26.65101562 -54.4409375 25.88015625 -54.46484375 25.0859375 C-54.48289063 24.08304688 -54.5009375 23.08015625 -54.51953125 22.046875 C-54.54273438 21.04914063 -54.5659375 20.05140625 -54.58984375 19.0234375 C-54.39453125 16.421875 -54.39453125 16.421875 -52.39453125 14.421875 C-49.78076172 14.10302734 -49.78076172 14.10302734 -46.51171875 14.0078125 C-44.76181641 13.94980469 -44.76181641 13.94980469 -42.9765625 13.890625 C-41.75324219 13.8596875 -40.52992187 13.82875 -39.26953125 13.796875 C-38.03847656 13.75820312 -36.80742188 13.71953125 -35.5390625 13.6796875 C-32.49103749 13.5851751 -29.44302263 13.49962006 -26.39453125 13.421875 C-26.14203613 12.87845459 -25.88954102 12.33503418 -25.62939453 11.77514648 C-25.11481689 10.70115601 -25.11481689 10.70115601 -24.58984375 9.60546875 C-24.08735107 8.54283813 -24.08735107 8.54283813 -23.57470703 7.45874023 C-18.50550654 -1.29019226 -9.13864722 -2.20639444 0 0 Z " fill="#FEFEFE" transform="translate(141.39453125,56.578125)"/>
<path d="M0 0 C5.155278 2.16856818 7.31729249 5.495947 9.79296875 10.3984375 C10.60546875 12.421875 10.60546875 12.421875 10.60546875 14.421875 C19.51546875 14.421875 28.42546875 14.421875 37.60546875 14.421875 C38.92776064 17.06645879 38.70224069 19.09948801 38.66796875 22.046875 C38.65894531 23.04976562 38.64992187 24.05265625 38.640625 25.0859375 C38.62322266 26.24222656 38.62322266 26.24222656 38.60546875 27.421875 C39.60400879 27.40616455 40.60254883 27.3904541 41.63134766 27.37426758 C45.35489762 27.31974881 49.07841265 27.28544566 52.80224609 27.25708008 C54.41037947 27.24204324 56.01847219 27.22160828 57.62646484 27.19555664 C59.94508939 27.15894678 62.26316924 27.14209778 64.58203125 27.12890625 C65.29477203 27.11342239 66.00751282 27.09793854 66.74185181 27.08198547 C72.21995257 27.08016071 76.26861148 28.14568556 80.24911594 32.02285099 C82.18666607 35.44985704 82.02302669 38.70550667 81.9931488 42.53794861 C82.00122711 43.77509978 82.00122711 43.77509978 82.00946862 45.0372439 C82.02379245 47.80484695 82.01663362 50.57197469 82.00952148 53.33959961 C82.01522274 55.32220343 82.02218605 57.30480396 82.03031921 59.28739929 C82.04829277 64.67580321 82.04707434 70.06404467 82.04137683 75.45246959 C82.03829103 79.94816979 82.04437064 84.44383851 82.05041558 88.93953425 C82.06447299 99.54394454 82.0628894 110.1482743 82.05151367 120.75268555 C82.04003095 131.69883939 82.05410804 142.64474828 82.08091015 153.59086984 C82.10304939 162.98374979 82.10970853 172.37655274 82.10383373 181.76945692 C82.10045874 187.38166738 82.10291522 192.99372079 82.12008476 198.60590935 C82.13552348 203.88287177 82.13163243 209.15947063 82.11277962 214.43641853 C82.10908522 216.37422744 82.11222686 218.3120631 82.12266541 220.24984741 C82.13581895 222.89325961 82.12437831 225.53545822 82.10667419 228.17881775 C82.1210817 229.33183605 82.1210817 229.33183605 82.13578027 230.50814766 C82.08630211 234.0932892 81.72069105 236.23492743 79.82414341 239.31206608 C75.63389301 243.29670963 72.77078529 243.67258417 67.01467896 243.68257141 C66.35395917 243.68639696 65.69323938 243.69022251 65.01249778 243.69416398 C62.80008019 243.70447696 60.58792294 243.70050513 58.37548828 243.6965332 C56.78859212 243.70088066 55.20169806 243.70606393 53.61480713 243.71202087 C49.3048376 243.72541942 44.99495572 243.72598853 40.68496943 243.72345757 C37.08657178 243.72238831 33.48819189 243.72727017 29.88979805 243.732063 C21.39966306 243.74316144 12.90957232 243.74359389 4.41943359 243.73754883 C-4.33745516 243.73150965 -13.09418321 243.74381783 -21.85104454 243.7651189 C-29.37048774 243.782737 -36.8898798 243.78873587 -44.40934289 243.78548115 C-48.8998305 243.78366827 -53.39020353 243.78630488 -57.88067245 243.80019569 C-62.10454131 243.81277259 -66.32815982 243.8108313 -70.55202484 243.79778481 C-72.10078898 243.79541906 -73.64957072 243.79815369 -75.19831467 243.80640793 C-77.31575766 243.81687784 -79.43236106 243.80877375 -81.54977417 243.7960968 C-83.32565068 243.79634841 -83.32565068 243.79634841 -85.13740349 243.79660511 C-89.68646037 243.27323952 -92.85567762 241.8189431 -96.24530125 238.7416296 C-97.93517731 235.33056502 -97.81124186 232.02955544 -97.7822113 228.30580139 C-97.78759684 227.48103394 -97.79298238 226.6562665 -97.79853112 225.8065061 C-97.81285495 223.03890305 -97.80569612 220.27177531 -97.79858398 217.50415039 C-97.80428524 215.52154657 -97.81124855 213.53894604 -97.81938171 211.55635071 C-97.83735527 206.16794679 -97.83613684 200.77970533 -97.83043933 195.39128041 C-97.82735353 190.89558021 -97.83343314 186.39991149 -97.83947808 181.90421575 C-97.85353549 171.29980546 -97.8519519 160.6954757 -97.84057617 150.09106445 C-97.82909345 139.14491061 -97.84317054 128.19900172 -97.86997265 117.25288016 C-97.89211189 107.86000021 -97.89877103 98.46719726 -97.89289623 89.07429308 C-97.88952124 83.46208262 -97.89197772 77.85002921 -97.90914726 72.23784065 C-97.92458598 66.96087823 -97.92069493 61.68427937 -97.90184212 56.40733147 C-97.89814772 54.46952256 -97.90128936 52.5316869 -97.91172791 50.59390259 C-97.92488145 47.95049039 -97.91344081 45.30829178 -97.89573669 42.66493225 C-97.9053417 41.89625338 -97.91494671 41.12757451 -97.92484277 40.33560234 C-97.85679423 35.40486813 -96.89000839 32.89751963 -93.39453125 29.421875 C-89.77641527 26.72901786 -85.6717879 27.16664314 -81.34765625 27.2265625 C-80.19085358 27.23080734 -80.19085358 27.23080734 -79.01068115 27.23513794 C-76.55513793 27.24630487 -74.09996365 27.27140271 -71.64453125 27.296875 C-69.97656778 27.30690932 -68.30859857 27.31603439 -66.640625 27.32421875 C-62.55845228 27.34623275 -58.47655425 27.38073833 -54.39453125 27.421875 C-54.41773438 26.65101562 -54.4409375 25.88015625 -54.46484375 25.0859375 C-54.48289063 24.08304688 -54.5009375 23.08015625 -54.51953125 22.046875 C-54.54273438 21.04914063 -54.5659375 20.05140625 -54.58984375 19.0234375 C-54.39453125 16.421875 -54.39453125 16.421875 -52.39453125 14.421875 C-49.78076172 14.10302734 -49.78076172 14.10302734 -46.51171875 14.0078125 C-44.76181641 13.94980469 -44.76181641 13.94980469 -42.9765625 13.890625 C-41.75324219 13.8596875 -40.52992187 13.82875 -39.26953125 13.796875 C-38.03847656 13.75820312 -36.80742188 13.71953125 -35.5390625 13.6796875 C-32.49103749 13.5851751 -29.44302263 13.49962006 -26.39453125 13.421875 C-26.14203613 12.87845459 -25.88954102 12.33503418 -25.62939453 11.77514648 C-25.11481689 10.70115601 -25.11481689 10.70115601 -24.58984375 9.60546875 C-24.08735107 8.54283813 -24.08735107 8.54283813 -23.57470703 7.45874023 C-18.50550654 -1.29019226 -9.13864722 -2.20639444 0 0 Z M-91.39453125 36.421875 C-91.59209797 39.03803126 -91.66379843 41.54842233 -91.64849854 44.16577148 C-91.65161852 44.97461257 -91.6547385 45.78345366 -91.65795302 46.61680508 C-91.66596596 49.34226588 -91.65959663 52.06750607 -91.65332031 54.79296875 C-91.65602871 56.74073416 -91.65958879 58.68849855 -91.66394043 60.63626099 C-91.67308466 65.93778605 -91.66951182 71.23923356 -91.66318226 76.54076004 C-91.65813276 82.07852646 -91.66281077 87.61628606 -91.66595459 93.15405273 C-91.66959731 102.45525306 -91.66478713 111.75642167 -91.65527344 121.05761719 C-91.64438831 131.82422267 -91.64791367 142.59075242 -91.65892625 153.35735607 C-91.66799042 162.58708185 -91.66928867 171.81678477 -91.66404891 181.04651356 C-91.66092441 186.56527257 -91.66053297 192.08399594 -91.66712189 197.60275269 C-91.6728821 202.79012487 -91.66892284 207.97739904 -91.65733337 213.16476059 C-91.65467967 215.07318839 -91.6554639 216.98162439 -91.6598587 218.89004898 C-91.66528771 221.48613842 -91.65851248 224.0819096 -91.64849854 226.67797852 C-91.65295998 227.44119636 -91.65742142 228.2044142 -91.66201806 228.99075985 C-91.76820486 233.1628315 -91.76820486 233.1628315 -89.39453125 236.421875 C-86.47225411 236.72767928 -86.47225411 236.72767928 -82.97937012 236.67584229 C-82.31345336 236.67896227 -81.64753661 236.68208225 -80.96144056 236.68529677 C-78.71964761 236.69330383 -76.47812332 236.68694276 -74.23632812 236.68066406 C-72.63338563 236.68337273 -71.03044437 236.68693296 -69.42750549 236.69128418 C-65.06602761 236.70042527 -60.70464404 236.69685687 -56.34316444 236.69052601 C-51.78635014 236.68547489 -47.2295441 236.69015498 -42.67272949 236.69329834 C-35.01927231 236.69694059 -27.36585368 236.69213212 -19.71240234 236.68261719 C-10.85439639 236.67173214 -1.99648248 236.67525754 6.86152124 236.68627 C14.45644245 236.69533553 22.05133588 236.69663176 29.64626074 236.69139266 C34.18692376 236.68826891 38.72754347 236.68787469 43.26820374 236.69446564 C47.53631478 236.70022782 51.80430673 236.69626299 56.07240486 236.68467712 C57.64219528 236.68202448 59.21199565 236.68280588 60.78178215 236.68720245 C62.91809428 236.69263569 65.05402035 236.68585131 67.19030762 236.67584229 C68.98667286 236.67471121 68.98667286 236.67471121 70.81932831 236.67355728 C73.74527482 236.70915076 73.74527482 236.70915076 75.60546875 234.421875 C75.80303547 231.80571874 75.87473593 229.29532767 75.85943604 226.67797852 C75.86255602 225.86913743 75.865676 225.06029634 75.86889052 224.22694492 C75.87690346 221.50148412 75.87053413 218.77624393 75.86425781 216.05078125 C75.86696621 214.10301584 75.87052629 212.15525145 75.87487793 210.20748901 C75.88402216 204.90596395 75.88044932 199.60451644 75.87411976 194.30298996 C75.86907026 188.76522354 75.87374827 183.22746394 75.87689209 177.68969727 C75.88053481 168.38849694 75.87572463 159.08732833 75.86621094 149.78613281 C75.85532581 139.01952733 75.85885117 128.25299758 75.86986375 117.48639393 C75.87892792 108.25666815 75.88022617 99.02696523 75.87498641 89.79723644 C75.87186191 84.27847743 75.87147047 78.75975406 75.87805939 73.24099731 C75.8838196 68.05362513 75.87986034 62.86635096 75.86827087 57.67898941 C75.86561717 55.77056161 75.8664014 53.86212561 75.8707962 51.95370102 C75.87622521 49.35761158 75.86944998 46.7618404 75.85943604 44.16577148 C75.86389748 43.40255364 75.86835892 42.6393358 75.87295556 41.85299015 C75.97914236 37.6809185 75.97914236 37.6809185 73.60546875 34.421875 C70.88061147 34.24669753 68.25887513 34.19038367 65.53515625 34.2265625 C64.34081467 34.23080734 64.34081467 34.23080734 63.12234497 34.23513794 C60.57490112 34.2463486 58.02780664 34.27145438 55.48046875 34.296875 C53.7552134 34.30690367 52.02995256 34.31602972 50.3046875 34.32421875 C46.07147961 34.34629078 41.83853345 34.38082633 37.60546875 34.421875 C37.33391968 35.45139282 37.33391968 35.45139282 37.05688477 36.50170898 C36.80608154 37.40219971 36.55527832 38.30269043 36.296875 39.23046875 C35.93251343 40.56936157 35.93251343 40.56936157 35.56079102 41.93530273 C33.87732291 46.31713832 30.75323477 48.34799199 26.60546875 50.421875 C24.48281914 50.52904377 22.35676333 50.57076657 20.23144531 50.58300781 C19.25059967 50.59045517 19.25059967 50.59045517 18.24993896 50.59805298 C16.08197991 50.61268248 13.91409411 50.61947906 11.74609375 50.625 C10.23874917 50.6307523 8.7314046 50.63651003 7.22406006 50.64227295 C4.05985167 50.6527862 0.89566871 50.65862624 -2.26855469 50.66210938 C-6.3148745 50.6675845 -10.36085617 50.6915898 -14.40707016 50.72008133 C-17.52297938 50.73874842 -20.63880797 50.74391554 -23.75476837 50.74544525 C-25.24585054 50.74846485 -26.73693153 50.75646999 -28.22795868 50.76963043 C-30.31987314 50.7867713 -32.41097263 50.78479133 -34.50292969 50.77832031 C-35.6915863 50.78196594 -36.88024292 50.78561157 -38.10491943 50.78936768 C-42.89100045 50.25469981 -46.18783759 48.62856866 -49.58203125 45.234375 C-51.12602812 42.83851779 -52.04892304 40.8904678 -53.0078125 38.24609375 C-53.26989502 37.52897217 -53.53197754 36.81185059 -53.80200195 36.07299805 C-53.99753662 35.52812744 -54.19307129 34.98325684 -54.39453125 34.421875 C-59.34243302 34.3725099 -64.29019208 34.33617231 -69.23828125 34.31201172 C-70.92222591 34.30194183 -72.60615304 34.28828512 -74.29003906 34.27099609 C-76.70772626 34.24679074 -79.12518268 34.23540204 -81.54296875 34.2265625 C-82.67585831 34.21107864 -82.67585831 34.21107864 -83.83163452 34.19528198 C-88.07345083 34.04089818 -88.07345083 34.04089818 -91.39453125 36.421875 Z " fill="#D6C4BB" transform="translate(141.39453125,56.578125)"/>
<path d="M0 0 C4.15177657 1.79281261 6.27158115 3.81540699 8 8 C8.4430284 12.50277954 8.22571077 16.64081896 7 21 C9.96175123 20.38722388 11.38058783 19.74627478 14 18 C18.99802641 17.26018886 22.96393533 17.48196767 27.5 19.75 C30.48600655 22.4374059 31.84103333 23.88187651 32.14453125 27.92578125 C32.21045865 31.20417119 32.04063859 33.87808424 31 37 C31.763125 37.721875 32.52625 38.44375 33.3125 39.1875 C38.16603407 44.26677984 40.12929999 48.66427914 40.1875 55.625 C40.20167969 56.40101563 40.21585937 57.17703125 40.23046875 57.9765625 C40 60 40 60 38 62 C35.22664573 62.19982025 32.55530357 62.279792 29.78125 62.265625 C28.96756958 62.26753845 28.15388916 62.2694519 27.31555176 62.27142334 C25.593991 62.27278527 23.87241997 62.26908828 22.15087891 62.26074219 C19.5105083 62.25004258 16.87081811 62.260637 14.23046875 62.2734375 C12.55989433 62.27211591 10.88932033 62.26955352 9.21875 62.265625 C8.42601685 62.26967346 7.63328369 62.27372192 6.81652832 62.27789307 C1.22992027 62.22992027 1.22992027 62.22992027 -1 60 C-1.265625 57.5390625 -1.265625 57.5390625 -1.25 54.625 C-1.25773437 53.19027344 -1.25773437 53.19027344 -1.265625 51.7265625 C-1 49 -1 49 1 45 C-2.3 45 -5.6 45 -9 45 C-8.67 45.99 -8.34 46.98 -8 48 C-7.90550637 50.20670414 -7.87010261 52.41627905 -7.875 54.625 C-7.87113281 56.37683594 -7.87113281 56.37683594 -7.8671875 58.1640625 C-8 61 -8 61 -9 62 C-11.79993597 62.10103255 -14.57468644 62.13970088 -17.375 62.1328125 C-18.21466309 62.13376923 -19.05432617 62.13472595 -19.91943359 62.13571167 C-21.69824295 62.13639348 -23.47705477 62.13453917 -25.25585938 62.13037109 C-27.98833776 62.12502283 -30.72065176 62.13031605 -33.453125 62.13671875 C-35.1770837 62.13605797 -36.90104229 62.13477681 -38.625 62.1328125 C-39.44790527 62.13483673 -40.27081055 62.13686096 -41.11865234 62.13894653 C-46.88504946 62.11495054 -46.88504946 62.11495054 -48 61 C-48.95107829 52.90981505 -48.46904591 47.17641825 -43.5078125 40.609375 C-42 39 -42 39 -40 38 C-40.04640625 37.11957031 -40.0928125 36.23914063 -40.140625 35.33203125 C-40.17671875 34.17058594 -40.2128125 33.00914062 -40.25 31.8125 C-40.29640625 30.66394531 -40.3428125 29.51539063 -40.390625 28.33203125 C-39.92508752 24.36099651 -38.74971014 22.83179104 -36 20 C-32.46823294 17.35117471 -28.24709767 17.40777523 -24 18 C-21.1875 19.5625 -21.1875 19.5625 -19 21 C-18.01 20.67 -17.02 20.34 -16 20 C-16.33 19.01 -16.66 18.02 -17 17 C-17.7808157 10.30729403 -17.7808157 10.30729403 -15.80078125 6.9921875 C-11.15105252 1.39377356 -7.46006753 -0.65439189 0 0 Z " fill="#D7C5BC" transform="translate(109,118)"/>
<path d="M0 0 C4.12403425 1.78083297 6.55779071 4.24946431 9 8 C9.495 10.97 9.495 10.97 10 14 C22.87 14.495 22.87 14.495 36 15 C36.103125 17.84625 36.20625 20.6925 36.3125 23.625 C36.35802002 24.51010254 36.40354004 25.39520508 36.45043945 26.30712891 C36.52357368 30.49984343 36.30837087 33.20213361 33.60546875 36.5234375 C29.83730498 40.10517038 28.07948117 40.12995617 22.97729492 40.16113281 C21.71225632 40.17074036 20.44721771 40.1803479 19.1438446 40.19024658 C17.75605448 40.19509487 16.36826227 40.19937362 14.98046875 40.203125 C13.56040952 40.20887714 12.14035032 40.21463486 10.72029114 40.22039795 C7.74020017 40.23090925 4.76013619 40.23675077 1.7800293 40.24023438 C-2.03322923 40.24571334 -5.84612965 40.2697276 -9.65927601 40.29820633 C-12.59414195 40.31685967 -15.52892219 40.32203978 -18.46384239 40.32357025 C-19.86922853 40.32659226 -21.27461331 40.33460559 -22.67994118 40.34775543 C-24.64959236 40.36486702 -26.61939128 40.36108348 -28.58911133 40.35644531 C-30.26883781 40.36191376 -30.26883781 40.36191376 -31.98249817 40.36749268 C-36.35630438 39.83481968 -38.98370643 38.20588412 -41.80078125 34.86328125 C-43.46061458 30.90022643 -43.32509809 27.42949896 -43.1875 23.1875 C-43.125625 20.485625 -43.06375 17.78375 -43 15 C-34.42 14.67 -25.84 14.34 -17 14 C-16.01 11.03 -15.02 8.06 -14 5 C-9.50629344 -0.12073539 -6.47587297 -0.82233308 0 0 Z " fill="#FEFDFD" transform="translate(137,62)"/>
<path d="M0 0 C0.80677689 0.00045319 1.61355377 0.00090637 2.44477844 0.00137329 C3.71301956 -0.00366463 3.71301956 -0.00366463 5.00688171 -0.00880432 C7.81635486 -0.01834386 10.6257686 -0.02025893 13.43525696 -0.02133179 C15.37959824 -0.02454226 17.32393927 -0.02790616 19.26828003 -0.03141785 C23.34974223 -0.03741662 27.43118323 -0.03925698 31.51264954 -0.03866577 C36.75316829 -0.0385641 41.9935517 -0.05221806 47.23403835 -0.06943798 C51.25136952 -0.08053405 55.26866772 -0.08258572 59.28601265 -0.08205605 C61.21858754 -0.08323972 63.15116318 -0.087683 65.08372307 -0.09538841 C67.78229741 -0.10514028 70.48057474 -0.10232941 73.17915344 -0.09628296 C73.9839061 -0.10190247 74.78865875 -0.10752197 75.61779785 -0.11331177 C81.14834778 -0.08167846 81.14834778 -0.08167846 83.37666321 2.14663696 C82.84094892 5.68235125 82.84094892 5.68235125 81.37666321 7.14663696 C78.67903859 7.25242687 76.006882 7.29341635 73.30854797 7.29190063 C72.04030685 7.29693855 72.04030685 7.29693855 70.7464447 7.30207825 C67.93697156 7.31161778 65.12755781 7.31353285 62.31806946 7.31460571 C60.37372818 7.31781618 58.42938715 7.32118009 56.48504639 7.32469177 C52.40358418 7.33069055 48.32214318 7.3325309 44.24067688 7.3319397 C39.00015812 7.33183803 33.75977471 7.34549198 28.51928806 7.36271191 C24.5019569 7.37380798 20.48465869 7.37585965 16.46731377 7.37532997 C14.53473888 7.37651364 12.60216324 7.38095693 10.66960335 7.38866234 C7.971029 7.39841421 5.27275168 7.39560334 2.57417297 7.38955688 C1.76942032 7.39517639 0.96466766 7.4007959 0.13552856 7.40658569 C-5.39502137 7.37495239 -5.39502137 7.37495239 -7.62333679 5.14663696 C-6.80989224 -0.22209708 -5.17109816 0.03019052 0 0 Z " fill="#D8C6BE" transform="translate(112.62333679199219,223.85336303710938)"/>
<path d="M0 0 C0.82862045 0.00359528 1.65724091 0.00719055 2.51097107 0.01089478 C3.81329178 0.01067574 3.81329178 0.01067574 5.141922 0.01045227 C8.02594967 0.01115171 10.9099136 0.01894554 13.79393005 0.02676392 C15.78790247 0.02862799 17.78187535 0.03005194 19.77584839 0.03105164 C25.03498082 0.03487769 30.29408583 0.04470871 35.5532074 0.05575562 C40.91534555 0.06596786 46.27748811 0.07054885 51.63963318 0.07559204 C62.16894213 0.0863309 72.69823069 0.10340837 83.2275238 0.12442017 C83.60971147 1.78056674 83.94147482 3.44899041 84.2275238 5.12442017 C82.40513718 6.94680679 79.87996298 6.24439713 77.45504761 6.24884033 C76.62642715 6.24524506 75.7978067 6.24164978 74.94407654 6.23794556 C73.64175583 6.2381646 73.64175583 6.2381646 72.31312561 6.23838806 C69.42909794 6.23768862 66.54513401 6.22989479 63.66111755 6.22207642 C61.66714513 6.22021235 59.67317226 6.21878839 57.67919922 6.2177887 C52.42006678 6.21396264 47.16096178 6.20413162 41.90184021 6.19308472 C36.53970206 6.18287247 31.17755949 6.17829148 25.81541443 6.17324829 C15.28610547 6.16250943 4.75681692 6.14543196 -5.7724762 6.12442017 C-6.15466387 4.46827359 -6.48642721 2.79984992 -6.7724762 1.12442017 C-4.95008957 -0.69796646 -2.42491537 0.0044432 0 0 Z " fill="#D5C2B9" transform="translate(111.77247619628906,190.87557983398438)"/>
<path d="M0 0 C29.37 0 58.74 0 89 0 C89.495 2.475 89.495 2.475 90 5 C88.19326555 6.80673445 85.71839715 6.12635012 83.3132019 6.13552856 C82.49707428 6.13350433 81.68094666 6.1314801 80.84008789 6.12939453 C79.55721642 6.13202301 79.55721642 6.13202301 78.24842834 6.13470459 C75.40648399 6.13912466 72.5646013 6.13618432 69.72265625 6.1328125 C67.75589486 6.13348556 65.78913354 6.1344556 63.82237244 6.13571167 C59.69382945 6.1371889 55.56530806 6.1350335 51.43676758 6.13037109 C46.13575297 6.12467753 40.83478903 6.12795029 35.53377628 6.13394356 C31.47012447 6.13755167 27.40648473 6.13640936 23.34283257 6.13381577 C21.38793367 6.133147 19.43303369 6.13397318 17.47813606 6.13629532 C14.7484966 6.13882551 12.01893992 6.13497585 9.28930664 6.12939453 C8.47520325 6.13141876 7.66109985 6.13344299 6.82232666 6.13552856 C1.22852652 6.11426326 1.22852652 6.11426326 -1 5 C-0.67 3.35 -0.34 1.7 0 0 Z " fill="#D5C2B9" transform="translate(106,258)"/>
<path d="M0 0 C0.95003906 0.13664063 1.90007812 0.27328125 2.87890625 0.4140625 C6.45540301 0.91039266 8.97637423 1.02145619 12.44140625 0.0390625 C15.53740191 0.90981128 16.60300874 2.23208769 18.69140625 4.7265625 C20.44140625 8.0390625 20.44140625 8.0390625 20.44140625 15.0390625 C10.54140625 15.0390625 0.64140625 15.0390625 -9.55859375 15.0390625 C-9.55859375 8.79678822 -9.17501724 7.68874984 -5.55859375 3.0390625 C-5.130625 2.47832031 -4.70265625 1.91757813 -4.26171875 1.33984375 C-2.55859375 0.0390625 -2.55859375 0.0390625 0 0 Z " fill="#FEFDFD" transform="translate(75.55859375,158.9609375)"/>
<path d="M0 0 C1.34386088 0.28797019 2.6757713 0.63215869 4 1 C8.64327651 1.22528688 8.64327651 1.22528688 13.125 0.25 C15 0 15 0 17.625 1.6875 C21.07042254 5.04225352 21.07042254 5.04225352 22 8 C22 10.31 22 12.62 22 15 C12.43 15 2.86 15 -7 15 C-7 6.91428571 -7 6.91428571 -3 2 C-2.01 1.34 -1.02 0.68 0 0 Z " fill="#FEFEFD" transform="translate(121,159)"/>
<path d="M0 0 C1.08667969 -0.01160156 1.08667969 -0.01160156 2.1953125 -0.0234375 C5.99388493 -0.00942063 7.76837084 0.09558056 11 2.25 C11.80078125 4.78125 11.80078125 4.78125 12.3125 7.75 C12.49425781 8.7296875 12.67601563 9.709375 12.86328125 10.71875 C12.90839844 11.5540625 12.95351562 12.389375 13 13.25 C11 15.25 11 15.25 8.78515625 15.49291992 C7.88667969 15.48881104 6.98820312 15.48470215 6.0625 15.48046875 C4.59683594 15.47756836 4.59683594 15.47756836 3.1015625 15.47460938 C2.07804687 15.46236328 1.05453125 15.45011719 0 15.4375 C-1.02351563 15.43685547 -2.04703125 15.43621094 -3.1015625 15.43554688 C-10.71935497 15.39032251 -10.71935497 15.39032251 -13 14.25 C-12.7451971 12.28951648 -12.47063056 10.33159327 -12.1875 8.375 C-12.03667969 7.28445312 -11.88585937 6.19390625 -11.73046875 5.0703125 C-10.17878575 -0.92067749 -5.15645492 -0.05505112 0 0 Z " fill="#FEFDFD" transform="translate(105,141.75)"/>
<path d="M0 0 C2.125 0.9375 2.125 0.9375 4 2 C3.21012563 8.21318416 -0.4480981 11.07497515 -4.75 15.3125 C-5.46671875 16.05306641 -6.1834375 16.79363281 -6.921875 17.55664062 C-7.623125 18.25595703 -8.324375 18.95527344 -9.046875 19.67578125 C-9.68463867 20.31427002 -10.32240234 20.95275879 -10.97949219 21.6105957 C-13.52415054 23.36043266 -14.96983634 23.38734202 -18 23 C-20.2734375 21.42578125 -20.2734375 21.42578125 -22.375 19.3125 C-23.08398438 18.62800781 -23.79296875 17.94351562 -24.5234375 17.23828125 C-26 15 -26 15 -25.7265625 12.23046875 C-25.48679687 11.49441406 -25.24703125 10.75835937 -25 10 C-21.21472479 10.51152368 -19.55891312 11.20845842 -17 14 C-16.01 14.33 -15.02 14.66 -14 15 C-13.773125 14.44699219 -13.54625 13.89398438 -13.3125 13.32421875 C-11.61628183 10.32049907 -9.4561363 8.22936668 -7 5.8125 C-6.113125 4.93207031 -5.22625 4.05164063 -4.3125 3.14453125 C-2 1 -2 1 0 0 Z " fill="#D7C6BD" transform="translate(94,257)"/>
<path d="M0 0 C0.73120117 2.22119141 0.73120117 2.22119141 1 5 C-0.4753418 7.23583984 -0.4753418 7.23583984 -2.69921875 9.4609375 C-3.49650391 10.26144531 -4.29378906 11.06195313 -5.11523438 11.88671875 C-5.96408203 12.70785156 -6.81292969 13.52898437 -7.6875 14.375 C-8.51701172 15.21933594 -9.34652344 16.06367188 -10.20117188 16.93359375 C-14.85817859 21.52711281 -14.85817859 21.52711281 -17 23 C-20.77913363 22.70939706 -22.66775469 20.79356531 -25.3125 18.1875 C-26.03050781 17.50042969 -26.74851562 16.81335938 -27.48828125 16.10546875 C-29 14 -29 14 -28.73046875 11.73828125 C-28 10 -28 10 -26.375 9.1875 C-24 9 -24 9 -22.45556641 10.07543945 C-20.9703776 11.3836263 -19.4851888 12.69181315 -18 14 C-17.5968457 13.57589844 -17.19369141 13.15179688 -16.77832031 12.71484375 C-14.94609124 10.79947505 -13.09840891 8.8997536 -11.25 7 C-10.61578125 6.33226562 -9.9815625 5.66453125 -9.328125 4.9765625 C-8.709375 4.34492188 -8.090625 3.71328125 -7.453125 3.0625 C-6.88754883 2.47597656 -6.32197266 1.88945312 -5.73925781 1.28515625 C-4 0 -4 0 0 0 Z " fill="#D6C4BB" transform="translate(97,224)"/>
<path d="M0 0 C0.69996094 0.28617188 1.39992188 0.57234375 2.12109375 0.8671875 C1.33121938 7.08037166 -2.32700435 9.94216265 -6.62890625 14.1796875 C-7.345625 14.92025391 -8.06234375 15.66082031 -8.80078125 16.42382812 C-9.50203125 17.12314453 -10.20328125 17.82246094 -10.92578125 18.54296875 C-11.56354492 19.18145752 -12.20130859 19.81994629 -12.85839844 20.4777832 C-15.40342969 22.22787659 -16.84833472 22.257362 -19.87890625 21.8671875 C-22.15234375 20.2578125 -22.15234375 20.2578125 -24.25390625 18.1171875 C-24.96289062 17.42109375 -25.671875 16.725 -26.40234375 16.0078125 C-27.87890625 13.8671875 -27.87890625 13.8671875 -27.60546875 11.6015625 C-26.87890625 9.8671875 -26.87890625 9.8671875 -25.12890625 9.1171875 C-24.01515625 8.9934375 -24.01515625 8.9934375 -22.87890625 8.8671875 C-21.54557292 10.20052083 -20.21223958 11.53385417 -18.87890625 12.8671875 C-13.62055234 12.32006029 -10.69790681 7.71742209 -7.38867188 3.99609375 C-3.48479707 -0.16076404 -3.48479707 -0.16076404 0 0 Z " fill="#D6C4BB" transform="translate(95.87890625,191.1328125)"/>
<path d="M0 0 C1.56047445 0.00015913 3.12095416 0.00585397 4.68139648 0.01586914 C5.91115456 0.01799156 5.91115456 0.01799156 7.16575623 0.02015686 C9.79470406 0.0257725 12.42356797 0.0383276 15.05249023 0.05102539 C16.8304838 0.05603838 18.60847869 0.06060163 20.38647461 0.06469727 C24.75434569 0.07574701 29.12215371 0.09302208 33.48999023 0.11352539 C33.87217791 1.76967196 34.20394125 3.43809563 34.48999023 5.11352539 C33.48999023 6.11352539 33.48999023 6.11352539 29.97998047 6.22705078 C28.41950602 6.22689165 26.85902631 6.22119681 25.29858398 6.21118164 C24.47874527 6.20976669 23.65890656 6.20835175 22.81422424 6.20689392 C20.18527641 6.20127828 17.5564125 6.18872318 14.92749023 6.17602539 C13.14949667 6.1710124 11.37150177 6.16644915 9.59350586 6.16235352 C5.22563478 6.15130378 0.85782676 6.1340287 -3.51000977 6.11352539 C-3.89219744 4.45737882 -4.22396078 2.78895515 -4.51000977 1.11352539 C-3.51000977 0.11352539 -3.51000977 0.11352539 0 0 Z " fill="#D5C2B9" transform="translate(109.510009765625,271.886474609375)"/>
<path d="M0 0 C12.21 0 24.42 0 37 0 C37.495 2.475 37.495 2.475 38 5 C35.98025267 7.01974733 31.86915483 6.16399439 29.09765625 6.16796875 C28.30475693 6.17129715 27.5118576 6.17462555 26.69493103 6.17805481 C25.01448142 6.18312726 23.33402171 6.18546304 21.65356445 6.18530273 C19.07681741 6.18748786 16.50049924 6.20563609 13.92382812 6.22460938 C12.2942723 6.22754345 10.66471444 6.22952815 9.03515625 6.23046875 C7.87416161 6.24124702 7.87416161 6.24124702 6.68971252 6.25224304 C1.22882253 6.22882253 1.22882253 6.22882253 -1 4 C-0.67 2.68 -0.34 1.36 0 0 Z " fill="#D6C3BB" transform="translate(106,239)"/>
<path d="M0 0 C1.51289503 0.00031716 3.0258126 0.01164445 4.53857422 0.03173828 C5.33480194 0.03456818 6.13102966 0.03739807 6.9513855 0.04031372 C9.49882935 0.05152438 12.04592383 0.07663016 14.59326172 0.10205078 C16.31851706 0.11207945 18.04377791 0.1212055 19.76904297 0.12939453 C24.00225086 0.15146656 28.23519702 0.18600212 32.46826172 0.22705078 C32.85044939 1.88319735 33.18221274 3.55162102 33.46826172 5.22705078 C32.46826172 6.22705078 32.46826172 6.22705078 28.95825195 6.34057617 C27.3977775 6.34041704 25.83729779 6.33472221 24.27685547 6.32470703 C23.45701675 6.32329208 22.63717804 6.32187714 21.79249573 6.32041931 C19.1635479 6.31480367 16.53468398 6.30224857 13.90576172 6.28955078 C12.12776815 6.28453779 10.34977326 6.27997454 8.57177734 6.27587891 C4.20390627 6.26482917 -0.16390176 6.24755409 -4.53173828 6.22705078 C-5.15673828 4.35205078 -5.15673828 4.35205078 -5.53173828 2.22705078 C-3.53173828 0.22705078 -3.53173828 0.22705078 0 0 Z " fill="#D6C3BA" transform="translate(110.53173828125,204.77294921875)"/>
<path d="M0 0 C3.4375 0.5 3.4375 0.5 5.375 1.5 C7.09636567 4.74021772 6.96710415 7.91957756 6.4375 11.5 C5.375 13.5 5.375 13.5 3.4375 14.5 C-2.50189394 15.13636364 -2.50189394 15.13636364 -5.4375 13.375 C-7.07290601 10.64932332 -7.498818 8.68409977 -7.5625 5.5 C-5.49563395 1.53850674 -4.46566401 0.62675986 0 0 Z " fill="#FDFCFB" transform="translate(128.5625,140.5)"/>
<path d="M0 0 C2.375 1.625 2.375 1.625 4 4 C4.61195145 7.6717087 4.48706506 9.28813568 2.375 12.375 C-0.71186432 14.48706506 -2.3282913 14.61195145 -6 14 C-8.375 12.375 -8.375 12.375 -10 10 C-10.61195145 6.3282913 -10.48706506 4.71186432 -8.375 1.625 C-5.28813568 -0.48706506 -3.6717087 -0.61195145 0 0 Z " fill="#FDFCFC" transform="translate(84,141)"/>
<path d="M0 0 C2.375 1.625 2.375 1.625 4 4 C4.61195145 7.6717087 4.48706506 9.28813568 2.375 12.375 C-0.71186432 14.48706506 -2.3282913 14.61195145 -6 14 C-8.375 12.375 -8.375 12.375 -10 10 C-10.61195145 6.3282913 -10.48706506 4.71186432 -8.375 1.625 C-5.28813568 -0.48706506 -3.6717087 -0.61195145 0 0 Z " fill="#FDFCFC" transform="translate(108,124)"/>
</svg>
