<svg width="25" height="12" viewBox="0 0 25 12" fill="none" xmlns="http://www.w3.org/2000/svg">
<path opacity="0.35" d="M2.66699 0.833252H19.333C20.5296 0.833252 21.5 1.80363 21.5 3.00024V9.00024C21.4998 10.1967 20.5295 11.1663 19.333 11.1663H2.66699C1.47048 11.1663 0.500176 10.1967 0.5 9.00024V3.00024L0.510742 2.77856C0.621596 1.6859 1.54509 0.833252 2.66699 0.833252Z" stroke="#4B3425"/>
<path opacity="0.4" d="M23 4V8C23.8047 7.66122 24.328 6.87313 24.328 6C24.328 5.12687 23.8047 4.33878 23 4Z" fill="#4B3425"/>
<path d="M2 3.66659C2 2.93021 2.59695 2.33325 3.33333 2.33325H18.6667C19.403 2.33325 20 2.93021 20 3.66659V8.33325C20 9.06963 19.403 9.66659 18.6667 9.66659H3.33333C2.59695 9.66659 2 9.06963 2 8.33325V3.66659Z" fill="#4B3425"/>
</svg>
