<?xml version="1.0" encoding="UTF-8"?>
<svg version="1.1" xmlns="http://www.w3.org/2000/svg" width="612" height="611">
<path d="M0 0 C201.96 0 403.92 0 612 0 C612 201.63 612 403.26 612 611 C410.04 611 208.08 611 0 611 C0 409.37 0 207.74 0 0 Z " fill="#FEFEFE" transform="translate(0,0)"/>
<path d="M0 0 C51.81 0 103.62 0 157 0 C157 13.53 157 27.06 157 41 C154.03 43.64 151.06 46.28 148 49 C146.03986701 52.4198065 144.44486951 55.40603887 143 59 C142.566875 60.03125 142.13375 61.0625 141.6875 62.125 C139.45284055 71.4699395 142.02975437 80.23600977 146.3984375 88.5390625 C151.19099298 95.90323312 158.4078942 101.14162732 167 103 C177.71133377 104.26538036 185.82238158 103.19748708 195 97 C201.37942137 91.86872629 206.60200874 84.10834933 208 76 C208.93622764 64.98655851 206.71347707 56.70937566 200 48 C200 47.34 200 46.68 200 46 C199.13375 45.5978125 199.13375 45.5978125 198.25 45.1875 C196 44 196 44 192 41 C192 27.47 192 13.94 192 0 C243.81 0 295.62 0 349 0 C349 13.53 349 27.06 349 41 C346.03 43.64 343.06 46.28 340 49 C338.04292383 51.6685363 338.04292383 51.6685363 337 54.25 C336.62875 55.05953125 336.2575 55.8690625 335.875 56.703125 C332.8418594 64.66511908 332.59306785 74.27442636 335.0234375 82.4375 C339.12523831 91.32095811 345.13381813 97.66549944 354.1875 101.5 C364.4094378 104.68364823 373.69652215 103.83540475 383.37890625 99.484375 C391.20982068 95.04957994 396.6893478 87.83313207 399.52734375 79.28515625 C401.63828485 69.07936662 399.93542278 59.56640767 394.609375 50.6796875 C391.38179597 46.07614057 388.99113349 44.32742233 384 41 C384 27.47 384 13.94 384 0 C412.71 0 441.42 0 471 0 C471 46.53 471 93.06 471 141 C275.64 141 80.28 141 -121 141 C-121 94.8 -121 48.6 -121 1 C-92.62 1 -64.24 1 -35 1 C-35 14.2 -35 27.4 -35 41 C-37.97 43.64 -40.94 46.28 -44 49 C-45.9350979 52.41730054 -47.5467591 55.4223427 -49 59 C-49.36609375 59.82757813 -49.7321875 60.65515625 -50.109375 61.5078125 C-52.75730457 68.91736981 -50.87954024 76.92887093 -48 84 C-44.06835684 92.23560101 -37.47280528 98.53385239 -29 102 C-20.39186852 104.74433549 -10.23023332 104.16425603 -2.25 100.125 C-0.48694729 99.10558125 1.26497933 98.0664299 3 97 C3.74765625 96.64164062 4.4953125 96.28328125 5.265625 95.9140625 C7.60822062 94.67945129 7.93139443 93.40436254 9 91 C9.639375 90.113125 10.27875 89.22625 10.9375 88.3125 C15.5077217 80.97244697 17.07747907 73.60799212 16 65 C14.34671822 58.63274557 11.84302459 53.30072357 8 48 C7.67 47.01 7.34 46.02 7 45 C5.35448038 44.28272222 3.68577711 43.61674772 2 43 C1.34 42.34 0.68 41.68 0 41 C0 27.47 0 13.94 0 0 Z " fill="#FEFEFE" transform="translate(131,12)"/>
<path d="M0 0 C201.96 0 403.92 0 612 0 C612 201.63 612 403.26 612 611 C410.04 611 208.08 611 0 611 C0 409.37 0 207.74 0 0 Z M131 12 C131 25.53 131 39.06 131 53 C135.19310223 57.20823168 135.19310223 57.20823168 138 57 C138.26683594 57.53625 138.53367188 58.0725 138.80859375 58.625 C139.68852062 60.37908372 140.57799178 62.12838714 141.47265625 63.875 C141.99730469 64.90625 142.52195313 65.9375 143.0625 67 C143.58972656 68.03125 144.11695313 69.0625 144.66015625 70.125 C147.68816819 76.62242504 148.16184706 83.79206688 146.24609375 90.73046875 C144.36721982 95.6008047 142.00438697 99.75241842 139 104 C138.67 104.99 138.34 105.98 138 107 C136.265625 107.9921875 136.265625 107.9921875 134 109 C133.19046875 109.49757813 132.3809375 109.99515625 131.546875 110.5078125 C122.3534024 115.82359135 113.81383798 116.49239452 103.484375 114.51953125 C95.36499814 111.88233207 87.77380123 105.28521587 83.84375 97.796875 C82.06198547 93.95335437 80.41406804 90.24419745 80 86 C79.88785156 84.95972656 79.88785156 84.95972656 79.7734375 83.8984375 C79.21436803 74.62965423 82.58102788 66.46315152 88.5625 59.4375 C90.92676052 56.89851353 93.167576 55.124318 96 53 C96 39.8 96 26.6 96 13 C67.62 13 39.24 13 10 13 C10 59.2 10 105.4 10 153 C205.36 153 400.72 153 602 153 C602 106.47 602 59.94 602 12 C573.29 12 544.58 12 515 12 C515 25.53 515 39.06 515 53 C518.96 55.97 518.96 55.97 523 59 C529.39191986 66.98373002 531.54570633 75.47870735 531.3828125 85.578125 C530.47946933 93.65290683 526.94998649 101.44667927 521 107 C511.20729749 113.80231349 502.93176092 116.00941144 491 115 C481.53258108 113.07731081 474.71583161 108.15917115 469.109375 100.375 C463.82451993 91.28702493 463.55097259 81.90618327 465.66796875 71.81640625 C468.29147839 63.55636063 473.1597825 58.13016313 480 53 C480 39.47 480 25.94 480 12 C428.19 12 376.38 12 323 12 C323 25.53 323 39.06 323 53 C327.95436548 58.2133948 327.95436548 58.2133948 331 58 C331.41572266 58.83724609 331.41572266 58.83724609 331.83984375 59.69140625 C332.63214452 61.26800475 333.43745523 62.83811517 334.25390625 64.40234375 C334.68574219 65.23894531 335.11757813 66.07554688 335.5625 66.9375 C335.99691406 67.77152344 336.43132812 68.60554688 336.87890625 69.46484375 C340.26986446 77.13289908 339.98605381 85.92338682 337.3125 93.75 C333.17077879 103.85982643 327.43324239 108.79479876 317.69921875 113.64453125 C310.07655501 116.43762979 300.32786222 116.22371072 292.625 113.5625 C283.67023122 109.24367391 277.4608401 102.70970026 273.828125 93.5 C272.87460388 90.62144569 272.20215385 88.03230777 272 85 C271.87625 83.824375 271.7525 82.64875 271.625 81.4375 C271.77981518 72.47542096 276.21414995 63.97440952 282.25390625 57.5859375 C284.06792856 55.93830203 286.03952992 54.47035256 288 53 C288 39.47 288 25.94 288 12 C236.19 12 184.38 12 131 12 Z M9 162 C9 308.19 9 454.38 9 605 C204.69 605 400.38 605 602 605 C602 458.81 602 312.62 602 162 C406.31 162 210.62 162 9 162 Z " fill="#D5C2B9" transform="translate(0,0)"/>
<path d="M0 0 C201.96 0 403.92 0 612 0 C612 201.63 612 403.26 612 611 C611.34 611 610.68 611 610 611 C610 410.36 610 209.72 610 3 C575.68 3 541.36 3 506 3 C505.979375 12.11625 505.95875 21.2325 505.9375 30.625 C505.89290649 34.92845459 505.89290649 34.92845459 505.84741211 39.31884766 C505.86217749 41.60061163 505.88026382 43.88235758 505.90234375 46.1640625 C505.86566589 47.93172974 505.86566589 47.93172974 505.82824707 49.73510742 C505.79236987 55.9602043 505.79236987 55.9602043 508.97146606 61.00018311 C511.32708038 62.60425775 511.32708038 62.60425775 513.77687073 63.78475952 C517.70271648 65.93076458 520.19112514 69.56815689 521.60546875 73.8203125 C522.89628891 80.95177439 523.20478268 88.85428549 519.39453125 95.22265625 C514.5213606 101.43356002 508.45123037 106.25129706 500.46875 107.34765625 C492.49878927 107.78421309 486.19572486 105.64691697 480.1484375 100.390625 C474.30816256 94.11880265 472.31936273 87.23293937 472.58984375 78.7421875 C473.65767324 71.60298464 477.78271942 66.62647918 483.25390625 62.19140625 C485 61 485 61 489 59 C489.33 40.52 489.66 22.04 490 3 C431.92 3 373.84 3 314 3 C314.33 21.48 314.66 39.96 315 59 C316.98 60.32 318.96 61.64 321 63 C326.2962581 67.5396498 329.47333212 72.14264543 330.421875 79.08984375 C330.783861 87.70712149 329.08020303 93.28809041 323.4609375 99.77734375 C318.12963258 104.94441416 311.30136085 106.93949149 304 107.5 C298.24039729 107.27712332 292.51372349 104.16322609 288.20703125 100.45703125 C287 99 287 99 287 97 C286.34 97 285.68 97 285 97 C280.78468761 89.54792988 279.33909173 82.1038379 281.625 73.703125 C284.58633241 66.88148427 290.43482412 62.18513611 297 59 C296.99777939 58.44591461 296.99555878 57.89182922 296.99327087 57.32095337 C296.97101097 51.51264089 296.95600769 45.70434069 296.94506836 39.89599609 C296.9400642 37.73323066 296.93325883 35.57046857 296.92456055 33.40771484 C296.91232238 30.2848223 296.90673236 27.16197479 296.90234375 24.0390625 C296.89718246 23.08448151 296.89202118 22.12990051 296.88670349 21.14639282 C296.88659019 19.7660939 296.88659019 19.7660939 296.88647461 18.35791016 C296.884254 17.56293121 296.88203339 16.76795227 296.87974548 15.94888306 C297.05627336 11.62006382 297.56890838 7.31091615 298 3 C239.92 3 181.84 3 122 3 C122 21.81 122 40.62 122 60 C123.65 60.33 125.3 60.66 127 61 C132.81333371 65.03374176 136.61127086 69.88763022 138 77 C138.83496394 85.24228685 138.17824111 91.37605706 133 98 C127.49368863 104.37278676 120.28560741 106.86393317 112 107.5 C105.29584171 107.18786308 99.04697481 103.53918987 94.5625 98.6875 C89.32990715 91.79470772 87.87559365 84.57047509 89 76 C91.05428498 69.48371968 95.04682719 64.99167469 100.6875 61.1875 C103 60 103 60 105 60 C104.99777939 59.43338654 104.99555878 58.86677307 104.99327087 58.2829895 C104.97101601 52.34491613 104.95600974 46.40685476 104.94506836 40.46875 C104.9400633 38.25748208 104.93325724 36.04621742 104.92456055 33.83496094 C104.91232641 30.64256988 104.90673326 27.45022286 104.90234375 24.2578125 C104.89718246 23.28135773 104.89202118 22.30490295 104.88670349 21.29885864 C104.88662796 20.35863861 104.88655243 19.41841858 104.88647461 18.44970703 C104.884254 17.6369632 104.88203339 16.82421936 104.87974548 15.98684692 C105.05454047 11.64533946 105.56765387 7.32346125 106 3 C71.02 3 36.04 3 0 3 C0 2.01 0 1.02 0 0 Z " fill="#F7F8F9" transform="translate(0,0)"/>
<path d="M0 0 C26.07 0 52.14 0 79 0 C79 26.07 79 52.14 79 79 C52.93 79 26.86 79 0 79 C0 52.93 0 26.86 0 0 Z " fill="#FDFDFD" transform="translate(327,228)"/>
<path d="M0 0 C19.8 0 39.6 0 60 0 C60 19.8 60 39.6 60 60 C40.2 60 20.4 60 0 60 C0 40.2 0 20.4 0 0 Z " fill="#FEFEFE" transform="translate(93,468)"/>
<path d="M0 0 C19.8 0 39.6 0 60 0 C60 19.8 60 39.6 60 60 C40.2 60 20.4 60 0 60 C0 40.2 0 20.4 0 0 Z " fill="#FFFFFF" transform="translate(458,353)"/>
<path d="M0 0 C19.8 0 39.6 0 60 0 C60 19.8 60 39.6 60 60 C40.2 60 20.4 60 0 60 C0 40.2 0 20.4 0 0 Z " fill="#FEFEFE" transform="translate(336,353)"/>
<path d="M0 0 C19.8 0 39.6 0 60 0 C60 19.8 60 39.6 60 60 C40.2 60 20.4 60 0 60 C0 40.2 0 20.4 0 0 Z " fill="#FEFEFE" transform="translate(215,353)"/>
<path d="M0 0 C19.8 0 39.6 0 60 0 C60 19.8 60 39.6 60 60 C40.2 60 20.4 60 0 60 C0 40.2 0 20.4 0 0 Z " fill="#FFFFFF" transform="translate(93,353)"/>
<path d="M0 0 C19.8 0 39.6 0 60 0 C60 19.8 60 39.6 60 60 C40.2 60 20.4 60 0 60 C0 40.2 0 20.4 0 0 Z " fill="#FEFEFE" transform="translate(458,238)"/>
<path d="M0 0 C19.8 0 39.6 0 60 0 C60 19.8 60 39.6 60 60 C40.2 60 20.4 60 0 60 C0 40.2 0 20.4 0 0 Z " fill="#FEFEFE" transform="translate(215,238)"/>
<path d="M0 0 C26.4 0 52.8 0 80 0 C80 26.4 80 52.8 80 80 C53.6 80 27.2 80 0 80 C0 53.6 0 27.2 0 0 Z M10 10 C10 29.8 10 49.6 10 70 C29.8 70 49.6 70 70 70 C70 50.2 70 30.4 70 10 C50.2 10 30.4 10 10 10 Z " fill="#D6C4BC" transform="translate(205,458)"/>
<path d="M0 0 C26.4 0 52.8 0 80 0 C80 26.4 80 52.8 80 80 C53.6 80 27.2 80 0 80 C0 53.6 0 27.2 0 0 Z M10 10 C10 29.8 10 49.6 10 70 C29.8 70 49.6 70 70 70 C70 50.2 70 30.4 70 10 C50.2 10 30.4 10 10 10 Z " fill="#D6C4BC" transform="translate(83,458)"/>
<path d="M0 0 C26.4 0 52.8 0 80 0 C80 26.4 80 52.8 80 80 C53.6 80 27.2 80 0 80 C0 53.6 0 27.2 0 0 Z M10 10 C10 29.8 10 49.6 10 70 C29.8 70 49.6 70 70 70 C70 50.2 70 30.4 70 10 C50.2 10 30.4 10 10 10 Z " fill="#D6C4BB" transform="translate(448,343)"/>
<path d="M0 0 C26.4 0 52.8 0 80 0 C80 26.4 80 52.8 80 80 C53.6 80 27.2 80 0 80 C0 53.6 0 27.2 0 0 Z M10 10 C10 29.8 10 49.6 10 70 C29.8 70 49.6 70 70 70 C70 50.2 70 30.4 70 10 C50.2 10 30.4 10 10 10 Z " fill="#D6C4BC" transform="translate(205,343)"/>
<path d="M0 0 C26.4 0 52.8 0 80 0 C80 26.4 80 52.8 80 80 C53.6 80 27.2 80 0 80 C0 53.6 0 27.2 0 0 Z M10 10 C10 29.8 10 49.6 10 70 C29.8 70 49.6 70 70 70 C70 50.2 70 30.4 70 10 C50.2 10 30.4 10 10 10 Z " fill="#D6C4BB" transform="translate(83,343)"/>
<path d="M0 0 C4.95 0 9.9 0 15 0 C15 18.48 15 36.96 15 56 C16.98 56.66 18.96 57.32 21 58 C26.76212206 61.76301849 29.89812752 66.43610163 32 73 C33.11117908 80.39292531 32.69873187 86.73394869 28.5390625 93.06640625 C22.86222484 100.19847386 16.83997626 102.83629894 7.93359375 104.3515625 C1.92948689 104.81248383 -3.0193782 102.14053417 -8 99 C-9.79296875 97.45703125 -9.79296875 97.45703125 -11 96 C-11 95.34 -11 94.68 -11 94 C-11.66 94 -12.32 94 -13 94 C-17.21531239 86.54792988 -18.66090827 79.1038379 -16.375 70.703125 C-13.41366759 63.88148427 -7.56517588 59.18513611 -1 56 C-1.00222061 55.44591461 -1.00444122 54.89182922 -1.00672913 54.32095337 C-1.02898903 48.51264089 -1.04399231 42.70434069 -1.05493164 36.89599609 C-1.0599358 34.73323066 -1.06674117 32.57046857 -1.07543945 30.40771484 C-1.08767762 27.2848223 -1.09326764 24.16197479 -1.09765625 21.0390625 C-1.10281754 20.08448151 -1.10797882 19.12990051 -1.11329651 18.14639282 C-1.11379869 12.02826348 -0.69664273 6.07935284 0 0 Z " fill="#FEFEFE" transform="translate(298,3)"/>
<path d="M0 0 C4.95 0 9.9 0 15 0 C15 18.48 15 36.96 15 56 C16.98 56.66 18.96 57.32 21 58 C25.8051551 61.1816658 29.79485007 65.15377682 31.55078125 70.7578125 C32.97327707 77.85792208 33.19423826 85.8719092 29.39453125 92.22265625 C24.5213606 98.43356002 18.45123037 103.25129706 10.46875 104.34765625 C2.49878927 104.78421309 -3.80427514 102.64691697 -9.8515625 97.390625 C-15.69183744 91.11880265 -17.68063727 84.23293937 -17.41015625 75.7421875 C-16.34232676 68.60298464 -12.21728058 63.62647918 -6.74609375 59.19140625 C-5 58 -5 58 -1 56 C-0.67 37.52 -0.34 19.04 0 0 Z " fill="#FEFEFE" transform="translate(490,3)"/>
<path d="M0 0 C26.07 0 52.14 0 79 0 C79 26.07 79 52.14 79 79 C52.93 79 26.86 79 0 79 C0 52.93 0 26.86 0 0 Z M9 9 C9 28.8 9 48.6 9 69 C28.8 69 48.6 69 69 69 C69 49.2 69 29.4 69 9 C49.2 9 29.4 9 9 9 Z " fill="#D5C3BA" transform="translate(327,459)"/>
<path d="M0 0 C26.07 0 52.14 0 79 0 C79 26.07 79 52.14 79 79 C52.93 79 26.86 79 0 79 C0 52.93 0 26.86 0 0 Z M9 10 C9 29.8 9 49.6 9 70 C28.8 70 48.6 70 69 70 C69 50.2 69 30.4 69 10 C49.2 10 29.4 10 9 10 Z " fill="#D5C3BA" transform="translate(327,343)"/>
<path d="M0 0 C26.07 0 52.14 0 79 0 C79 26.07 79 52.14 79 79 C52.93 79 26.86 79 0 79 C0 52.93 0 26.86 0 0 Z M9 10 C9 29.8 9 49.6 9 70 C28.8 70 48.6 70 69 70 C69 50.2 69 30.4 69 10 C49.2 10 29.4 10 9 10 Z " fill="#D5C3BA" transform="translate(449,228)"/>
<path d="M0 0 C26.07 0 52.14 0 79 0 C79 26.07 79 52.14 79 79 C52.93 79 26.86 79 0 79 C0 52.93 0 26.86 0 0 Z M10 10 C10 29.8 10 49.6 10 70 C29.8 70 49.6 70 70 70 C70 50.2 70 30.4 70 10 C50.2 10 30.4 10 10 10 Z " fill="#D5C3BA" transform="translate(205,228)"/>
<path d="M0 0 C26.07 0 52.14 0 79 0 C79 26.07 79 52.14 79 79 C52.93 79 26.86 79 0 79 C0 52.93 0 26.86 0 0 Z M9 9 C9 29.13 9 49.26 9 70 C29.13 70 49.26 70 70 70 C70 49.87 70 29.74 70 9 C49.87 9 29.74 9 9 9 Z " fill="#D5C2B9" transform="translate(327,228)"/>
</svg>
