<svg width="14" height="14" viewBox="0 0 14 14" fill="none" xmlns="http://www.w3.org/2000/svg">
<rect x="1" y="1" width="12" height="12" rx="6" fill="#FE814B"/>
<rect x="1" y="1" width="12" height="12" rx="6" stroke="white" stroke-width="2"/>
<path d="M6.99787 10C6.62664 10 6.28941 9.91736 5.98618 9.75207C5.6858 9.58678 5.44633 9.36501 5.2678 9.08678C5.08927 8.80854 5 8.49862 5 8.15702C5 7.90634 5.05384 7.66804 5.16153 7.44215C5.26922 7.21625 5.41658 7.01928 5.60361 6.85124C5.45909 6.69972 5.3429 6.52893 5.25505 6.33884C5.1672 6.14601 5.12327 5.94215 5.12327 5.72727C5.12327 5.40771 5.20829 5.11708 5.37832 4.85537C5.54835 4.59366 5.77365 4.38568 6.0542 4.2314C6.33758 4.07713 6.65214 4 6.99787 4C7.34077 4 7.65391 4.07713 7.9373 4.2314C8.22069 4.38568 8.4474 4.59366 8.61743 4.85537C8.78746 5.11708 8.87248 5.40771 8.87248 5.72727C8.87248 5.94215 8.82855 6.14601 8.7407 6.33884C8.65569 6.52893 8.53808 6.69972 8.38789 6.85124C8.58342 7.01928 8.73362 7.21625 8.83847 7.44215C8.94616 7.66804 9 7.90634 9 8.15702C9 8.49587 8.90932 8.80579 8.72795 9.08678C8.54942 9.36501 8.30854 9.58678 8.00531 9.75207C7.70492 9.91736 7.36911 10 6.99787 10ZM6.99787 8.8595C7.13957 8.8595 7.26851 8.82782 7.3847 8.76446C7.50089 8.7011 7.59299 8.61708 7.661 8.5124C7.72901 8.40496 7.76302 8.2865 7.76302 8.15702C7.76302 8.02479 7.72901 7.90634 7.661 7.80165C7.59299 7.69421 7.50089 7.60882 7.3847 7.54545C7.26851 7.48209 7.13957 7.45041 6.99787 7.45041C6.85618 7.45041 6.72724 7.48209 6.61105 7.54545C6.49486 7.60882 6.40135 7.69421 6.3305 7.80165C6.26249 7.90634 6.22848 8.02479 6.22848 8.15702C6.22848 8.2865 6.26249 8.40496 6.3305 8.5124C6.40135 8.61708 6.49486 8.7011 6.61105 8.76446C6.72724 8.82782 6.85618 8.8595 6.99787 8.8595ZM6.99787 6.30992C7.11406 6.30992 7.22033 6.28375 7.31668 6.23141C7.41304 6.17906 7.48955 6.10882 7.54623 6.02066C7.60574 5.92975 7.63549 5.83196 7.63549 5.72727C7.63549 5.61983 7.60574 5.52204 7.54623 5.43388C7.48955 5.34573 7.41304 5.27548 7.31668 5.22314C7.22033 5.16804 7.11406 5.1405 6.99787 5.1405C6.87885 5.1405 6.77117 5.16804 6.67481 5.22314C6.57846 5.27548 6.50195 5.34573 6.44527 5.43388C6.38859 5.52204 6.36026 5.61983 6.36026 5.72727C6.36026 5.83196 6.38859 5.92975 6.44527 6.02066C6.50195 6.10882 6.57846 6.17906 6.67481 6.23141C6.77117 6.28375 6.87885 6.30992 6.99787 6.30992Z" fill="white"/>
</svg>
