<svg width="64" height="64" viewBox="0 0 64 64" fill="none" xmlns="http://www.w3.org/2000/svg">
<path d="M0 31.75H1.14112C7.97565 31.75 13.5161 26.2095 13.5161 19.375V13.0699C13.5161 9.71758 16.2337 7 19.586 7V7C22.9383 7 25.6559 9.71758 25.6559 13.0699V25.1479C25.6559 28.7941 28.6118 31.75 32.2581 31.75V31.75C35.9043 31.75 38.8602 34.7059 38.8602 38.3521V52.8363C38.8602 56.3073 41.6741 59.1212 45.1452 59.1212V59.1212C48.6162 59.1212 51.4301 56.3073 51.4301 52.8363V44.3199C51.4301 37.3777 57.0578 31.75 64 31.75V31.75" stroke="#E5EAD7" stroke-width="4"/>
<path d="M0 31.75H1.14112C7.97565 31.75 13.5161 26.2095 13.5161 19.375V13.0699C13.5161 9.71758 16.2337 7 19.586 7V7C22.9383 7 25.6559 9.71758 25.6559 13.0699V25.1479C25.6559 28.7941 28.6118 31.75 32.2581 31.75V31.75C35.9043 31.75 38.8602 34.7059 38.8602 38.3521V49" stroke="#16572E" stroke-width="4"/>
</svg>
