<svg width="160" height="235" viewBox="0 0 160 235" fill="none" xmlns="http://www.w3.org/2000/svg">
<path fill-rule="evenodd" clip-rule="evenodd" d="M79.948 11.7124C85.072 11.7124 89.2222 15.8721 89.2222 21.0078V56.8418C89.2222 61.9775 85.072 66.1372 79.948 66.1372C74.8241 66.1372 70.6739 61.9775 70.6739 56.8418V21.0078C70.6507 15.8721 74.8241 11.7124 79.948 11.7124Z" fill="#6D4B36"/>
<path d="M80.2718 35.8339C90.1444 35.8339 98.1477 27.8122 98.1477 17.917C98.1477 8.02171 90.1444 0 80.2718 0C70.3993 0 62.396 8.02171 62.396 17.917C62.396 27.8122 70.3993 35.8339 80.2718 35.8339Z" fill="#926247"/>
<path d="M42.2095 169.32C49.8604 161.651 49.8604 149.218 42.2095 141.55C34.5586 133.881 22.154 133.881 14.5031 141.55C6.85219 149.218 6.85219 161.651 14.5031 169.32C22.154 176.988 34.5586 176.988 42.2095 169.32Z" fill="#6D4B36"/>
<path d="M22.511 204.825H22.5342C24.6209 204.802 26.3134 203.106 26.2902 201.014L25.9424 158.162C25.9192 156.071 24.2267 154.397 22.1632 154.397H22.14C20.0534 154.421 18.3608 156.117 18.384 158.209L18.7318 201.061C18.755 203.152 20.4475 204.825 22.511 204.825Z" fill="#926247"/>
<path fill-rule="evenodd" clip-rule="evenodd" d="M4.5427 214.678L5.4933 228.436C5.74833 232.223 9.04065 235.082 12.8198 234.826C12.9126 234.826 13.0285 234.803 13.1213 234.803C17.1787 234.338 20.2391 230.876 20.216 226.786L20.1232 213.911C20.1 211.123 22.2331 208.799 25.0153 208.567C27.7048 208.357 30.0465 210.356 30.2552 213.052C30.2552 213.075 30.2552 213.098 30.2552 213.121L31.1362 226.623C31.3913 230.713 34.9386 233.827 39.0192 233.548C39.112 233.548 39.2047 233.525 39.2974 233.525C43.5635 233.083 46.7167 229.342 46.4153 225.066L45.4879 211.82C44.6996 200.503 34.9154 191.951 23.601 192.741C23.601 192.741 23.601 192.741 23.5778 192.741C12.2866 193.508 3.7544 203.338 4.5427 214.678Z" fill="#AC836C"/>
<path fill-rule="evenodd" clip-rule="evenodd" d="M36.9774 43.4326H118.775C128.652 43.4326 136.651 51.45 136.651 61.3496V113.613C136.651 123.513 128.652 131.53 118.775 131.53H36.9774C27.1005 131.53 19.1016 123.513 19.1016 113.613V61.3496C19.1016 51.45 27.1005 43.4326 36.9774 43.4326Z" fill="#926247"/>
<path fill-rule="evenodd" clip-rule="evenodd" d="M40.1547 57.2134H83.8358C93.7127 57.2134 101.712 65.2307 101.712 75.1303V75.3859C101.712 85.2856 93.7127 93.3029 83.8358 93.3029H40.1547C30.2777 93.3029 22.2788 85.2856 22.2788 75.3859V75.1303C22.2788 65.254 30.2777 57.2134 40.1547 57.2134Z" fill="#AC836C"/>
<path d="M39.7376 80.5914C42.3754 80.5914 44.5138 78.4481 44.5138 75.8042C44.5138 73.1603 42.3754 71.0171 39.7376 71.0171C37.0998 71.0171 34.9614 73.1603 34.9614 75.8042C34.9614 78.4481 37.0998 80.5914 39.7376 80.5914Z" fill="#4B3425"/>
<path d="M79.9871 80.5914C82.6249 80.5914 84.7633 78.4481 84.7633 75.8042C84.7633 73.1603 82.6249 71.0171 79.9871 71.0171C77.3493 71.0171 75.2109 73.1603 75.2109 75.8042C75.2109 78.4481 77.3493 80.5914 79.9871 80.5914Z" fill="#4B3425"/>
<path d="M42.2412 103.249H84.763C85.8991 103.249 86.8265 102.32 86.8265 101.181C86.8265 100.042 85.8991 99.1128 84.763 99.1128H42.2412C41.1051 99.1128 40.1777 100.042 40.1777 101.181C40.1777 102.343 41.1051 103.249 42.2412 103.249Z" fill="#4B3425"/>
<path d="M134.589 110.151C135.284 110.151 135.934 109.802 136.328 109.175C136.931 108.199 136.652 106.921 135.679 106.317L126.752 100.693C126.358 100.437 126.103 99.9957 126.103 99.5309V77.2219C126.103 76.7339 126.358 76.2923 126.775 76.0367L135.632 70.7848C136.606 70.2038 136.931 68.9257 136.351 67.9496C135.771 66.9736 134.496 66.6483 133.522 67.2293L124.666 72.4812C122.996 73.4804 121.976 75.2931 121.976 77.2219V99.5309C121.976 101.436 122.927 103.179 124.55 104.202L133.476 109.826C133.847 110.058 134.218 110.151 134.589 110.151Z" fill="#926247"/>
<path fill-rule="evenodd" clip-rule="evenodd" d="M52.5358 137.897H105.491C114.603 137.897 121.999 145.311 121.999 154.443V200.618C121.999 209.751 114.603 217.164 105.491 217.164H52.5358C43.4239 217.164 36.0278 209.751 36.0278 200.618V154.443C36.051 145.311 43.4239 137.897 52.5358 137.897Z" fill="#926247"/>
<path fill-rule="evenodd" clip-rule="evenodd" d="M92.8081 150.954L68.6193 150.547C57.8462 150.357 48.9461 158.961 48.7661 169.745C48.5633 180.534 57.144 189.436 67.94 189.622L92.1287 190.029C102.902 190.219 111.802 181.615 111.982 170.831C112.158 160.023 103.604 151.14 92.8081 150.954Z" fill="#4B3425"/>
<path fill-rule="evenodd" clip-rule="evenodd" d="M87.0543 150.509L63.3384 150.112C52.4242 149.923 43.4447 158.612 43.2431 169.542C43.2431 169.542 43.2431 169.542 43.2471 169.565C43.0455 180.494 51.7378 189.495 62.6519 189.683L86.3679 190.08C97.2821 190.268 106.262 181.58 106.463 170.65C106.463 170.65 106.463 170.65 106.459 170.627C106.661 159.698 97.9685 150.697 87.0543 150.509Z" fill="#AC836C"/>
<path d="M86.4738 180.236C91.5381 180.235 95.6971 176.15 95.7936 171.062C95.8781 165.905 91.7871 161.654 86.6343 161.553L86.4932 161.554C84.0142 161.522 81.654 162.435 79.8616 164.168C78.0692 165.9 77.0638 168.225 77.0095 170.734C76.925 175.891 81.016 180.142 86.1688 180.243L86.3099 180.242C86.3556 180.234 86.4053 180.249 86.4738 180.236ZM86.56 165.693C89.4206 165.752 91.7218 168.128 91.6592 170.992C91.6154 173.83 89.2825 176.107 86.4568 176.112C86.4339 176.116 86.3882 176.124 86.3614 176.106L86.2203 176.107C83.3597 176.048 81.0584 173.673 81.1211 170.808C81.1355 169.414 81.7076 168.11 82.7174 167.152C83.7272 166.195 85.0457 165.655 86.4189 165.695L86.56 165.693Z" fill="#926247"/>
<path d="M70.8576 167.986C71.9631 167.979 72.8705 167.111 72.9102 165.996C72.946 164.859 72.0722 163.905 70.9318 163.848L57.3291 163.358C56.1699 163.328 55.2397 164.2 55.1811 165.341C55.1454 166.479 56.0191 167.432 57.1595 167.49L70.7623 167.98C70.8119 167.995 70.8348 167.991 70.8576 167.986Z" fill="#926247"/>
<path d="M70.9737 175.548C72.0318 175.487 72.875 174.618 72.9107 173.559C72.953 172.428 72.0594 171.471 70.9294 171.43L63.0979 171.171C61.9454 171.136 61.0119 172.026 60.9696 173.158C60.9274 174.289 61.821 175.246 62.951 175.287L70.7825 175.546C70.8555 175.552 70.9232 175.536 70.9737 175.548Z" fill="#926247"/>
<path d="M145.36 169.32C153.011 161.651 153.011 149.218 145.36 141.55C137.709 133.881 125.304 133.881 117.653 141.55C110.003 149.218 110.003 161.651 117.653 169.32C125.304 176.988 137.709 176.988 145.36 169.32Z" fill="#6D4B36"/>
<path d="M131.851 202.06H131.875C133.961 202.036 135.654 200.34 135.631 198.248L135.283 155.396C135.26 153.305 133.567 151.632 131.504 151.632H131.48C129.394 151.655 127.701 153.351 127.724 155.443L128.072 198.295C128.095 200.386 129.788 202.06 131.851 202.06Z" fill="#926247"/>
<path fill-rule="evenodd" clip-rule="evenodd" d="M113.884 211.913L114.835 225.67C115.09 229.458 118.382 232.317 122.161 232.061C122.254 232.061 122.37 232.038 122.463 232.038C126.52 231.573 129.58 228.11 129.557 224.02L129.465 211.146C129.441 208.358 131.574 206.034 134.357 205.801C137.046 205.592 139.388 207.591 139.596 210.286C139.596 210.31 139.596 210.333 139.596 210.356L140.478 223.858C140.733 227.948 144.28 231.062 148.361 230.783C148.453 230.783 148.546 230.76 148.639 230.76C152.905 230.318 156.058 226.577 155.757 222.301L154.829 209.055C154.041 197.738 144.257 189.186 132.942 189.976C132.942 189.976 132.942 189.976 132.919 189.976C121.628 190.743 113.096 200.573 113.884 211.913Z" fill="#AC836C"/>
</svg>
