<svg width="18" height="12" viewBox="0 0 18 12" fill="none" xmlns="http://www.w3.org/2000/svg">
<path d="M2.6665 7.3335C3.21879 7.3335 3.6665 7.78121 3.6665 8.3335V10.3335C3.66633 10.8856 3.21868 11.3335 2.6665 11.3335H1.6665C1.11433 11.3335 0.66668 10.8856 0.666504 10.3335V8.3335C0.666504 7.78121 1.11422 7.3335 1.6665 7.3335H2.6665ZM7.3335 5.3335C7.88563 5.33367 8.3335 5.78132 8.3335 6.3335V10.3335C8.33332 10.8855 7.88552 11.3333 7.3335 11.3335H6.3335C5.78132 11.3335 5.33367 10.8856 5.3335 10.3335V6.3335C5.3335 5.78121 5.78121 5.3335 6.3335 5.3335H7.3335ZM11.9995 2.99951C12.5517 2.99951 12.9993 3.44738 12.9995 3.99951V10.3335C12.9993 10.8856 12.5517 11.3335 11.9995 11.3335H10.9995C10.4475 11.3333 9.99969 10.8855 9.99951 10.3335V3.99951C9.99969 3.44748 10.4475 2.99969 10.9995 2.99951H11.9995ZM16.6665 0.666504C17.2188 0.666504 17.6665 1.11422 17.6665 1.6665V10.3335C17.6663 10.8856 17.2187 11.3335 16.6665 11.3335H15.6665C15.1143 11.3335 14.6667 10.8856 14.6665 10.3335V1.6665C14.6665 1.11422 15.1142 0.666504 15.6665 0.666504H16.6665Z" fill="#4B3425"/>
</svg>
