<svg width="24" height="24" viewBox="0 0 24 24" fill="none" xmlns="http://www.w3.org/2000/svg">
<path d="M12 3V2H11.9998L12 3ZM14 5H15V5L14 5ZM18.3643 5.63574L19.0714 4.92864V4.92864L18.3643 5.63574ZM18.3643 8.46484L17.6572 7.75774L18.3643 8.46484ZM19 10V9V10ZM21 12H22H21ZM19 14V15V14ZM18.3643 15.5352L19.0714 14.828L18.3643 15.5352ZM18.3643 18.3643L19.0714 19.0714V19.0714L18.3643 18.3643ZM12 21L11.9998 22H12V21ZM10 19H9H10ZM5.63574 18.3643L4.92864 19.0714H4.92864L5.63574 18.3643ZM5 14V15V14ZM3 12H2H3ZM5 10V9H5L5 10ZM5.63574 5.63574L4.92864 4.92863L4.92864 4.92864L5.63574 5.63574ZM8.46484 5.63574L7.75774 6.34285L8.46484 5.63574ZM12 3V4C12.5523 4 13 4.44772 13 5L14 5L15 5C15 3.34315 13.6569 2 12 2V3ZM14 5H13C13 6.69235 15.0461 7.53905 16.2423 6.34285L15.5352 5.63574L14.828 4.92864C14.834 4.92272 14.8552 4.90798 14.8856 4.90273C14.9104 4.89842 14.9278 4.90267 14.9377 4.9068C14.9477 4.91093 14.963 4.92019 14.9776 4.94087C14.9954 4.96609 15 4.9916 15 5H14ZM15.5352 5.63574L16.2423 6.34285C16.6328 5.95232 17.2666 5.95232 17.6572 6.34285L18.3643 5.63574L19.0714 4.92864C17.8998 3.75706 15.9996 3.75706 14.828 4.92864L15.5352 5.63574ZM18.3643 5.63574L17.6572 6.34285C18.0477 6.73337 18.0477 7.36721 17.6572 7.75774L18.3643 8.46484L19.0714 9.17195C20.2429 8.00038 20.2429 6.10021 19.0714 4.92864L18.3643 5.63574ZM18.3643 8.46484L17.6572 7.75774C16.4609 8.95394 17.3076 11 19 11V10V9C19.0084 9 19.0339 9.00464 19.0591 9.02241C19.0798 9.03698 19.0891 9.05227 19.0932 9.06225C19.0973 9.07224 19.1016 9.08956 19.0973 9.11443C19.092 9.14476 19.0773 9.16603 19.0714 9.17195L18.3643 8.46484ZM19 10V11C19.5523 11 20 11.4477 20 12H21H22C22 10.3431 20.6569 9 19 9V10ZM21 12H20C20 12.5523 19.5523 13 19 13V14V15C20.6569 15 22 13.6569 22 12H21ZM19 14V13C17.3076 13 16.4609 15.0461 17.6572 16.2423L18.3643 15.5352L19.0714 14.828C19.0773 14.834 19.092 14.8552 19.0973 14.8856C19.1016 14.9104 19.0973 14.9278 19.0932 14.9377C19.0891 14.9477 19.0798 14.963 19.0591 14.9776C19.0339 14.9954 19.0084 15 19 15V14ZM18.3643 15.5352L17.6572 16.2423C18.0477 16.6328 18.0477 17.2666 17.6572 17.6572L18.3643 18.3643L19.0714 19.0714C20.2429 17.8998 20.2429 15.9996 19.0714 14.828L18.3643 15.5352ZM18.3643 18.3643L17.6572 17.6572C17.2666 18.0477 16.6328 18.0477 16.2423 17.6572L15.5352 18.3643L14.828 19.0714C15.9996 20.2429 17.8998 20.2429 19.0714 19.0714L18.3643 18.3643ZM15.5352 18.3643L16.2423 17.6572C15.0461 16.4609 13 17.3076 13 19H14H15C15 19.0084 14.9954 19.0339 14.9776 19.0591C14.963 19.0798 14.9477 19.0891 14.9377 19.0932C14.9278 19.0973 14.9104 19.1016 14.8856 19.0973C14.8552 19.092 14.834 19.0773 14.828 19.0714L15.5352 18.3643ZM14 19H13C13 19.5523 12.5523 20 12 20V21V22C13.6569 22 15 20.6569 15 19H14ZM12 21L12.0002 20C11.4477 19.9999 11 19.5519 11 19H10H9C9 20.6569 10.3435 21.9997 11.9998 22L12 21ZM10 19H11C11 17.3076 8.95394 16.4609 7.75774 17.6572L8.46484 18.3643L9.17195 19.0714C9.16603 19.0773 9.14476 19.092 9.11443 19.0973C9.08956 19.1016 9.07224 19.0973 9.06225 19.0932C9.05227 19.0891 9.03698 19.0798 9.02241 19.0591C9.00464 19.0339 9 19.0084 9 19H10ZM8.46484 18.3643L7.75774 17.6572C7.36721 18.0477 6.73337 18.0477 6.34285 17.6572L5.63574 18.3643L4.92864 19.0714C6.10021 20.2429 8.00038 20.2429 9.17195 19.0714L8.46484 18.3643ZM5.63574 18.3643L6.34285 17.6572C5.95232 17.2666 5.95232 16.6328 6.34285 16.2423L5.63574 15.5352L4.92864 14.828C3.75706 15.9996 3.75706 17.8998 4.92864 19.0714L5.63574 18.3643ZM5.63574 15.5352L6.34285 16.2423C7.53905 15.0461 6.69235 13 5 13V14V15C4.9916 15 4.96609 14.9954 4.94087 14.9776C4.92019 14.963 4.91093 14.9477 4.9068 14.9377C4.90267 14.9278 4.89842 14.9104 4.90273 14.8856C4.90798 14.8552 4.92272 14.834 4.92864 14.828L5.63574 15.5352ZM5 14V13C4.44772 13 4 12.5523 4 12H3H2C2 13.6569 3.34315 15 5 15V14ZM3 12H4C4 11.4477 4.44772 11 5 11V10L5 9C3.34315 9 2 10.3431 2 12H3ZM5 10V11C6.69235 11 7.53905 8.95394 6.34285 7.75774L5.63574 8.46484L4.92864 9.17195C4.92272 9.16603 4.90798 9.14476 4.90273 9.11443C4.89842 9.08956 4.90267 9.07224 4.9068 9.06225C4.91093 9.05227 4.92019 9.03698 4.94087 9.02241C4.96609 9.00464 4.9916 9 5 9V10ZM5.63574 8.46484L6.34285 7.75774C5.95232 7.36721 5.95232 6.73337 6.34285 6.34285L5.63574 5.63574L4.92864 4.92864C3.75706 6.10021 3.75706 8.00038 4.92864 9.17195L5.63574 8.46484ZM5.63574 5.63574L6.34285 6.34285C6.73337 5.95233 7.36721 5.95233 7.75774 6.34285L8.46484 5.63574L9.17195 4.92864C8.00038 3.75706 6.10021 3.75706 4.92864 4.92863L5.63574 5.63574ZM8.46484 5.63574L7.75774 6.34285C8.95394 7.53905 11 6.69235 11 5H10H9C9 4.9916 9.00464 4.96609 9.02241 4.94087C9.03698 4.92019 9.05227 4.91093 9.06225 4.9068C9.07224 4.90267 9.08956 4.89842 9.11443 4.90273C9.14476 4.90798 9.16603 4.92272 9.17195 4.92864L8.46484 5.63574ZM10 5H11C11 4.44807 11.4477 4.00012 12.0002 4L12 3L11.9998 2C10.3435 2.00035 9 3.34308 9 5H10ZM12 9V8C9.79086 8 8 9.79086 8 12H9H10C10 10.8954 10.8954 10 12 10V9ZM9 12H8C8 14.2091 9.79086 16 12 16V15V14C10.8954 14 10 13.1046 10 12H9ZM12 15V16C14.2091 16 16 14.2091 16 12H15H14C14 13.1046 13.1046 14 12 14V15ZM15 12H16C16 9.79086 14.2091 8 12 8V9V10C13.1046 10 14 10.8954 14 12H15Z" fill="white"/>
</svg>
