<?xml version="1.0" encoding="UTF-8"?>
<svg version="1.1" xmlns="http://www.w3.org/2000/svg" width="703" height="607">
<path d="M0 0 C231.99 0 463.98 0 703 0 C703 200.31 703 400.62 703 607 C471.01 607 239.02 607 0 607 C0 406.69 0 206.38 0 0 Z " fill="#FEFEFE" transform="translate(0,0)"/>
<path d="M0 0 C2.34528121 2.14863372 3.7719871 4.17284656 5.18554688 7.01464844 C5.59027222 7.82109802 5.99499756 8.62754761 6.4119873 9.45843506 C6.84321899 10.33324524 7.27445068 11.20805542 7.71875 12.109375 C8.17672974 13.02720764 8.63470947 13.94504028 9.10656738 14.89068604 C10.08101014 16.84630239 11.05257029 18.80335731 12.02148438 20.76171875 C13.46153403 23.67225503 14.90952579 26.57871013 16.359375 29.484375 C21.14737529 39.10093102 25.85508352 48.75173979 30.46875 58.453125 C36.14582112 70.38646167 42.0582909 82.19672046 48 94 C54.47209426 106.85689631 60.86773411 119.73876036 67.04646301 132.73954773 C71.66093336 142.43149888 76.48448724 152.01384225 81.34106445 161.58618164 C82.4534365 163.7810144 83.56099311 165.97822314 84.66796875 168.17578125 C85.0053154 168.83701492 85.34266205 169.4982486 85.69023132 170.17951965 C88 174.77345692 88 174.77345692 88 177 C88.92288315 177.12253143 89.8457663 177.24506287 90.7966156 177.37130737 C104.89116983 179.24608792 118.97745471 181.18021537 133.0625 183.125 C134.13384312 183.27288971 134.13384312 183.27288971 135.22682953 183.42376709 C157.35279012 186.47942718 179.45760177 189.65462281 201.54760742 192.96142578 C219.9792472 195.71792614 238.42473382 198.37167996 256.875 201 C257.58645424 201.10137268 258.29790848 201.20274536 259.03092194 201.30718994 C267.68694862 202.54046904 276.34328903 203.77153242 285 205 C281.26637872 209.52668695 277.39749936 213.64148619 273.01953125 217.54296875 C268.18605466 221.9293539 263.48948515 226.42285926 258.88671875 231.05078125 C258.294888 231.64583466 257.70305725 232.24088806 257.09329224 232.85397339 C255.28941405 234.67156532 253.48800964 236.49157146 251.6875 238.3125 C238.32225544 251.82709677 238.32225544 251.82709677 234.08203125 255.41796875 C227.32035545 261.16293195 221.2369721 267.69966244 215 274 C200.23854486 288.91142638 200.23854486 288.91142638 194.19140625 294.03125 C188.20645214 299.40810717 182.6584032 305.2841094 177 311 C159.9736616 328.19932006 159.9736616 328.19932006 150.99609375 335.4140625 C150.15175781 336.14367187 149.30742187 336.87328125 148.4375 337.625 C147.56996094 338.33914063 146.70242188 339.05328125 145.80859375 339.7890625 C140.91181816 348.48269001 146.10287987 362.98128077 147.86663818 372.50192261 C148.77092924 377.39029489 149.65050873 382.28312016 150.53125 387.17578125 C150.72371307 388.24317032 150.91617615 389.31055939 151.11447144 390.41029358 C153.67642985 404.67935782 156.09085895 418.97373718 158.50782013 433.26792908 C158.87235512 435.42187207 159.23786557 437.57564726 159.60369873 439.72937012 C160.18801508 443.16977442 160.77036069 446.6105066 161.35115051 450.05150795 C161.66664288 451.91888362 161.98361907 453.78600842 162.30065918 455.65312195 C163.4971696 462.76717422 164.57476241 469.88776383 165.54641724 477.03614807 C165.91273892 479.42980875 166.36195198 481.69959514 167 484.03125 C168.86887931 490.89354122 169.52076081 498.05921239 170.5 505.08984375 C171.50141485 512.25456696 171.50141485 512.25456696 173.0546875 519.3125 C174.09547371 523.37242635 174.65550222 527.34379018 175.125 531.5 C175.21136719 532.22703125 175.29773438 532.9540625 175.38671875 533.703125 C175.59574218 535.46821176 175.79854268 537.23403369 176 539 C170.09303573 537.32636012 164.89774621 534.48313603 159.5 531.625 C158.49114746 531.09479248 157.48229492 530.56458496 156.44287109 530.01831055 C147.63266083 525.37194246 138.89131495 520.60203134 130.15625 515.81640625 C125.49449619 513.26506435 120.81859304 510.74226594 116.125 508.25 C115.53283691 507.93393799 114.94067383 507.61787598 114.33056641 507.29223633 C110.43633623 505.23245666 106.50598493 503.25190921 102.56065369 501.29176331 C94.20115817 497.13716896 85.92941347 492.83735437 77.69152832 488.44708252 C73.990606 486.47482046 70.28642423 484.50870244 66.58203125 482.54296875 C65.84644989 482.15254395 65.11086853 481.76211914 64.35299683 481.35986328 C57.83986051 477.90689289 51.29897815 474.50952526 44.75 471.125 C35.84959698 466.5221416 27.02484268 461.79538532 18.25097656 456.95556641 C16.60168506 456.04709067 14.94900831 455.14472461 13.29248047 454.24951172 C11.79948036 453.43575511 10.31833205 452.59973896 8.85205078 451.73876953 C5.45751297 449.83590676 3.47654058 449.00106728 -0.48828125 448.9921875 C-4.75123059 450.21559232 -8.32266532 451.97899084 -12.1875 454.125 C-13.00154297 454.56457031 -13.81558594 455.00414062 -14.65429688 455.45703125 C-16.46378627 456.43477163 -18.27079695 457.41710922 -20.07568359 458.40332031 C-25.37018561 461.29412372 -30.68538999 464.14638142 -36 467 C-36.57761078 467.31080505 -37.15522156 467.62161011 -37.75033569 467.9418335 C-48.85082125 473.91196744 -60.05268889 479.67557752 -71.27481079 485.4130249 C-80.78545367 490.27813258 -90.22244483 495.2371426 -99.55151367 500.44458008 C-104.87353599 503.40805095 -110.26148727 506.18670698 -115.72436523 508.88012695 C-130.12752639 515.99321846 -144.32321971 523.52767835 -158.35449219 531.34692383 C-172.11394833 539 -172.11394833 539 -175 539 C-174.71470641 536.49912855 -174.4219259 533.99949567 -174.125 531.5 C-174.00705078 530.45585938 -174.00705078 530.45585938 -173.88671875 529.390625 C-173.38181413 525.19603274 -172.57937581 521.23269529 -171.49951172 517.13867188 C-170.52772285 512.97793361 -170.0526633 508.7330365 -169.5 504.5 C-168.77566807 498.95209498 -167.95182684 493.59694441 -166.51806641 488.17871094 C-165.35904283 483.30447605 -164.70660524 478.32246834 -163.9375 473.375 C-163.50004215 470.61696495 -163.06144448 467.85913508 -162.62109375 465.1015625 C-162.49950897 464.33900146 -162.37792419 463.57644043 -162.25265503 462.79077148 C-160.38376502 451.10256514 -158.44211947 439.42622147 -156.5 427.75 C-156.30313599 426.56611694 -156.10627197 425.38223389 -155.90344238 424.16247559 C-153.42912707 409.3059032 -150.86332176 394.47817052 -148.0625 379.6796875 C-146.87358165 373.38062195 -145.76426691 367.06913539 -144.6875 360.75 C-144.51565186 359.76596191 -144.34380371 358.78192383 -144.16674805 357.76806641 C-143.73258013 355.18301023 -143.35840718 352.59643705 -143 350 C-142.70029297 348.19789063 -142.70029297 348.19789063 -142.39453125 346.359375 C-143.37148337 340.93886646 -147.07328484 338.15230245 -151 334.5 C-151.74378906 333.77941406 -152.48757812 333.05882812 -153.25390625 332.31640625 C-156.68634088 329.01529955 -160.1941 325.82990193 -163.79882812 322.71875 C-167.95117824 319.09528019 -171.84778178 315.26372685 -175.71875 311.34375 C-176.77201477 310.2848053 -176.77201477 310.2848053 -177.84655762 309.20446777 C-180.81383766 306.22102625 -183.77505363 303.2315929 -186.73681641 300.24267578 C-188.91618465 298.04509421 -191.09864947 295.85062062 -193.28125 293.65625 C-193.936698 292.99250366 -194.592146 292.32875732 -195.26745605 291.64489746 C-199.0540046 287.83862856 -202.96186558 284.25748806 -207.02526855 280.74987793 C-210.3235837 277.82712664 -213.40524737 274.69778665 -216.5 271.5625 C-217.17998047 270.87873291 -217.85996094 270.19496582 -218.56054688 269.49047852 C-221.43225143 266.60262227 -224.29788438 263.70876925 -227.1640625 260.81542969 C-229.27392787 258.68734275 -231.38689645 256.56237083 -233.5 254.4375 C-234.13357422 253.79562744 -234.76714844 253.15375488 -235.41992188 252.49243164 C-239.14918766 248.74311078 -243.00499168 245.22225032 -247.00643921 241.76647949 C-250.36648154 238.7891708 -253.51495846 235.60782473 -256.67578125 232.421875 C-257.36762009 231.72862122 -258.05945892 231.03536743 -258.77226257 230.32110596 C-260.95472985 228.13310221 -263.13367434 225.94162949 -265.3125 223.75 C-266.79208381 222.26539186 -268.27189957 220.78101484 -269.75195312 219.296875 C-272.99618518 216.04287719 -276.23820754 212.78669684 -279.47822571 209.52850342 C-280.98328332 208.0167906 -282.49103739 206.50781406 -284 205 C-283.123367 204.87329422 -282.24673401 204.74658844 -281.34353638 204.61604309 C-272.90699928 203.39657561 -264.47052216 202.17669412 -256.0341053 200.95639515 C-251.70131576 200.3296855 -247.36850651 199.70311294 -243.03564453 199.0769043 C-238.00546906 198.34989422 -232.97536893 197.62236444 -227.9453125 196.89453125 C-227.11298347 196.77412916 -226.28065445 196.65372707 -225.42310333 196.52967644 C-216.40121145 195.22417152 -207.38037207 193.91201155 -198.36230469 192.58032227 C-197.20568612 192.40962644 -197.20568612 192.40962644 -196.02570152 192.23548222 C-192.41369797 191.70218164 -188.80190344 191.16752916 -185.19046021 190.63044739 C-176.25355458 189.30795681 -167.3089552 188.07769237 -158.34030151 186.98991394 C-154.33957371 186.49273907 -150.41054733 185.90575234 -146.46679688 185.06567383 C-140.58298792 183.87337161 -134.66840675 183.06040887 -128.71875 182.2734375 C-127.01579773 182.04462387 -127.01579773 182.04462387 -125.27844238 181.81118774 C-122.89872193 181.4920734 -120.5187946 181.17449839 -118.13867188 180.85839844 C-114.48258957 180.37268702 -110.82719369 179.88204706 -107.171875 179.390625 C-104.85420488 179.0804435 -102.53649784 178.77053771 -100.21875 178.4609375 C-99.12300659 178.31409515 -98.02726318 178.16725281 -96.89831543 178.01596069 C-95.88966431 177.88227081 -94.88101318 177.74858093 -93.84179688 177.61083984 C-92.95262573 177.49251801 -92.06345459 177.37419617 -91.14733887 177.25228882 C-89 177 -89 177 -87 177 C-86.73734848 176.14905258 -86.47469696 175.29810516 -86.2040863 174.42137146 C-84.95218977 170.8641488 -83.42951837 167.62621759 -81.73461914 164.25805664 C-81.41062134 163.61137527 -81.08662354 162.96469391 -80.75280762 162.29841614 C-79.6839295 160.16712983 -78.60948449 158.03869972 -77.53515625 155.91015625 C-76.77924502 154.40462114 -76.02375459 152.89887469 -75.2686615 151.39292908 C-73.27555685 147.42001155 -71.27803136 143.44933527 -69.2791748 139.47930908 C-65.73441504 132.43798008 -62.19556648 125.39368369 -58.66015625 118.34765625 C-58.27499281 117.58032354 -57.88982937 116.81299084 -57.49299431 116.02240562 C-53.12280739 107.31114735 -48.79777346 98.58521464 -44.6328125 89.7734375 C-36.76324579 73.13109289 -28.41478029 56.71924573 -20.16577148 40.26287842 C-17.88439325 35.7105143 -15.60539601 31.15695851 -13.32617188 26.60351562 C-8.88638624 17.73453825 -4.44405076 8.86684089 0 0 Z " fill="#FEFEFE" transform="translate(347,39)"/>
<path d="M0 0 C117.15 0 234.3 0 355 0 C355 200.31 355 400.62 355 607 C303.19 607 251.38 607 198 607 C196.15159767 603.30319534 195.55217125 601.05731278 195 597.0546875 C194.835 595.89453125 194.67 594.734375 194.5 593.5390625 C194.335 592.32992187 194.17 591.12078125 194 589.875 C192.99477743 582.64996278 191.96036086 575.47448053 190.46875 568.33251953 C189.52414605 563.63213094 188.8597915 558.88411293 188.14453125 554.14453125 C187.5489064 550.26976744 186.89948364 546.42442807 186.1015625 542.5859375 C184.62734704 535.3653472 183.50349922 528.0834161 182.31488037 520.81164551 C179.65964965 504.59436429 176.84644777 488.41225468 173.875 472.25 C171.14458007 457.39339861 168.53148507 442.52886206 166.09375 427.62109375 C164.88590216 420.24351602 163.59184122 412.88137205 162.25488281 405.52612305 C161.95544776 403.84395563 161.6724997 402.15874811 161.40820312 400.47070312 C161.12656466 398.76604925 160.78250375 397.07095054 160.38867188 395.38867188 C159.87626739 392.7221591 159.6615982 390.69543865 160 388 C161.49700928 386.26177979 161.49700928 386.26177979 163.53808594 384.66503906 C167.79101705 381.18815357 171.64340147 377.46961095 175.5 373.5625 C176.17998047 372.87873291 176.85996094 372.19496582 177.56054688 371.49047852 C179.70950926 369.32942945 181.85517279 367.16515274 184 365 C186.83033837 362.14283983 189.66412673 359.28916546 192.5 356.4375 C193.13357422 355.79562744 193.76714844 355.15375488 194.41992188 354.49243164 C198.15258408 350.73969609 202.01247878 347.21647373 206.01757812 343.75756836 C209.31790765 340.83157424 212.40266702 337.7004008 215.5 334.5625 C216.17998047 333.87873291 216.85996094 333.19496582 217.56054688 332.49047852 C219.70950926 330.32942945 221.85517279 328.16515274 224 326 C226.83033837 323.14283983 229.66412673 320.28916546 232.5 317.4375 C233.13357422 316.79562744 233.76714844 316.15375488 234.41992188 315.49243164 C238.15258408 311.73969609 242.01247878 308.21647373 246.01757812 304.75756836 C249.31790765 301.83157424 252.40266702 298.7004008 255.5 295.5625 C256.17998047 294.87873291 256.85996094 294.19496582 257.56054688 293.49047852 C259.70950926 291.32942945 261.85517279 289.16515274 264 287 C266.83033837 284.14283983 269.66412673 281.28916546 272.5 278.4375 C273.45036133 277.47469116 273.45036133 277.47469116 274.41992188 276.49243164 C278.15673198 272.73552588 282.02138676 269.20892614 286.03106689 265.74630737 C289.25328507 262.88842289 292.25756149 259.82644502 295.2734375 256.75390625 C296.60534186 255.4093795 297.93737672 254.06498201 299.26953125 252.72070312 C301.33863931 250.62660345 303.40609068 248.53091323 305.47119141 246.43286133 C307.48430318 244.38973486 309.50343772 242.35271953 311.5234375 240.31640625 C312.14423187 239.68215225 312.76502625 239.04789825 313.40463257 238.39442444 C314.8989061 236.89136506 316.44489709 235.44003327 318 234 C318.66 234 319.32 234 320 234 C320 233.34 320 232.68 320 232 C318.99751221 232.04519775 317.99502441 232.09039551 316.9621582 232.13696289 C310.11120693 232.12956051 303.35925371 230.84904751 296.60546875 229.80859375 C295.09150013 229.57989156 293.57743453 229.35183049 292.0632782 229.12437439 C288.92608625 228.65268083 285.78930385 228.17838706 282.652771 227.70233154 C276.18767751 226.7234735 269.71739249 225.78049314 263.24701309 224.83733749 C259.76921972 224.32994672 256.29184622 223.8196959 252.81445312 223.30957031 C252.12171358 223.20797293 251.42897404 223.10637554 250.71524239 223.00169945 C249.30171519 222.79438298 247.88819122 222.58704446 246.47467041 222.37968445 C245.01304563 222.16526812 243.55141628 221.95088296 242.08978271 221.73652649 C223.63665313 219.02995582 205.19103609 216.28732528 186.76519775 213.39978027 C171.95123091 211.08414076 157.10051881 209.05609305 142.23632812 207.09082031 C140.49473081 206.85918103 138.75319306 206.62709345 137.01171875 206.39453125 C136.17276566 206.2827655 135.33381256 206.17099976 134.46943665 206.05584717 C127.89610315 205.16253416 121.35884709 204.09637468 114.835495 202.89057922 C110.90292785 202.19206012 107.40720628 201.95665157 103.4375 202.375 C101.1484375 202.15625 101.1484375 202.15625 99 201 C95.71208369 196.49218542 93.4472309 191.6594687 91.1640625 186.58349609 C89.62316867 183.16366839 87.99501586 179.78861767 86.36889648 176.40869141 C85.48040445 174.55798458 84.5972984 172.70468448 83.71899414 170.84912109 C79.28532531 161.49561236 74.64646285 152.24891223 70 143 C65.16493546 133.37235181 60.34417109 123.74566786 55.75 114 C49.88869291 101.57554646 43.67864221 89.32490561 37.51834106 77.04693604 C31.91290353 65.87140816 26.34031206 54.69142087 21.01245117 43.38037109 C16.02039155 32.8311511 10.73650236 22.42425639 5.4831543 12.00341797 C5.12031342 11.28196594 4.75747253 10.56051392 4.38363647 9.81719971 C3.69456768 8.44730078 3.00381219 7.07824867 2.31118774 5.71014404 C0 1.11246839 0 1.11246839 0 0 Z " fill="#FEFEFE" transform="translate(348,0)"/>
<path d="M0 0 C2.58648062 2.32161426 4.00848814 4.64719181 5.55273438 7.74902344 C6.03754272 8.71563904 6.52235107 9.68225464 7.02185059 10.67816162 C7.54057739 11.72796204 8.0593042 12.77776245 8.59375 13.859375 C9.14051392 14.954776 9.68727783 16.050177 10.25061035 17.17877197 C11.41336564 19.51101538 12.57323773 21.84469809 13.73046875 24.1796875 C15.46018611 27.6696691 17.1979373 31.1555422 18.9375 34.640625 C24.77458129 46.35614089 30.51654223 58.11165266 36.1385498 69.93182373 C39.95352613 77.94032021 43.89609349 85.87970404 47.89074707 93.79980469 C53.11032755 104.15280551 58.30597598 114.51193921 63.25 125 C69.57224217 138.40428283 76.2829818 151.61849774 82.94628906 164.85546875 C83.40197266 165.76353775 83.85765625 166.67160675 84.32714844 167.60719299 C85.23519521 169.41306818 86.14791961 171.21659932 87.06542969 173.01768494 C89.30966047 177.45684589 91.41069758 181.89789369 93.29589844 186.50219727 C96.49841422 195.15501568 96.49841422 195.15501568 102.54736328 201.69970703 C105.49649572 202.43232801 107.96543723 202.53482273 111 202.4375 C113.16954678 202.53988385 115.33882408 202.64811882 117.5078125 202.76171875 C118.60254883 202.79185059 119.69728516 202.82198242 120.82519531 202.85302734 C125.59011903 203.07361209 130.18761434 203.90548101 134.875 204.75 C147.27934089 206.81957644 159.73154171 208.52573949 172.1875 210.25 C189.76299277 212.68651241 207.3250647 215.1981197 224.875 217.8125 C226.49155991 218.05329285 226.49155991 218.05329285 228.14077759 218.2989502 C232.65843394 218.97206229 237.17607111 219.64530268 241.69364929 220.31893921 C257.14099487 222.62029331 272.59336978 224.88756442 288.04532623 227.15771103 C291.1358406 227.61178705 294.22633143 228.06602322 297.31682205 228.52026081 C305.21115795 229.6805603 313.10555242 230.84046059 321 232 C321 232.66 321 233.32 321 234 C319.77734375 235.19921875 319.77734375 235.19921875 317.9375 236.6875 C313.72928984 240.2659604 309.82812748 244.08481175 305.9375 248 C305.29796387 248.64283936 304.65842773 249.28567871 303.99951172 249.94799805 C301.99771373 251.96339857 299.99843328 253.98126333 298 256 C295.35717585 258.66967432 292.71088176 261.33584008 290.0625 264 C289.47267334 264.598125 288.88284668 265.19625 288.27514648 265.8125 C285.28484933 268.81999965 282.2377118 271.70020696 279.02734375 274.47265625 C274.99937191 277.95455276 271.23890838 281.64962067 267.5 285.4375 C266.82001953 286.12126709 266.14003906 286.80503418 265.43945312 287.50952148 C263.29049074 289.67057055 261.14482721 291.83484726 259 294 C256.16966163 296.85716017 253.33587327 299.71083454 250.5 302.5625 C249.54963867 303.52530884 249.54963867 303.52530884 248.58007812 304.50756836 C244.84741592 308.26030391 240.98752122 311.78352627 236.98242188 315.24243164 C233.68209235 318.16842576 230.59733298 321.2995992 227.5 324.4375 C226.82001953 325.12126709 226.14003906 325.80503418 225.43945312 326.50952148 C223.29049074 328.67057055 221.14482721 330.83484726 219 333 C216.16966163 335.85716017 213.33587327 338.71083454 210.5 341.5625 C209.54963867 342.52530884 209.54963867 342.52530884 208.58007812 343.50756836 C205.48328745 346.62101282 202.33865067 349.61555064 199.01318359 352.48461914 C194.90608239 356.03150294 191.09126511 359.81474504 187.2890625 363.68359375 C185.86601296 365.11926706 184.44283223 366.55481034 183.01953125 367.99023438 C180.80556407 370.22918599 178.59324756 372.4697262 176.38330078 374.71264648 C174.23119197 376.89477043 172.07305801 379.07078648 169.9140625 381.24609375 C169.24952057 381.92409531 168.58497864 382.60209686 167.90029907 383.30064392 C166.97826187 384.22774925 166.97826187 384.22774925 166.03759766 385.17358398 C165.49769196 385.72094711 164.95778625 386.26831024 164.40151978 386.83226013 C163 388 163 388 161 388 C161.24234375 389.15371094 161.4846875 390.30742187 161.734375 391.49609375 C163.64541663 400.73874385 165.36785823 409.98525648 166.8125 419.3125 C168.48016043 430.05307758 170.36873104 440.74438897 172.3125 451.4375 C174.88562075 465.60677404 177.33757023 479.79199741 179.6875 494 C179.83544006 494.89432739 179.98338013 495.78865479 180.13580322 496.71008301 C180.70824477 500.17155933 181.28065846 503.63304023 181.85275269 507.09457397 C183.66698507 518.05491148 185.58538726 528.99672528 187.51904297 539.93652344 C188.05612549 542.97820888 188.59129685 546.02021983 189.125 549.0625 C189.29394775 550.02510742 189.46289551 550.98771484 189.63696289 551.97949219 C190.73375913 558.29361483 191.70373503 564.60606784 192.5078125 570.96484375 C192.9927706 573.95541873 193.72960056 576.82736032 194.48730469 579.75805664 C195.46674326 584.04100158 195.98407868 588.39806816 196.5625 592.75 C196.81187602 594.59921909 197.06310712 596.44818919 197.31640625 598.296875 C197.42412354 599.10479492 197.53184082 599.91271484 197.64282227 600.74511719 C197.97660739 602.85232117 198.48255599 604.93022396 199 607 C68.32 607 -62.36 607 -197 607 C-196.12068389 597.32752274 -195.04517452 587.8753154 -193.0625 578.375 C-191.87278989 572.66064435 -191.01384923 566.89608579 -190.14086914 561.12646484 C-189.53878442 557.20003861 -188.87571848 553.30292601 -188.07104492 549.41259766 C-186.94623659 543.83394378 -186.00236734 538.23269289 -185.08203125 532.6171875 C-184.71447623 530.39444336 -184.34688017 528.171706 -183.97924805 525.94897461 C-183.78889984 524.79444794 -183.59855164 523.63992126 -183.4024353 522.45040894 C-173.73259483 463.8446027 -173.73259483 463.8446027 -168.35083008 436.12182617 C-166.53444711 426.70570478 -164.94233334 417.25712839 -163.46240234 407.78271484 C-163.029787 405.1792567 -162.5222834 402.60376692 -161.98828125 400.01953125 C-160.39419091 392.41611323 -160.39419091 392.41611323 -162.60546875 385.20703125 C-164.93417797 382.81419235 -167.30163102 380.96584776 -170 379 C-175.4421429 374.4577635 -180.52319032 369.60449424 -185.5 364.5625 C-186.17998047 363.87873291 -186.85996094 363.19496582 -187.56054688 362.49047852 C-190.43225143 359.60262227 -193.29788438 356.70876925 -196.1640625 353.81542969 C-198.27392787 351.68734275 -200.38689645 349.56237083 -202.5 347.4375 C-203.13357422 346.79562744 -203.76714844 346.15375488 -204.41992188 345.49243164 C-207.52124581 342.37442955 -210.67109359 339.37492801 -214 336.5 C-218.01988623 333.02832429 -221.77008623 329.34126691 -225.5 325.5625 C-226.17998047 324.87873291 -226.85996094 324.19496582 -227.56054688 323.49047852 C-230.43225143 320.60262227 -233.29788438 317.70876925 -236.1640625 314.81542969 C-238.27392787 312.68734275 -240.38689645 310.56237083 -242.5 308.4375 C-243.13357422 307.79562744 -243.76714844 307.15375488 -244.41992188 306.49243164 C-247.52124581 303.37442955 -250.67109359 300.37492801 -254 297.5 C-258.01988623 294.02832429 -261.77008623 290.34126691 -265.5 286.5625 C-266.17998047 285.87873291 -266.85996094 285.19496582 -267.56054688 284.49047852 C-270.43225143 281.60262227 -273.29788438 278.70876925 -276.1640625 275.81542969 C-278.27392787 273.68734275 -280.38689645 271.56237083 -282.5 269.4375 C-283.13357422 268.79562744 -283.76714844 268.15375488 -284.41992188 267.49243164 C-288.19062852 263.70144706 -292.08743178 260.13079238 -296.1340332 256.63665771 C-298.72494558 254.36414315 -301.15488606 251.97479969 -303.59375 249.5390625 C-304.07074341 249.06302582 -304.54773682 248.58698914 -305.03918457 248.0965271 C-306.02832562 247.10805719 -307.01624307 246.11836133 -308.00292969 245.12744141 C-309.52163266 243.60328973 -311.04572512 242.08466956 -312.5703125 240.56640625 C-313.53677987 239.59927954 -314.50293779 238.63184347 -315.46875 237.6640625 C-316.77489258 236.35622803 -316.77489258 236.35622803 -318.10742188 235.02197266 C-320 233 -320 233 -320 232 C-307.68604462 230.20183574 -295.37180745 228.40561137 -283.05728149 226.61135864 C-276.85385424 225.7074952 -270.65049151 224.80319368 -264.44726562 223.89794922 C-256.67341472 222.7636652 -248.89930654 221.63115681 -241.125 220.5 C-239.82001556 220.31008484 -238.51503113 220.12016968 -237.17050171 219.92449951 C-217.9670461 217.13208285 -198.75416777 214.41491062 -179.53262329 211.75012207 C-167.32471964 210.0558961 -155.13965007 208.2959498 -142.97998047 206.28051758 C-133.52316698 204.72263289 -124.02502753 203.52625555 -114.51757812 202.32470703 C-109.00281929 201.61343577 -103.50097457 200.81036887 -98 200 C-97.73734848 199.14905258 -97.47469696 198.29810516 -97.2040863 197.42137146 C-95.95218977 193.8641488 -94.42951837 190.62621759 -92.73461914 187.25805664 C-92.41062134 186.61137527 -92.08662354 185.96469391 -91.75280762 185.29841614 C-90.6839295 183.16712983 -89.60948449 181.03869972 -88.53515625 178.91015625 C-87.77924502 177.40462114 -87.02375459 175.89887469 -86.2686615 174.39292908 C-84.27555685 170.42001155 -82.27803136 166.44933527 -80.2791748 162.47930908 C-76.73441501 155.43798001 -73.19560694 148.39366345 -69.66015625 141.34765625 C-69.27771381 140.58578632 -68.89527138 139.8239164 -68.50123978 139.0389595 C-63.50658567 129.08353228 -58.60168359 119.09324514 -53.83302307 109.02711487 C-48.24355251 97.24810877 -42.3415124 85.62446876 -36.47949219 73.97949219 C-30.49582151 62.0852632 -24.6036915 50.1575838 -18.88542175 38.13328552 C-14.96236302 29.89108121 -10.91699622 21.71552683 -6.8125 13.5625 C-6.13977673 12.22210418 -5.46725107 10.88160915 -4.79492188 9.54101562 C-3.19885569 6.35954795 -1.6002443 3.17936863 0 0 Z M0 39 C-6.20126481 51.3791678 -12.40025367 63.75947248 -18.59648609 76.14116001 C-21.47494783 81.8929061 -24.35413816 87.64428483 -27.23510742 93.39477539 C-30.02502985 98.96360569 -32.81288983 104.5334643 -35.59943199 110.10398674 C-36.65302605 112.20935354 -37.7073134 114.31437357 -38.76236916 116.41900826 C-44.68526074 128.23531825 -50.50990705 140.09021137 -56.19014168 152.0252037 C-59.69874487 159.39249973 -63.29954078 166.70527779 -66.98046875 173.98828125 C-67.87203641 175.76201059 -68.76359962 177.53574218 -69.65488911 179.30961132 C-71.7890379 183.555387 -73.92813234 187.79866867 -76.06860352 192.04125977 C-77.29571968 194.47395348 -78.52072671 196.90768781 -79.7434845 199.34257507 C-80.88077337 201.60683244 -82.02134598 203.86944416 -83.16557312 206.13020325 C-83.67062881 207.13693588 -84.17568451 208.14366852 -84.69604492 209.1809082 C-85.14251877 210.06639847 -85.58899261 210.95188873 -86.04899597 211.86421204 C-87.13558959 213.91485246 -87.13558959 213.91485246 -87 216 C-88.21945312 216.15855469 -89.43890625 216.31710938 -90.6953125 216.48046875 C-94.60441243 216.9890182 -98.51317652 217.50009378 -102.421875 218.01171875 C-107.26052437 218.64447531 -112.09995978 219.27063217 -116.94009399 219.891922 C-120.25690328 220.31842437 -123.57326993 220.74831141 -126.8895874 221.17861938 C-128.52144697 221.38962983 -130.15348199 221.59928863 -131.78570557 221.8074646 C-140.83543261 222.96258782 -149.81863796 224.27754625 -158.79393005 225.91526794 C-165.4179976 227.10926937 -172.07471646 227.97013069 -178.75363159 228.79208374 C-200.56253924 231.49255929 -222.27403613 234.86033841 -243.99312401 238.19263077 C-246.11764112 238.51853977 -248.24222687 238.84399841 -250.36682129 239.16940308 C-252.98106311 239.56982416 -255.59492554 239.97248229 -258.20861816 240.37649536 C-266.79293525 241.69460238 -275.387851 242.88067072 -284 244 C-283.25224808 244.74742462 -282.50449615 245.49484924 -281.73408508 246.2649231 C-279.57182949 248.42796307 -277.41189355 250.59320828 -275.25463867 252.76123047 C-271.3993408 256.63444461 -267.54089687 260.5045089 -263.68139648 264.37353516 C-262.02326635 266.03669731 -260.36603441 267.70075544 -258.7097168 269.36572266 C-256.30236952 271.78528511 -253.8917313 274.20152761 -251.48046875 276.6171875 C-250.74998825 277.35282928 -250.01950775 278.08847107 -249.26689148 278.84640503 C-245.28825041 282.82547296 -241.20867978 286.60176059 -236.94795227 290.27566528 C-233.65747942 293.18840429 -230.58594158 296.31113981 -227.5 299.4375 C-226.82001953 300.12126709 -226.14003906 300.80503418 -225.43945312 301.50952148 C-222.56774857 304.39737773 -219.70211562 307.29123075 -216.8359375 310.18457031 C-214.72607213 312.31265725 -212.61310355 314.43762917 -210.5 316.5625 C-209.86642578 317.20437256 -209.23285156 317.84624512 -208.58007812 318.50756836 C-205.48323378 321.62106677 -202.33843228 324.61632893 -199.01367188 327.48632812 C-194.91116914 331.02942124 -191.08866318 334.80063283 -187.28125 338.65625 C-186.22798523 339.7151947 -186.22798523 339.7151947 -185.15344238 340.79553223 C-182.18616234 343.77897375 -179.22494637 346.7684071 -176.26318359 349.75732422 C-174.08381535 351.95490579 -171.90135053 354.14937938 -169.71875 356.34375 C-169.063302 357.00749634 -168.407854 357.67124268 -167.73254395 358.35510254 C-162.82518773 363.28801628 -157.72602936 367.95935586 -152.33372498 372.35977173 C-150.84027084 373.58134134 -149.38767678 374.85235518 -147.9375 376.125 C-146.49697266 377.33542969 -146.49697266 377.33542969 -145.02734375 378.5703125 C-141.80812642 384.01631021 -143.07596861 388.91874667 -144 395 C-144.17136475 396.15274414 -144.34272949 397.30548828 -144.51928711 398.49316406 C-145.13523917 402.35798186 -145.81127392 406.21020453 -146.5 410.0625 C-146.76170867 411.55392413 -147.02275223 413.04546509 -147.28320312 414.53710938 C-147.86182365 417.8470084 -148.44364981 421.15632406 -149.02734375 424.46533203 C-150.09272257 430.51518127 -151.14098974 436.56795597 -152.1875 442.62109375 C-152.37606064 443.71171616 -152.56462128 444.80233856 -152.75889587 445.92601013 C-153.14489659 448.1591286 -153.53083669 450.39225754 -153.91671753 452.62539673 C-154.69175412 457.10940086 -155.46790157 461.59321236 -156.24412537 466.07701111 C-156.80889121 469.33940162 -157.37345465 472.60182711 -157.93798828 475.86425781 C-158.61027807 479.74912102 -159.28311064 483.63388939 -159.95654297 487.51855469 C-160.65960153 491.57487098 -161.36067432 495.63152519 -162.06005859 499.68847656 C-162.30591993 501.1127548 -162.55246742 502.53691482 -162.79980469 503.9609375 C-163.97985777 510.75698551 -165.09401319 517.54925578 -166.03515625 524.3828125 C-166.66904403 528.94411121 -167.47159744 533.38459347 -168.53125 537.86328125 C-169.41058158 541.87156772 -169.93133467 545.93810479 -170.5 550 C-171.30406798 555.7433427 -172.26120782 561.37547167 -173.56738281 567.02685547 C-174.07966883 569.36336542 -174.3982858 571.6820009 -174.625 574.0625 C-174.74875 575.361875 -174.8725 576.66125 -175 578 C-170.09821914 576.5385995 -165.73370444 574.41717592 -161.25 572 C-159.55470123 571.09763046 -157.85938746 570.19528908 -156.1640625 569.29296875 C-155.20274414 568.77911621 -154.24142578 568.26526367 -153.25097656 567.73583984 C-146.71668872 564.24689522 -140.17035725 560.78062021 -133.625 557.3125 C-132.532444 556.73326782 -132.532444 556.73326782 -131.41781616 556.14233398 C-119.95841697 550.06849763 -108.46116536 544.07217631 -96.93359375 538.12890625 C-89.56667312 534.3303378 -82.21631871 530.50319692 -74.88818359 526.63037109 C-70.76766749 524.45357956 -66.64055059 522.29054528 -62.50390625 520.14453125 C-52.9097282 515.16562362 -43.35343672 510.13385599 -33.875 504.9375 C-32.06910394 503.95295343 -30.26311459 502.96857797 -28.45703125 501.984375 C-25.66832391 500.46390268 -22.8848691 498.93578976 -20.11083984 497.38867188 C-17.27012168 495.80514896 -14.41764219 494.24482742 -11.5625 492.6875 C-10.70446777 492.20079834 -9.84643555 491.71409668 -8.96240234 491.21264648 C-5.39342965 489.28781126 -2.76806253 488.04347524 1.3125 487.8125 C7.06839186 489.66609229 12.24280407 492.46242216 17.5625 495.3125 C18.77807381 495.95414507 19.99406332 496.59500318 21.21044922 497.23510742 C29.26031573 501.48393658 37.24805557 505.8463464 45.21801758 510.24291992 C54.35994032 515.25793165 63.64475972 519.98872725 72.92605591 524.73864746 C81.76155176 529.26300158 90.52611007 533.8673599 99.16870117 538.75317383 C104.19914716 541.58747638 109.30819232 544.2078566 114.48608398 546.76098633 C130.15903567 554.50323029 145.60865128 562.6984301 160.92041016 571.12988281 C168.12098474 575.79023294 168.12098474 575.79023294 176 578 C175.54927492 574.49897713 175.08802697 570.99941539 174.625 567.5 C174.43550781 566.02660156 174.43550781 566.02660156 174.2421875 564.5234375 C173.68299447 560.32948975 173.12691219 556.20609029 172.0234375 552.1171875 C170.48854649 546.38594852 169.82337322 540.49153416 169 534.625 C168.6691915 532.28349607 168.3358966 529.94234194 168 527.6015625 C167.855625 526.57369629 167.71125 525.54583008 167.5625 524.48681641 C167.11760879 521.72903156 166.61059459 519.01253436 166.05297852 516.27685547 C164.95254258 510.86092224 164.03983312 505.42307699 163.15234375 499.96875 C162.79526911 497.79782121 162.43800152 495.62692415 162.08056641 493.45605469 C161.89439758 492.32244507 161.70822876 491.18883545 161.51641846 490.02087402 C157.8713821 467.8524431 154.04096187 445.72405328 150.00756836 423.62304688 C148.99663614 418.08352901 147.99261827 412.54283011 147 407 C146.76815002 405.70727173 146.76815002 405.70727173 146.53161621 404.38842773 C146.0945907 401.93202274 145.66669261 399.4742211 145.2421875 397.015625 C145.11490265 396.302995 144.9876178 395.59036499 144.85647583 394.85614014 C142.95863821 383.67042313 142.95863821 383.67042313 145.34179688 379.84765625 C146.27088867 378.96400391 146.27088867 378.96400391 147.21875 378.0625 C147.90453125 377.39476562 148.5903125 376.72703125 149.296875 376.0390625 C150.02390625 375.36617188 150.7509375 374.69328125 151.5 374 C152.19609375 373.32710938 152.8921875 372.65421875 153.609375 371.9609375 C156.85398653 368.84851385 160.16593913 365.84594559 163.59375 362.9375 C170.42083803 357.01666259 176.64645903 350.41809073 183 344 C197.76145514 329.08857362 197.76145514 329.08857362 203.80859375 323.96875 C209.79354786 318.59189283 215.3415968 312.7158906 221 307 C235.76145514 292.08857362 235.76145514 292.08857362 241.80859375 286.96875 C247.79354786 281.59189283 253.3415968 275.7158906 259 270 C261.64282358 267.33032625 264.2878985 264.66294794 266.9375 262 C267.56503174 261.36924561 268.19256348 260.73849121 268.83911133 260.08862305 C272.58231266 256.34941926 276.38462848 252.74635104 280.484375 249.39453125 C282.25918748 247.7615208 283.57465933 245.94015709 285 244 C282.81221517 243.68745931 280.62443034 243.37491862 278.43664551 243.06237793 C276.98119324 242.85445618 276.98119324 242.85445618 275.49633789 242.64233398 C274.48264633 242.4975209 273.46895477 242.35270782 272.42454529 242.20350647 C265.39828968 241.19975567 258.37203407 240.19600487 251.34577847 239.19225407 C249.4817568 238.92596526 249.4817568 238.92596526 247.58007812 238.65429688 C224.5480957 235.36401367 224.5480957 235.36401367 220.82801342 234.83257198 C218.35385787 234.4791221 215.8797018 234.12567578 213.40554523 233.77223301 C207.22113177 232.88876126 201.03672717 232.00522746 194.8523407 231.12156677 C184.06409413 229.58013859 173.27580568 228.03901018 162.48714733 226.50046635 C158.05283714 225.8680807 153.61857188 225.23538035 149.18430901 224.60266304 C147.14418814 224.3116577 145.10404463 224.02081109 143.0638752 223.73014641 C126.22355125 221.33085536 109.39360667 218.86539315 92.57055664 216.34790039 C90.10201025 215.95529409 90.10201025 215.95529409 88 216 C87.77884521 215.23099365 87.55769043 214.4619873 87.32983398 213.66967773 C85.51709085 208.66741188 83.12568485 204.02678528 80.72265625 199.28515625 C80.19667343 198.23839218 79.67069061 197.19162811 79.12876892 196.11314392 C77.4438142 192.76099997 75.75357203 189.41156154 74.0625 186.0625 C71.86299833 181.70066678 69.66622585 177.33747579 67.47265625 172.97265625 C66.65512375 171.34597519 66.65512375 171.34597519 65.82107544 169.68643188 C61.75488052 161.56895761 57.81343694 153.39724142 53.91786194 145.1967926 C49.94973729 136.85539366 45.83847627 128.5910865 41.68063354 120.34295654 C36.16682531 109.40085419 30.67136364 98.45443704 25.4375 87.375 C20.95561977 77.90710735 16.34076567 68.50676982 11.67922974 59.12628174 C10.854918 57.46582711 10.03269407 55.80433431 9.21261597 54.14178467 C8.06304523 51.81287174 6.90567517 49.48800383 5.74609375 47.1640625 C5.39764404 46.45485657 5.04919434 45.74565063 4.69018555 45.01495361 C3.04391376 41.36833283 3.04391376 41.36833283 0 39 Z " fill="#D5C2BA" transform="translate(347,0)"/>
<path d="M0 0 C0.87954346 0.47735596 0.87954346 0.47735596 1.77685547 0.96435547 C2.46924316 1.33439697 3.16163086 1.70443848 3.875 2.08569336 C4.99817627 2.70238892 4.99817627 2.70238892 6.14404297 3.33154297 C7.36969971 3.98981079 7.36969971 3.98981079 8.62011719 4.66137695 C11.42397499 6.16874124 14.22136736 7.68773861 17.01904297 9.20654297 C21.39118653 11.56603574 25.76707803 13.91850785 30.14404297 16.26904297 C30.72545044 16.58179169 31.30685791 16.89454041 31.90588379 17.21676636 C42.54931295 22.9391281 53.28009618 28.48197952 64.03527832 33.99078369 C73.23916244 38.70775452 82.36554954 43.53080067 91.41503906 48.53930664 C100.02515314 53.27318928 108.77140661 57.73405857 117.51904297 62.20654297 C127.28908956 67.20204394 137.03405735 72.21952433 146.64404297 77.51904297 C154.55562886 81.88106542 162.5136236 86.14387053 170.51904297 90.33154297 C171.57687988 90.8888208 172.6347168 91.44609863 173.72460938 92.02026367 C174.71895996 92.53806396 175.71331055 93.05586426 176.73779297 93.58935547 C177.61371094 94.04713379 178.48962891 94.50491211 179.39208984 94.9765625 C182.21161169 96.29670665 185.05030844 97.27650598 188.01904297 98.20654297 C188.01904297 98.53654297 188.01904297 98.86654297 188.01904297 99.20654297 C59.64904297 99.20654297 -68.72095703 99.20654297 -200.98095703 99.20654297 C-198.83215916 97.0577451 -197.5418051 96.55193713 -194.72705078 95.52685547 C-187.91184998 92.87996199 -181.50682055 89.47417081 -175.04345703 86.08154297 C-173.74229585 85.40279371 -172.44094265 84.72441245 -171.1394043 84.04638672 C-167.41693771 82.10544163 -163.69886043 80.15621361 -159.98095703 78.20654297 C-158.27014581 77.31307196 -156.55922697 76.41980695 -154.84814453 75.52685547 C-148.12922579 72.0120643 -141.434354 68.45446 -134.75830078 64.85888672 C-132.45766394 63.62033718 -130.15687764 62.38206524 -127.85595703 61.14404297 C-126.98071884 60.67301651 -126.98071884 60.67301651 -126.08779907 60.19247437 C-115.44576693 54.47116101 -104.71640183 48.92921398 -93.96270752 43.42129517 C-85.6569884 39.16474789 -77.39609345 34.85399325 -69.23095703 30.33154297 C-57.68268867 23.93638168 -45.91848241 17.96265215 -34.15966797 11.96679688 C-33.01363602 11.38155243 -33.01363602 11.38155243 -31.8444519 10.78448486 C-30.34101905 10.01746229 -28.83657766 9.25241303 -27.33108521 8.48944092 C-23.90295436 6.74372525 -20.51324342 4.96368708 -17.18066406 3.04101562 C-16.0435498 2.39052246 -14.90643555 1.7400293 -13.73486328 1.06982422 C-12.75976807 0.49143799 -11.78467285 -0.08694824 -10.7800293 -0.68286133 C-6.76869146 -2.27445102 -3.92655952 -1.57275307 0 0 Z " fill="#FEFEFE" transform="translate(353.98095703125,507.79345703125)"/>
</svg>
