<svg width="24" height="24" viewBox="0 0 24 24" fill="none" xmlns="http://www.w3.org/2000/svg">
<path d="M20.5535 7.73843C19.6154 6.51592 18.3002 5.63711 16.8117 5.23828L16.2941 7.17013C17.3573 7.45501 18.2967 8.08273 18.9668 8.95596C19.4312 9.56116 19.7481 10.2608 19.899 10.9998L2 10.9998V12.9998L19.899 12.9998C19.7481 13.7387 19.4312 14.4384 18.9668 15.0436C18.2967 15.9168 17.3573 16.5445 16.2941 16.8294L16.8117 18.7612C18.3002 18.3624 19.6154 17.4836 20.5535 16.2611C21.4915 15.0386 22 13.5407 22 11.9998C22 10.4588 21.4915 8.96094 20.5535 7.73843Z" fill="#4B3425"/>
</svg>
