<svg width="24" height="24" viewBox="0 0 24 24" fill="none" xmlns="http://www.w3.org/2000/svg">
<path d="M10 12C10 10.8954 10.8954 10 12 10C13.1046 10 14 10.8954 14 12C14 13.1046 13.1046 14 12 14C10.8954 14 10 13.1046 10 12Z" fill="#1F160F" fill-opacity="0.32"/>
<path fill-rule="evenodd" clip-rule="evenodd" d="M12.0004 3C10.8959 3 10.0004 3.89543 10.0004 5C10.0004 5.80152 9.03121 6.20278 8.46444 5.63602C7.68339 4.85497 6.41706 4.85497 5.63602 5.63602C4.85497 6.41707 4.85497 7.6834 5.63602 8.46445C6.20266 9.0311 5.80136 10 5 10C3.89543 10 3 10.8954 3 12C3 13.1046 3.89543 14 5 14C5.80135 14 6.2027 14.9689 5.63606 15.5355C4.85501 16.3166 4.85501 17.5829 5.63606 18.3639C6.41711 19.145 7.68344 19.145 8.46449 18.3639C9.03125 17.7972 10.0004 18.1985 10.0004 19C10.0004 20.1046 10.8959 21 12.0004 21C13.105 21 14.0004 20.1046 14.0004 19C14.0004 18.1989 14.969 17.7975 15.5355 18.3639C16.3166 19.145 17.5829 19.145 18.3639 18.3639C19.145 17.5829 19.145 16.3166 18.3639 15.5355C17.7973 14.9689 18.1986 14 19 14C20.1046 14 21 13.1046 21 12C21 10.8954 20.1046 10 19 10C18.1986 10 17.7973 9.03109 18.364 8.46444C19.145 7.68339 19.145 6.41706 18.364 5.63602C17.5829 4.85497 16.3166 4.85497 15.5356 5.63602C14.9691 6.20252 14.0004 5.80115 14.0004 5C14.0004 3.89543 13.105 3 12.0004 3ZM12 8C9.79086 8 8 9.79086 8 12C8 14.2091 9.79086 16 12 16C14.2091 16 16 14.2091 16 12C16 9.79086 14.2091 8 12 8Z" fill="#1F160F" fill-opacity="0.32"/>
</svg>
