<svg width="20" height="20" viewBox="0 0 20 20" fill="none" xmlns="http://www.w3.org/2000/svg">
<path d="M8.48652 1.6141C9.0822 0.322645 10.9177 0.322645 11.5134 1.6141L12.9008 4.62201C13.1436 5.14835 13.6424 5.51076 14.218 5.579L17.5074 5.96902C18.9197 6.13647 19.4869 7.88212 18.4428 8.84773L16.0108 11.0967C15.5852 11.4903 15.3947 12.0767 15.5077 12.6452L16.1532 15.8941C16.4304 17.2891 14.9455 18.368 13.7045 17.6733L10.814 16.0553C10.3082 15.7722 9.69166 15.7722 9.18587 16.0553L6.29542 17.6733C5.0544 18.368 3.56947 17.2891 3.84665 15.8941L4.49221 12.6452C4.60518 12.0767 4.41465 11.4903 3.98909 11.0967L1.55713 8.84773C0.512962 7.88212 1.08016 6.13647 2.49248 5.96902L5.78191 5.579C6.35751 5.51076 6.85632 5.14835 7.0991 4.62201L8.48652 1.6141Z" fill="white"/>
</svg>
