<svg width="20" height="20" viewBox="0 0 20 20" fill="none" xmlns="http://www.w3.org/2000/svg">
<path fill-rule="evenodd" clip-rule="evenodd" d="M1.6665 10.0001C1.6665 5.39771 5.39746 1.66675 9.99984 1.66675C14.6022 1.66675 18.3332 5.39771 18.3332 10.0001C18.3332 14.6025 14.6022 18.3334 9.99984 18.3334C5.39746 18.3334 1.6665 14.6025 1.6665 10.0001ZM7.08316 9.16675C7.77351 9.16675 8.33316 8.6071 8.33316 7.91675C8.33316 7.22639 7.77351 6.66675 7.08316 6.66675C6.3928 6.66675 5.83316 7.22639 5.83316 7.91675C5.83316 8.6071 6.3928 9.16675 7.08316 9.16675ZM12.9165 9.16675C13.6068 9.16675 14.1665 8.6071 14.1665 7.91675C14.1665 7.22639 13.6068 6.66675 12.9165 6.66675C12.2261 6.66675 11.6665 7.22639 11.6665 7.91675C11.6665 8.6071 12.2261 9.16675 12.9165 9.16675ZM7.49982 14.3302C8.25992 14.769 9.12214 15.0001 9.99982 15.0001C10.8775 15.0001 11.7397 14.7691 12.4998 14.3302C13.2599 13.8914 13.8911 13.2602 14.33 12.5001L12.8866 11.6667C12.594 12.1735 12.1732 12.5943 11.6665 12.8868C11.1598 13.1794 10.5849 13.3334 9.99982 13.3334C9.4147 13.3334 8.83989 13.1794 8.33316 12.8868C7.82643 12.5943 7.40563 12.1735 7.11307 11.6667L5.6697 12.5001C6.10854 13.2602 6.73973 13.8914 7.49982 14.3302Z" fill="#FFCE5C"/>
</svg>
