<svg width="24" height="24" viewBox="0 0 24 24" fill="none" xmlns="http://www.w3.org/2000/svg">
<path fill-rule="evenodd" clip-rule="evenodd" d="M14.2609 2.08494C13.9604 2.02881 13.6532 2 13.3431 2H9C6.23858 2 4 4.23858 4 7V17C4 19.7614 6.23858 22 9 22H15C17.7614 22 20 19.7614 20 17V8.65685C20 8.34676 19.9712 8.03963 19.9151 7.73905C19.8867 7.76926 19.8578 7.79906 19.8284 7.82843C19.3319 8.32492 18.7135 8.68197 18.0353 8.8637C17.3571 9.04543 16.6429 9.04543 15.9647 8.8637C15.2865 8.68197 14.6681 8.32492 14.1716 7.82843C13.6751 7.33193 13.318 6.7135 13.1363 6.03528C12.9546 5.35705 12.9546 4.64295 13.1363 3.96472C13.318 3.2865 13.6751 2.66807 14.1716 2.17157C14.2009 2.1422 14.2307 2.11332 14.2609 2.08494ZM11 13.9995H9V11.9995H11V9.99951H13V11.9995H15V13.9995H13V15.9995H11V13.9995Z" fill="#FE814B"/>
<path d="M18.9215 5.5549C18.8019 5.40377 18.6732 5.25894 18.5355 5.12132L16.8787 3.46447C16.7411 3.32684 16.5962 3.19807 16.4451 3.07852C16.1206 3.17223 15.8249 3.34666 15.5858 3.58579C15.3375 3.83403 15.159 4.14325 15.0681 4.48236C14.9773 4.82147 14.9773 5.17853 15.0681 5.51764C15.159 5.85675 15.3375 6.16597 15.5858 6.41421C15.834 6.66246 16.1433 6.84099 16.4824 6.93185C16.8215 7.02272 17.1785 7.02272 17.5176 6.93185C17.8567 6.84099 18.166 6.66246 18.4142 6.41421C18.6533 6.17509 18.8278 5.87939 18.9215 5.5549Z" fill="#FE814B"/>
</svg>
