<svg width="24" height="24" viewBox="0 0 24 24" fill="none" xmlns="http://www.w3.org/2000/svg">
<path fill-rule="evenodd" clip-rule="evenodd" d="M5 15H4C3.65342 15 3.33156 14.8205 3.14935 14.5257C2.96714 14.2309 2.95058 13.8628 3.10557 13.5528L5.00371 9.75652C5.04296 8.4671 5.39354 7.20497 6.02708 6.07847C6.70044 4.88116 7.67077 3.8774 8.84459 3.16388C10.0184 2.45036 11.3562 2.05111 12.7291 2.00459C14.102 1.95807 15.4637 2.26585 16.6831 2.89828C17.9026 3.53071 18.9386 4.46648 19.6915 5.61547C20.4443 6.76447 20.8887 8.08796 20.9817 9.45848C21.0746 10.829 20.8132 12.2004 20.2224 13.4405C19.9735 13.963 19.6697 14.4548 19.3174 14.9082C18.5475 15.8991 18.0325 16.8459 18.0325 17.7963V21C18.0325 21.5523 17.5848 22 17.0325 22H9C8.44772 22 8 21.5523 8 21V18H6C5.44772 18 5 17.5523 5 17V15ZM13 7.60335C11.7737 6.57759 9.94499 6.64077 8.79288 7.79288C7.57393 9.01183 7.57392 10.9881 8.79288 12.2071L11.9988 15.413C12.5517 15.9659 13.4482 15.9659 14.0012 15.413L17.2071 12.2071C18.426 10.9881 18.426 9.01183 17.2071 7.79288C16.055 6.64077 14.2263 6.57759 13 7.60335Z" fill="#FFBD1A"/>
</svg>
