<svg width="20" height="20" viewBox="0 0 20 20" fill="none" xmlns="http://www.w3.org/2000/svg">
<path d="M9.99984 8.33341C11.8408 8.33341 13.3332 6.84103 13.3332 5.00008C13.3332 3.15913 11.8408 1.66675 9.99984 1.66675C8.15889 1.66675 6.6665 3.15913 6.6665 5.00008C6.6665 6.84103 8.15889 8.33341 9.99984 8.33341Z" fill="#A28FFF"/>
<path d="M9.99984 18.3334C11.8408 18.3334 13.3332 16.841 13.3332 15.0001C13.3332 13.1591 11.8408 11.6667 9.99984 11.6667C8.15889 11.6667 6.6665 13.1591 6.6665 15.0001C6.6665 16.841 8.15889 18.3334 9.99984 18.3334Z" fill="#A28FFF"/>
<path d="M14.9998 13.3334C13.1589 13.3334 11.6665 11.841 11.6665 10.0001C11.6665 8.15913 13.1589 6.66675 14.9998 6.66675C16.8408 6.66675 18.3332 8.15913 18.3332 10.0001C18.3332 11.841 16.8408 13.3334 14.9998 13.3334Z" fill="#A28FFF"/>
<path d="M1.6665 10.0001C1.6665 11.841 3.15889 13.3334 4.99984 13.3334C6.84079 13.3334 8.33317 11.841 8.33317 10.0001C8.33317 8.15913 6.84079 6.66675 4.99984 6.66675C3.15889 6.66675 1.6665 8.15913 1.6665 10.0001Z" fill="#A28FFF"/>
</svg>
