<svg width="16" height="16" viewBox="0 0 16 16" fill="none" xmlns="http://www.w3.org/2000/svg">
<path d="M6.66683 7.99967C6.66683 7.26329 7.26378 6.66634 8.00016 6.66634C8.73654 6.66634 9.3335 7.26329 9.3335 7.99967C9.3335 8.73605 8.73654 9.33301 8.00016 9.33301C7.26378 9.33301 6.66683 8.73605 6.66683 7.99967Z" fill="#16572E"/>
<path fill-rule="evenodd" clip-rule="evenodd" d="M1.3335 7.99967C1.3335 5.42235 3.42283 3.33301 6.00016 3.33301H10.0002C12.5775 3.33301 14.6668 5.42235 14.6668 7.99967C14.6668 10.577 12.5775 12.6663 10.0002 12.6663H6.00016C3.42283 12.6663 1.3335 10.577 1.3335 7.99967ZM8.00016 5.33301C6.5274 5.33301 5.3335 6.52692 5.3335 7.99967C5.3335 9.47243 6.5274 10.6663 8.00016 10.6663C9.47292 10.6663 10.6668 9.47243 10.6668 7.99967C10.6668 6.52692 9.47292 5.33301 8.00016 5.33301Z" fill="#16572E"/>
</svg>
