<svg width="20" height="20" viewBox="0 0 20 20" fill="none" xmlns="http://www.w3.org/2000/svg">
<path fill-rule="evenodd" clip-rule="evenodd" d="M1.6665 8.33317C1.6665 4.65127 4.65127 1.6665 8.33317 1.6665H11.6665C15.3484 1.6665 18.3332 4.65127 18.3332 8.33317C18.3332 12.0151 15.3484 14.9998 11.6665 14.9998H6.17835L5.93427 15.2439C4.35936 16.8188 1.6665 15.7034 1.6665 13.4761V8.33317ZM6.6665 9.1665C7.12674 9.1665 7.49984 8.79341 7.49984 8.33317C7.49984 7.87293 7.12674 7.49984 6.6665 7.49984C6.20627 7.49984 5.83317 7.87293 5.83317 8.33317C5.83317 8.79341 6.20627 9.1665 6.6665 9.1665ZM10.8332 8.33317C10.8332 8.79341 10.4601 9.1665 9.99984 9.1665C9.5396 9.1665 9.1665 8.79341 9.1665 8.33317C9.1665 7.87293 9.5396 7.49984 9.99984 7.49984C10.4601 7.49984 10.8332 7.87293 10.8332 8.33317ZM13.3332 9.1665C13.7934 9.1665 14.1665 8.79341 14.1665 8.33317C14.1665 7.87293 13.7934 7.49984 13.3332 7.49984C12.8729 7.49984 12.4998 7.87293 12.4998 8.33317C12.4998 8.79341 12.8729 9.1665 13.3332 9.1665Z" fill="white"/>
</svg>
