<svg width="20" height="20" viewBox="0 0 20 20" fill="none" xmlns="http://www.w3.org/2000/svg">
<path d="M8.48652 1.61385C9.0822 0.3224 10.9177 0.3224 11.5134 1.61385L12.9008 4.62176C13.1436 5.14811 13.6424 5.51051 14.218 5.57876L17.5074 5.96877C18.9197 6.13623 19.4869 7.88187 18.4428 8.84749L16.0108 11.0965C15.5852 11.49 15.3947 12.0764 15.5077 12.6449L16.1532 15.8939C16.4304 17.2888 14.9455 18.3677 13.7045 17.673L10.814 16.0551C10.3082 15.772 9.69166 15.772 9.18587 16.0551L6.29542 17.673C5.0544 18.3677 3.56947 17.2888 3.84665 15.8939L4.49221 12.6449C4.60518 12.0764 4.41465 11.49 3.98909 11.0965L1.55713 8.84749C0.512962 7.88187 1.08016 6.13623 2.49248 5.96877L5.78191 5.57876C6.35751 5.51051 6.85632 5.14811 7.0991 4.62176L8.48652 1.61385Z" fill="#16572E"/>
</svg>
