<svg width="16" height="12" viewBox="0 0 16 12" fill="none" xmlns="http://www.w3.org/2000/svg">
<path d="M6.12012 8.73113C7.3957 7.65225 9.26447 7.65225 10.54 8.73113C10.6041 8.78915 10.6408 8.8713 10.6426 8.95769C10.6443 9.04415 10.6106 9.12759 10.5488 9.18816L8.55176 11.2038C8.49324 11.263 8.41334 11.2965 8.33008 11.2966C8.24683 11.2966 8.16695 11.263 8.10841 11.2038L6.11036 9.18816C6.04876 9.12757 6.01484 9.04408 6.01661 8.95769C6.01844 8.87125 6.05598 8.78911 6.12012 8.73113ZM3.45509 6.04168C6.20318 3.48564 10.4589 3.48569 13.207 6.04168C13.269 6.10153 13.3047 6.18407 13.3057 6.27019C13.3065 6.35638 13.2726 6.43949 13.2119 6.50066L12.0576 7.66766C11.9387 7.78676 11.7461 7.78941 11.624 7.67351C10.7216 6.85633 9.54753 6.40394 8.33008 6.40398C7.1134 6.40449 5.93997 6.85685 5.03809 7.67351C4.91602 7.78933 4.72343 7.78673 4.6045 7.66766L3.4502 6.50066C3.38953 6.4396 3.35564 6.35629 3.35645 6.27019C3.35739 6.18407 3.39312 6.10152 3.45509 6.04168ZM0.790046 3.36004C5.00516 -0.679132 11.6552 -0.679383 15.8701 3.36004C15.931 3.41998 15.9653 3.50213 15.9658 3.58758C15.9663 3.67314 15.9324 3.75537 15.8721 3.81609L14.7158 4.98309C14.5967 5.10256 14.4041 5.10381 14.2832 4.98601C12.6773 3.45928 10.5459 2.60821 8.33008 2.60809C6.11399 2.60808 3.98213 3.45913 2.37598 4.98601C2.25519 5.104 2.06241 5.10278 1.94337 4.98309L0.787116 3.81609C0.726852 3.75533 0.692803 3.67316 0.693366 3.58758C0.693982 3.50207 0.729035 3.41996 0.790046 3.36004Z" fill="#4B3425"/>
</svg>
