<svg width="837" height="768" viewBox="0 0 837 768" fill="none" xmlns="http://www.w3.org/2000/svg">
<g opacity="0.48" clip-path="url(#clip0_1_2241)">
<path d="M349.32 108.947C253.396 132.706 162.868 205.181 111.032 299.799C97.5372 324.444 86.3168 351.41 85.6249 378.409C84.947 405.384 96.8141 414.803 119.436 423.151C149.506 434.272 236.301 417.268 267.687 418.325C284.699 418.884 340.632 413.248 342.744 431.27C344.132 443.317 334.758 450.191 326.292 459.766C304.663 484.2 281.929 495.028 272.166 526.086C265.836 546.157 271.03 567.389 282.034 582.323C293.025 597.281 309.137 606.778 325.857 613.897C368.374 632.009 416.31 636.511 464.149 635.887C523.386 635.116 585.633 625.975 640.237 592.108C654.788 583.088 670.187 569.748 672.095 552.551C674.196 533.645 659.189 520.658 645.586 510.887C623.513 495.023 601.426 479.183 579.331 463.307C566.001 453.725 551.399 441.46 552.302 423C553.08 407.556 564.759 393.791 576.753 383.652C595.77 367.558 618.412 359.537 639.229 347.602C657.078 337.399 687.146 315.139 685.938 290.618C685.689 285.502 683.613 280.955 680.932 277.1C668.177 258.685 642.738 251.603 622.066 246.494C595.255 239.855 567.378 236.436 539.083 236.285C507.329 236.12 474.154 239.945 445.352 229.069C435.876 225.483 426.269 219.222 424.568 208.327C421.406 188.105 445.863 171.544 452.216 150.771C459.882 125.686 437.932 104.725 415.12 101.337C392.316 97.9866 377.554 103.147 349.32 108.947Z" fill="#EDEBFF"/>
</g>
<defs>
<clipPath id="clip0_1_2241">
<rect width="680.504" height="493.194" fill="white" transform="translate(246.844 0.304077) rotate(30)"/>
</clipPath>
</defs>
</svg>
