<svg width="632" height="511" viewBox="0 0 632 511" fill="none" xmlns="http://www.w3.org/2000/svg">
<path d="M335.5 70.0817C342.301 56.4055 352.629 44.9663 365.545 36.8572C366.814 36.0692 365.646 34.061 364.378 34.849C351.131 43.1615 340.474 54.8803 333.495 68.9123C332.81 70.2596 334.815 71.429 335.5 70.0817Z" fill="white"/>
<path d="M413.453 248.152C415.889 214.495 393.254 181.271 364.63 167.163C361.61 165.688 358.413 168.815 359.504 172.171C360.342 174.713 361.915 177.178 363.59 179.212C365.823 181.932 370.111 185.974 372.573 189.914C373.842 191.948 372.065 194.566 369.858 193.905C351.612 188.363 334.966 178.5 334.966 178.5C326.719 172.577 316.594 167.341 309.133 165.841C305.428 165.104 302.814 169.527 305.022 172.806C308.296 177.687 312.533 183.279 315.376 184.423C310.833 183.711 306.418 178.78 301.52 180.432C299.49 181.118 297.968 183.076 297.942 185.389C297.866 192.202 309.666 192.99 312.204 199.192C309.108 198.379 302.535 197.184 299.465 196.32C299.389 196.294 299.313 196.269 299.211 196.244C292.715 194.49 289.746 204.505 295.938 207.276L326.389 220.927C329.967 222.528 328.495 228.273 324.663 227.638L306.063 224.562C303.779 224.231 301.495 225.503 300.683 227.816C299.11 232.213 304.286 234.756 308.118 236.255C318.497 240.323 326.719 250.338 329.129 261.905C329.586 264.091 340.904 433.037 341.031 435.198C343.721 476.887 402.288 501.164 425 456.5L413.453 248.152Z" fill="#FEAF8F"/>
<path d="M357.323 224.537C363.236 228.808 370.975 232.85 374.731 239.307C378.309 245.458 378.918 252.906 379.502 259.821C379.629 261.295 381.938 261.321 381.811 259.821C381.202 252.474 380.491 244.645 376.71 238.137C372.726 231.274 364.708 227.054 358.465 222.529C357.298 221.639 356.131 223.648 357.323 224.537Z" fill="#4B3425"/>
<path d="M371.941 172.222C368.946 171.841 366.485 169.883 365.038 167.265C364.303 165.969 362.298 167.138 363.034 168.434C364.912 171.815 368.109 174.052 371.941 174.535C373.438 174.739 373.412 172.4 371.941 172.222Z" fill="#4B3425"/>
<path d="M340.118 197.184C330.83 191.591 321.543 185.999 312.255 180.406C310.961 179.644 309.794 181.652 311.088 182.415C320.376 188.007 329.663 193.6 338.951 199.192C340.219 199.955 341.412 197.947 340.118 197.184Z" fill="#4B3425"/>
<path d="M336.007 209.081C326.923 205.573 318.117 201.48 309.565 196.828C308.246 196.116 307.079 198.125 308.398 198.836C317.127 203.59 326.136 207.759 335.398 211.318C336.794 211.852 337.377 209.615 336.007 209.081Z" fill="#4B3425"/>
<path d="M360.165 197.138C358.11 199.247 356.587 201.688 355.496 204.408C354.938 205.806 357.196 206.391 357.729 205.018C358.668 202.679 360.039 200.569 361.815 198.764C362.855 197.722 361.206 196.07 360.165 197.138Z" fill="white"/>
<path d="M349.584 209.437C347.858 211.42 346.158 213.403 344.433 215.36C343.468 216.479 345.093 218.131 346.082 217.012C347.808 215.03 349.508 213.047 351.233 211.089C352.198 209.946 350.548 208.293 349.584 209.437Z" fill="white"/>
<path d="M332.912 233.078C332.303 235.137 331.364 237.018 330.095 238.772C329.207 239.992 331.237 241.136 332.1 239.941C333.47 238.035 334.485 235.925 335.145 233.688C335.576 232.264 333.343 231.654 332.912 233.078Z" fill="white"/>
<path d="M301.927 257.913C316.899 230.077 310.275 192.989 291.218 169.933C289.213 167.492 285.255 168.967 284.925 172.246C284.671 174.737 285.077 177.457 285.712 179.847C286.574 183.024 288.681 188.134 289.29 192.455C289.594 194.692 287.082 196.243 285.458 194.819C271.983 183.075 261.528 168.229 261.528 168.229C256.732 159.993 250.084 151.63 244.298 147.486C241.431 145.427 237.472 148.198 238.106 151.859C239.045 157.299 240.517 163.705 242.522 165.764C238.918 163.425 237.041 157.502 232.219 157.019C230.214 156.816 228.159 157.934 227.271 159.866C224.581 165.662 234.376 170.873 234.173 177.152C231.839 175.271 226.687 171.737 224.378 169.806C224.327 169.755 224.251 169.704 224.2 169.653C219.328 165.662 212.933 173.085 217.171 177.838L237.954 201.225C240.39 203.971 236.939 208.317 233.919 206.309L219.201 196.548C217.374 195.378 214.938 195.607 213.365 197.26C210.345 200.412 213.796 204.581 216.486 207.326C223.82 214.8 226.992 226.518 224.606 237.322C224.15 239.381 121.771 463.42 121.06 465.301C107.383 501.957 161.484 526.462 198 497L301.927 257.913Z" fill="#4B3425"/>
<path d="M262.875 216.096C266.326 222.096 271.502 228.654 272.162 235.696C272.797 242.279 270.437 248.863 268.305 254.964C267.797 256.388 270.056 256.998 270.538 255.574C272.898 248.838 275.334 241.644 274.344 234.424C273.355 227.358 268.356 220.977 264.879 214.927C264.143 213.631 262.139 214.8 262.875 216.096Z" fill="#4B3425"/>
<path d="M295.685 177.05C293.3 175.576 291.853 173.084 291.6 170.288C291.473 168.814 289.138 168.788 289.29 170.288C289.595 173.898 291.397 177.126 294.518 179.058C295.787 179.846 296.954 177.838 295.685 177.05Z" fill="#4B3425"/>
<path d="M258.891 186.199C253.08 177.861 247.295 169.497 241.484 161.159C240.646 159.939 238.616 161.109 239.479 162.329C245.29 170.667 251.076 179.03 256.887 187.368C257.724 188.588 259.729 187.444 258.891 186.199Z" fill="#4B3425"/>
<path d="M250.82 194.744C244.4 188.261 238.437 181.398 232.905 174.128C232.017 172.958 229.986 174.102 230.9 175.297C236.533 182.72 242.624 189.761 249.171 196.371C250.236 197.464 251.886 195.811 250.82 194.744Z" fill="#4B3425"/>
<path d="M275.993 193.73C273.43 194.747 271.146 196.196 269.142 198.128C268.076 199.17 269.7 200.823 270.791 199.78C272.466 198.153 274.42 196.832 276.602 195.993C277.998 195.433 277.389 193.171 275.993 193.73Z" fill="white"/>
<path d="M261.96 200.286C259.727 201.328 257.52 202.345 255.287 203.387C253.942 204.022 255.109 206.031 256.454 205.395C258.687 204.353 260.895 203.336 263.128 202.294C264.473 201.658 263.305 199.65 261.96 200.286Z" fill="white"/>
<path d="M238.868 213.938C237.548 215.463 236.051 216.734 234.3 217.751C233.006 218.488 234.173 220.496 235.467 219.759C237.37 218.666 239.071 217.268 240.492 215.59C241.481 214.446 239.832 212.794 238.868 213.938Z" fill="white"/>
<path d="M217.857 248.431C213.34 247.287 209.179 249.93 207.25 254.074C205.144 258.65 206.743 263.759 209.103 267.903C215.066 278.401 224.582 287.68 234.098 294.925C243.868 302.398 255.008 308.118 266.934 311.168C271.806 312.414 277.846 313.609 282.134 310.177C286.068 307.05 286.474 301.686 286.677 297.034C286.753 295.535 284.418 295.535 284.368 297.034C284.114 302.729 283.124 309.287 276.222 310.024C271.629 310.507 266.604 308.779 262.291 307.381C253.688 304.559 245.593 300.314 238.234 295.077C230.799 289.815 224.125 283.511 218.289 276.52C215.041 272.631 211.412 268.36 209.585 263.556C207.58 258.268 209.661 248.71 217.248 250.642C218.695 251.049 219.304 248.812 217.857 248.431Z" fill="#FE814B"/>
<path d="M216.208 257.126C208.772 257.1 197.176 260.837 200.094 270.7C201.261 274.589 204.687 277.36 207.91 279.521C212.554 282.622 217.578 285.291 222.678 287.579C242.319 296.4 265.031 299.934 286.347 296.273C290.432 295.587 295.127 294.112 296.979 289.994C298.476 286.69 297.664 282.724 294.442 280.868C293.147 280.131 291.98 282.139 293.274 282.876C296.446 284.707 295.685 289.028 293.249 291.138C291.346 292.816 288.707 293.451 286.271 293.909C281.17 294.849 275.866 295.18 270.69 295.256C260.59 295.383 250.49 294.112 240.746 291.519C230.976 288.927 221.587 285.012 212.883 279.851C208.925 277.487 203.291 274.462 202.175 269.556C200.348 261.473 210.523 259.413 216.208 259.439C217.705 259.464 217.705 257.126 216.208 257.126Z" fill="#FE814B"/>
<path d="M431.573 30.1222C429.289 26.7159 426.929 23.7163 424.544 21.098C384.932 -30.3529 328.978 23.6654 312.737 62.457C310.149 58.3643 307.129 54.2208 306.419 53.0768C300.252 43.0612 293.579 33.6302 285.027 25.8516C276.983 18.5305 267.619 12.4296 257.621 8.81995C243.537 1.93102 227.83 -0.458494 212.68 5.41362C192.481 13.2431 180.757 33.7065 183.955 56.7374C188.37 88.64 207.504 117.848 224.708 143.37C245.618 174.434 303.83 221.741 303.83 221.741C304.719 221.284 305.581 220.826 306.47 220.343C307.459 221.182 307.992 221.639 307.992 221.639C339.839 205.726 370.848 178.959 394.727 148.378C416.068 121.051 454.157 63.7534 431.573 30.1222Z" fill="#A28FFF"/>
<path d="M492.805 355.604C490.217 351.359 428.959 250.059 426.396 245.814C413.582 224.715 404.218 202.014 395.159 179.034C385.998 155.775 390.946 128.066 407.847 110.043C408.608 109.23 411.755 107.756 412.846 107.501C415.104 106.993 417.185 109.408 417.21 111.721C417.236 114.034 415.891 116.144 414.521 118C412.237 121.127 409.724 124.203 408.506 127.888C407.288 131.574 407.694 136.099 410.613 138.641C414.825 138.921 416.754 133.557 417.413 129.388C419.824 114.314 421.803 98.6042 426.32 84.0129C427.386 80.5811 431.7 77.0731 434.999 78.4713C437.08 79.361 437.663 82.0047 437.917 84.2671C439.414 97.8924 437.486 111.416 436.293 125.092C436.775 113.882 439.338 102.926 439.82 91.7153C439.947 88.6902 439.643 84.5467 441.013 81.8522C442.383 79.1576 445.352 77.0223 448.296 77.5815C450.935 78.09 452.813 80.5811 453.447 83.174C454.107 85.7669 454.234 89.5291 453.955 92.1983C452.635 104.4 452.381 116.729 453.193 128.982C453.346 119.144 454.437 109.332 456.492 99.7227C457.177 96.5706 458.269 93.0117 461.187 91.6644C464.689 90.063 468.901 92.7575 470.424 96.2655C471.972 99.7735 471.591 103.79 471.388 107.628C469.713 137.574 471.769 186.076 584.285 333.184L492.805 355.604Z" fill="#4B3425"/>
<path d="M447.154 77.8645C445.783 83.2282 447.458 88.8461 451.696 92.4558C452.838 93.4218 454.487 91.7949 453.345 90.8035C449.742 87.7022 448.219 83.1011 449.412 78.4746C449.767 77.0256 447.534 76.4156 447.154 77.8645Z" fill="white"/>
<path d="M432.637 79.1847C430.227 84.04 431.597 89.7087 435.886 93.0134C437.078 93.9285 438.22 91.8949 437.053 91.0052C433.83 88.514 432.866 83.9891 434.642 80.354C435.302 79.0067 433.297 77.8374 432.637 79.1847Z" fill="white"/>
<path d="M462.734 91.2571C461.871 94.6126 462.176 98.0443 463.673 101.196C464.434 102.798 465.5 104.298 466.794 105.518C467.657 106.357 470.169 107.246 470.6 108.111C470.727 107.577 470.88 107.043 471.006 106.509C470.93 106.56 470.829 106.611 470.753 106.662C471.286 106.789 471.818 106.941 472.351 107.069C472.301 107.018 472.275 106.941 472.224 106.891C471.387 105.67 469.357 106.84 470.22 108.06C470.27 108.111 470.296 108.187 470.347 108.238C470.702 108.746 471.362 109 471.945 108.645C472.021 108.594 472.123 108.543 472.199 108.492C472.757 108.162 472.91 107.475 472.605 106.891C472.224 106.128 471.641 106.001 470.93 105.594C469.255 104.603 467.834 103.433 466.743 101.807C464.739 98.8578 464.13 95.2735 464.992 91.8163C465.348 90.4182 463.114 89.8081 462.734 91.2571Z" fill="white"/>
<path d="M453.017 110.02C452.991 117.316 453.473 124.561 454.463 131.806C454.666 133.28 456.899 132.645 456.696 131.196C455.757 124.18 455.3 117.138 455.326 110.046C455.351 108.521 453.017 108.521 453.017 110.02Z" fill="white"/>
<path d="M437.054 99.0599C436.191 110.88 435.328 122.701 434.44 134.521C434.338 136.021 436.647 135.996 436.774 134.521C437.637 122.701 438.5 110.88 439.388 99.0599C439.49 97.5855 437.155 97.5855 437.054 99.0599Z" fill="white"/>
<path d="M468.165 140.978C465.576 141.08 463.115 141.588 460.704 142.554C459.334 143.088 459.943 145.35 461.313 144.791C463.521 143.901 465.779 143.393 468.139 143.291C469.662 143.24 469.662 140.902 468.165 140.978Z" fill="white"/>
<path d="M450.631 143.825C448.094 144.359 445.556 144.588 442.968 144.511C441.47 144.461 441.47 146.799 442.968 146.825C445.759 146.901 448.525 146.647 451.24 146.062C452.687 145.757 452.078 143.52 450.631 143.825Z" fill="white"/>
<path d="M432.283 144.007C429.263 144.287 426.243 144.567 423.224 144.846C421.752 144.973 421.727 147.312 423.224 147.16C426.243 146.88 429.263 146.6 432.283 146.321C433.755 146.194 433.755 143.88 432.283 144.007Z" fill="white"/>
<path d="M400.614 151.555C398.584 152.546 396.402 153.106 394.143 153.207C392.646 153.284 392.646 155.597 394.143 155.521C396.833 155.393 399.371 154.733 401.782 153.538C403.126 152.902 401.959 150.894 400.614 151.555Z" fill="white"/>
<path d="M404.067 116.628C409.395 118.993 415.156 114.29 413.405 108.545C412.973 107.121 410.715 107.731 411.172 109.155C412.263 112.765 408.837 116.222 405.259 114.62C403.889 114.036 402.696 116.018 404.067 116.628Z" fill="white"/>
<path d="M537.232 436L436.851 274.589L519.145 225.934L631.448 392.4L537.232 436Z" fill="#A28FFF"/>
<path d="M420.078 217.927C420.687 221.588 418.2 225.07 414.546 225.68C410.892 226.29 407.416 223.799 406.807 220.139C406.198 216.478 408.684 212.996 412.339 212.386C415.993 211.775 419.469 214.267 420.078 217.927Z" fill="white"/>
<path d="M433.781 215.082C434.39 218.742 431.904 222.225 428.249 222.835C424.595 223.445 421.119 220.954 420.51 217.293C419.901 213.633 422.388 210.15 426.042 209.54C429.721 208.93 433.172 211.396 433.781 215.082Z" fill="white"/>
<path d="M456.162 205.931C456.771 209.592 454.284 213.074 450.63 213.685C446.976 214.295 443.5 211.803 442.891 208.143C442.282 204.482 444.768 201 448.423 200.39C452.102 199.78 455.553 202.271 456.162 205.931Z" fill="white"/>
<path d="M475.398 197.819C476.007 201.479 473.52 204.962 469.866 205.572C466.211 206.182 462.735 203.691 462.126 200.03C461.517 196.37 464.004 192.887 467.658 192.277C471.337 191.667 474.789 194.133 475.398 197.819Z" fill="white"/>
<path d="M491.917 186.584C492.526 190.244 490.039 193.727 486.385 194.337C482.731 194.947 479.255 192.456 478.645 188.795C478.036 185.135 480.523 181.652 484.177 181.042C487.832 180.432 491.308 182.923 491.917 186.584Z" fill="white"/>
<path d="M129.372 355.604C131.96 351.359 193.218 250.059 195.781 245.814C208.595 224.715 217.959 202.014 227.018 179.034C236.179 155.775 231.231 128.066 214.33 110.043C213.569 109.23 210.422 107.756 209.331 107.501C207.073 106.993 204.992 109.408 204.967 111.721C204.941 114.034 206.286 116.144 207.656 118C209.94 121.127 212.452 124.203 213.671 127.888C214.889 131.574 214.483 136.099 211.564 138.641C207.352 138.921 205.423 133.557 204.764 129.388C202.353 114.314 200.374 98.6042 195.857 84.0129C194.791 80.5811 190.477 77.0731 187.178 78.4713C185.097 79.361 184.514 82.0047 184.26 84.2671C182.763 97.8924 184.691 111.416 185.884 125.092C185.402 113.882 182.839 102.926 182.357 91.7153C182.23 88.6902 182.534 84.5467 181.164 81.8522C179.794 79.1576 176.825 77.0223 173.881 77.5815C171.242 78.09 169.364 80.5811 168.73 83.174C168.07 85.7669 167.943 89.5291 168.222 92.1983C169.542 104.4 169.796 116.729 168.984 128.982C168.831 119.144 167.74 109.332 165.685 99.7227C165 96.5706 163.908 93.0117 160.99 91.6644C157.488 90.063 153.276 92.7575 151.753 96.2655C150.205 99.7735 150.586 103.79 150.789 107.628C152.464 137.574 150.408 186.076 37.8916 333.184L129.372 355.604Z" fill="#BDA193"/>
<path d="M172.789 78.4746C173.982 83.1011 172.46 87.7022 168.856 90.8035C167.714 91.7695 169.364 93.4218 170.506 92.4558C174.743 88.8461 176.418 83.2282 175.048 77.8645C174.667 76.4156 172.409 77.0256 172.789 78.4746Z" fill="#4B3425"/>
<path d="M187.532 80.354C189.334 83.9637 188.344 88.514 185.121 91.0052C183.954 91.8949 185.121 93.9285 186.288 93.0134C190.552 89.7087 191.922 84.04 189.537 79.1847C188.877 77.8374 186.872 79.0067 187.532 80.354Z" fill="#4B3425"/>
<path d="M157.183 91.8691C158.072 95.3263 157.437 98.8852 155.432 101.859C154.443 103.334 153.123 104.528 151.601 105.444C150.789 105.927 150.002 106.079 149.545 106.943C149.266 107.503 149.393 108.189 149.951 108.545C150.027 108.596 150.129 108.647 150.205 108.697C150.763 109.053 151.448 108.799 151.804 108.291C151.854 108.24 151.88 108.164 151.931 108.113C152.793 106.893 150.763 105.723 149.926 106.943C149.875 106.994 149.85 107.071 149.799 107.121C150.332 106.994 150.865 106.842 151.398 106.715C151.322 106.664 151.22 106.613 151.144 106.562C151.271 107.096 151.423 107.63 151.55 108.164C151.981 107.299 154.468 106.41 155.356 105.571C156.651 104.351 157.716 102.851 158.478 101.249C159.975 98.0971 160.279 94.6654 159.416 91.3099C159.061 89.8101 156.828 90.4202 157.183 91.8691Z" fill="#4B3425"/>
<path d="M166.852 110.018C166.877 117.11 166.446 124.152 165.482 131.168C165.279 132.642 167.512 133.252 167.715 131.778C168.679 124.559 169.187 117.314 169.161 109.993C169.161 108.518 166.827 108.518 166.852 110.018Z" fill="#4B3425"/>
<path d="M182.813 99.0599C183.676 110.88 184.538 122.701 185.427 134.521C185.528 135.996 187.863 136.021 187.736 134.521C186.873 122.701 186.01 110.88 185.122 99.0599C185.021 97.5855 182.711 97.5855 182.813 99.0599Z" fill="#4B3425"/>
<path d="M154.011 143.291C156.371 143.393 158.654 143.901 160.862 144.791C162.258 145.35 162.841 143.088 161.471 142.554C159.06 141.588 156.599 141.08 154.011 140.978C152.513 140.902 152.513 143.24 154.011 143.291Z" fill="white"/>
<path d="M170.936 146.062C173.677 146.647 176.418 146.901 179.209 146.825C180.706 146.774 180.706 144.461 179.209 144.511C176.621 144.588 174.083 144.384 171.545 143.825C170.099 143.52 169.49 145.757 170.936 146.062Z" fill="white"/>
<path d="M189.892 146.345C192.912 146.624 195.931 146.904 198.951 147.183C200.448 147.311 200.423 144.997 198.951 144.87C195.931 144.591 192.912 144.311 189.892 144.031C188.42 143.879 188.42 146.192 189.892 146.345Z" fill="white"/>
<path d="M220.37 153.564C222.781 154.759 225.319 155.42 228.008 155.547C229.506 155.623 229.506 153.285 228.008 153.234C225.75 153.132 223.568 152.573 221.538 151.582C220.218 150.895 219.025 152.903 220.37 153.564Z" fill="white"/>
<path d="M216.943 114.618C213.34 116.22 209.914 112.763 211.031 109.153C211.462 107.729 209.229 107.094 208.798 108.543C207.047 114.288 212.807 118.991 218.136 116.627C219.481 116.017 218.288 114.034 216.943 114.618Z" fill="#4B3425"/>
<path d="M185.325 274.589L103.031 225.934L87.6021 247.973C115.236 264.802 142.414 282.316 170.201 298.662L185.325 274.589Z" fill="white"/>
<path d="M87.6278 248.001L0 370.851L87.6278 427.48L170.226 298.689C142.44 282.344 115.237 264.829 87.6278 248.001Z" fill="#A28FFF"/>
<path d="M153.428 302.654C153.428 305.247 151.322 307.357 148.734 307.357C146.145 307.357 144.039 305.247 144.039 302.654C144.039 300.061 146.145 297.951 148.734 297.951C151.322 297.951 153.428 300.061 153.428 302.654Z" fill="#4B3425"/>
<path d="M144.038 320.297C144.038 322.89 141.932 325 139.344 325C136.756 325 134.649 322.89 134.649 320.297C134.649 317.704 136.756 315.594 139.344 315.594C141.932 315.594 144.038 317.704 144.038 320.297Z" fill="#4B3425"/>
<path d="M335.422 62.836C341.614 48.8802 351.003 36.7547 362.98 27.2983C364.148 26.3832 362.498 24.7309 361.331 25.646C349.227 35.2041 339.66 47.533 333.418 61.6413C332.809 63.014 334.813 64.2087 335.422 62.836Z" fill="white"/>
<path d="M375.213 20.0291C379.35 18.1734 383.664 16.9278 388.13 16.2414C389.602 16.0126 388.967 13.7757 387.521 14.0044C382.826 14.7162 378.36 16.0889 374.046 18.0463C372.676 18.6309 373.843 20.6392 375.213 20.0291Z" fill="white"/>
<path d="M211.081 28.3674C220.724 18.7331 233.97 13.9032 247.547 15.0217C249.044 15.1488 249.018 12.8102 247.547 12.7085C233.412 11.5391 219.481 16.6741 209.432 26.7151C208.392 27.7828 210.041 29.4097 211.081 28.3674Z" fill="white"/>
</svg>
