<svg width="16" height="12" viewBox="0 0 16 12" fill="none" xmlns="http://www.w3.org/2000/svg">
<path d="M6.1211 8.73125C7.39667 7.65237 9.26545 7.65237 10.541 8.73125C10.605 8.78927 10.6418 8.87142 10.6436 8.95782C10.6453 9.04428 10.6115 9.12771 10.5498 9.18828L8.55274 11.2039C8.49422 11.2631 8.41431 11.2967 8.33106 11.2967C8.24781 11.2967 8.16792 11.2631 8.10938 11.2039L6.11133 9.18828C6.04974 9.12769 6.01582 9.0442 6.01758 8.95782C6.01941 8.87137 6.05696 8.78923 6.1211 8.73125ZM3.45606 6.0418C6.20416 3.48576 10.4599 3.48581 13.208 6.0418C13.27 6.10165 13.3057 6.1842 13.3066 6.27032C13.3075 6.3565 13.2736 6.43961 13.2129 6.50079L12.0586 7.66778C11.9396 7.78688 11.7471 7.78953 11.625 7.67364C10.7226 6.85645 9.54851 6.40406 8.33106 6.40411C7.11438 6.40461 5.94094 6.85697 5.03907 7.67364C4.917 7.78946 4.72441 7.78686 4.60548 7.66778L3.45118 6.50079C3.39051 6.43972 3.35662 6.35641 3.35743 6.27032C3.35837 6.18419 3.3941 6.10164 3.45606 6.0418ZM0.791023 3.36016C5.00614 -0.67901 11.6561 -0.679261 15.8711 3.36016C15.932 3.4201 15.9662 3.50225 15.9668 3.5877C15.9673 3.67326 15.9333 3.7555 15.8731 3.81622L14.7168 4.98321C14.5977 5.10268 14.405 5.10393 14.2842 4.98614C12.6783 3.4594 10.5469 2.60833 8.33106 2.60821C6.11496 2.6082 3.98311 3.45925 2.37696 4.98614C2.25617 5.10413 2.06339 5.1029 1.94434 4.98321L0.788093 3.81622C0.727829 3.75545 0.69378 3.67328 0.694343 3.5877C0.694959 3.50219 0.730012 3.42008 0.791023 3.36016Z" fill="#4B3425"/>
</svg>
