<svg width="438" height="430" viewBox="0 0 438 430" fill="none" xmlns="http://www.w3.org/2000/svg">
<path d="M243.01 29.9578C245.438 38.5824 255.302 42.6691 263.112 38.2815C273.126 32.6404 285.218 40.9642 283.59 52.3467C282.314 61.222 289.649 68.9692 298.561 68.1167C310.002 67.0387 317.662 79.5745 311.554 89.3022C306.772 96.8989 310.352 106.953 318.839 109.811C329.704 113.496 331.656 128.063 322.093 134.456C314.658 139.445 313.832 150.076 320.416 156.168C328.852 163.965 324.697 178.056 313.381 180.011C304.569 181.541 299.487 190.917 303.017 199.166C307.573 209.721 298.035 220.903 286.92 218.095C278.233 215.889 269.797 222.407 269.671 231.358C269.546 242.866 256.303 249.209 247.266 242.089C240.231 236.548 229.867 239.055 226.137 247.203C221.355 257.658 206.66 258.059 201.303 247.88C197.122 239.957 186.633 238.002 179.923 243.944C171.312 251.541 157.743 245.924 156.967 234.442C156.366 225.491 147.579 219.449 139.042 222.132C128.077 225.566 117.964 214.886 121.944 204.105C125.048 195.681 119.466 186.58 110.553 185.552C99.1628 184.223 94.231 170.359 102.242 162.11C108.476 155.692 107.074 145.087 99.3881 140.523C89.5246 134.657 90.6511 119.99 101.316 115.728C109.627 112.393 112.656 102.164 107.474 94.8431C100.84 85.4663 107.825 72.5293 119.29 72.9806C128.228 73.3316 135.162 65.2084 133.385 56.4083C131.132 45.1261 142.773 36.1755 153.062 41.24C161.098 45.2013 170.711 40.5881 172.688 31.8381C175.217 20.6311 189.487 17.1713 196.822 25.9965C202.554 32.8911 213.219 32.5903 218.551 25.3947C225.436 16.2185 239.881 18.9012 243.01 29.9578Z" fill="#4B3425"/>
<path d="M384.203 300.53C374.815 267.636 345.901 244.169 311.829 241.763C233.847 236.222 100.69 234.216 72.426 264.452C63.1883 274.331 82.0391 256.379 72.426 264.452C29.1917 300.731 22.4575 388.732 22.4575 388.732L123.446 388.03L404.706 388.833C406.258 380.81 394.617 337.085 384.203 300.53Z" fill="#16572E"/>
<path d="M252.673 205.233L245.714 183.07C251.547 184.449 257.955 182.995 262.687 178.607C270.272 171.587 270.748 159.753 263.738 152.157C256.729 144.56 244.913 144.084 237.327 151.104C236.877 151.53 236.451 151.956 236.05 152.407L227.839 126.283C226.813 123.049 223.608 121.043 220.254 121.544C203.631 124.026 157.217 135.685 153.838 188.335C153.587 192.321 156.717 195.731 160.722 195.731L181.2 195.706L179.573 209.947C204.257 214.685 228.841 212.103 252.673 205.233Z" fill="#CFD9B5"/>
<path d="M252.673 205.233C228.866 212.128 204.257 214.685 179.598 209.947L174.742 252.493C172.288 273.929 184.755 294.639 205.158 301.583C206.11 301.909 207.086 302.21 208.062 302.511C243.411 312.79 275.78 278.768 264.715 243.593L252.673 205.233Z" fill="#16572E"/>
<path d="M189.261 137.791C179.147 143.031 169.008 148.246 158.895 153.485C157.568 154.162 157.443 156.093 158.419 157.096C161.423 160.155 164.402 163.188 167.406 166.247C169.484 168.353 172.713 165.119 170.636 163.013C167.632 159.954 164.652 156.92 161.648 153.862C161.498 155.065 161.348 156.268 161.173 157.472C171.287 152.232 181.425 147.017 191.539 141.777C194.193 140.398 191.865 136.437 189.261 137.791Z" fill="#4B3425"/>
<path d="M186.382 173.292C186.658 175.649 183.904 177.805 181.751 176.476C179.223 174.947 176.919 178.908 179.448 180.437C184.33 183.421 191.64 179.159 190.989 173.292C190.839 172.064 190.037 171.011 188.686 171.011C187.559 170.985 186.257 172.039 186.382 173.292Z" fill="#4B3425"/>
<path d="M253.524 160.43C249.594 161.759 245.663 163.088 241.733 164.417C238.954 165.369 240.156 169.782 242.96 168.829C246.89 167.501 250.82 166.172 254.751 164.843C257.53 163.915 256.328 159.478 253.524 160.43Z" fill="#4B3425"/>
<path d="M198.199 151.505C202.58 161.408 216.248 163.94 224.284 157.071C226.537 155.14 223.283 151.906 221.055 153.837C215.047 158.976 205.283 156.218 202.179 149.198C200.977 146.491 197.022 148.822 198.199 151.505Z" fill="#4B3425"/>
<path d="M201.954 153.335C200.276 155.04 198.574 156.72 196.897 158.425C194.819 160.506 198.048 163.765 200.126 161.659C201.803 159.954 203.506 158.274 205.183 156.569C207.286 154.488 204.057 151.254 201.954 153.335Z" fill="#4B3425"/>
<path d="M209.188 159.954C209.213 161.659 209.238 163.339 209.264 165.043C209.289 168.002 213.895 168.002 213.845 165.043C213.82 163.339 213.795 161.659 213.77 159.954C213.72 157.021 209.138 156.996 209.188 159.954Z" fill="#4B3425"/>
<path d="M218.201 159.904C218.752 161.408 219.278 162.937 219.828 164.442C220.254 165.595 221.381 166.397 222.657 166.046C223.784 165.745 224.685 164.392 224.259 163.213C223.709 161.709 223.183 160.18 222.632 158.675C222.207 157.497 221.08 156.72 219.803 157.071C218.677 157.397 217.801 158.75 218.201 159.904Z" fill="#4B3425"/>
<path d="M233.973 328.335C233.973 332.722 230.418 336.308 226.012 336.308C221.631 336.308 218.051 332.747 218.051 328.335C218.051 323.947 221.606 320.362 226.012 320.362C230.418 320.362 233.973 323.922 233.973 328.335Z" fill="#4B3425"/>
<path d="M118.765 303.163C93.2546 316.275 67.7447 329.388 42.2097 342.5C36.3517 345.509 30.4936 348.517 24.6356 351.526C15.0225 356.49 7.21175 363.034 2.98096 373.313C-0.774188 382.414 -1.22481 394.975 3.03102 404.051C7.43706 413.453 14.722 422.077 24.7608 425.738C34.2989 429.198 46.065 430.501 55.4528 425.688C71.4498 417.464 87.4717 409.241 103.469 400.992C126.475 389.158 149.482 377.35 172.488 365.516C159.32 342.35 146.252 319.108 133.91 295.391C128.853 297.998 123.796 300.58 118.765 303.163Z" fill="#16572E"/>
<path d="M197.573 352.629C207.186 347.69 214.996 341.146 219.227 330.867C222.982 321.766 223.433 309.205 219.177 300.129C214.771 290.727 207.486 282.103 197.447 278.442C187.909 274.982 196.246 261.218 186.858 266.057C175.893 271.698 144.85 289.775 133.885 295.391C146.227 319.133 159.27 342.375 172.463 365.516C174.967 364.237 177.495 362.934 179.998 361.655C185.856 358.646 191.714 355.638 197.573 352.629Z" fill="#CFD9B5"/>
<path d="M201.879 296.569C204.908 276.236 207.937 255.878 210.966 235.545C211.842 229.628 207.586 223.109 201.428 222.432C195.295 221.755 189.286 225.642 188.335 231.985C185.306 252.318 182.277 272.676 179.248 293.009C178.371 298.926 182.627 305.444 188.786 306.121C194.919 306.823 200.927 302.912 201.879 296.569Z" fill="#CFD9B5"/>
<path d="M202.98 296.87C205.258 281.501 207.561 266.107 209.839 250.738C211.191 241.612 216.048 227.221 204.757 222.182C200.777 220.402 195.87 221.129 192.34 223.586C187.959 226.619 187.284 231.182 186.558 236.147C184.279 251.541 181.976 266.909 179.698 282.303C179.473 283.758 181.701 284.359 181.901 282.905C183.754 270.495 185.581 258.084 187.434 245.674C187.884 242.69 188.31 239.707 188.761 236.748C189.161 234.066 189.261 231.132 190.638 228.7C193.467 223.736 200.577 221.856 205.333 225.115C211.016 229.026 209.864 235.269 208.988 241.161C208.112 247.103 207.211 253.07 206.335 259.012C204.482 271.422 202.655 283.808 200.802 296.218C200.552 297.722 202.755 298.324 202.98 296.87Z" fill="#4B3425"/>
<path d="M207.361 335.154C212.543 301.985 217.725 268.79 222.907 235.62C223.833 229.703 219.628 223.16 213.444 222.432C207.311 221.705 201.278 225.566 200.276 231.91C195.094 265.079 189.912 298.274 184.73 331.444C183.804 337.361 188.009 343.904 194.193 344.631C200.326 345.358 206.359 341.497 207.361 335.154Z" fill="#CFD9B5"/>
<path d="M214.27 302.386C216.173 289.549 218.101 276.712 220.003 263.901C220.954 257.483 221.906 251.064 222.857 244.646C223.533 240.033 225.16 234.843 223.783 230.205C221.63 222.934 213.995 219.324 207.035 222.106C203.531 223.511 200.752 226.419 199.675 230.054C197.948 235.896 197.698 242.565 196.796 248.607C194.618 263.174 192.465 277.715 190.287 292.282C190.062 293.736 192.29 294.338 192.49 292.884C194.543 279.069 196.596 265.255 198.649 251.44C199.6 245.047 200.226 238.528 201.503 232.185C202.73 226.093 208.963 221.755 215.172 223.862C222.607 226.394 222.106 234.066 221.155 240.308C220.153 246.978 219.177 253.647 218.176 260.291C216.123 274.105 214.07 287.919 212.017 301.759C211.842 303.213 214.045 303.84 214.27 302.386Z" fill="#4B3425"/>
<path d="M208.638 243.919C204.958 268.639 201.278 293.36 197.598 318.081C196.721 323.997 200.977 330.516 207.136 331.193C213.269 331.87 219.277 327.984 220.229 321.641C223.909 296.92 227.589 272.2 231.269 247.479C232.145 241.562 227.889 235.043 221.731 234.366C215.597 233.69 209.589 237.576 208.638 243.919Z" fill="#CFD9B5"/>
<path d="M219.402 334.954C223.483 307.601 227.538 280.247 231.619 252.894C232.395 247.755 233.321 242.941 230.142 238.378C227.238 234.216 222.356 232.386 217.4 233.464C205.834 235.971 206.56 250.136 205.183 259.413C203.13 273.278 201.052 287.142 198.999 301.032C198.774 302.486 201.002 303.088 201.202 301.634C202.729 291.304 204.282 280.975 205.809 270.645C206.635 265.004 207.486 259.363 208.312 253.747C208.988 249.184 208.863 242.841 211.992 239.205C216.699 233.765 225.436 234.392 228.915 240.81C231.644 245.874 229.291 252.869 228.49 258.235C226.662 270.52 224.835 282.83 223.007 295.115C221.055 308.177 219.127 321.265 217.174 334.327C216.974 335.781 219.177 336.408 219.402 334.954Z" fill="#4B3425"/>
<path d="M319.239 304.341C344.749 317.454 370.259 330.566 395.794 343.679C401.652 346.687 407.51 349.696 413.368 352.704C422.981 357.643 430.792 364.187 435.023 374.466C438.778 383.567 439.229 396.128 434.973 405.204C430.567 414.606 423.282 423.256 413.243 426.891C403.705 430.351 391.939 431.655 382.551 426.841C366.554 418.618 350.532 410.394 334.535 402.145C311.529 390.312 288.522 378.503 265.516 366.669C278.684 343.503 291.752 320.262 304.093 296.544C309.15 299.151 314.207 301.759 319.239 304.341Z" fill="#16572E"/>
<path d="M240.431 353.782C230.818 348.843 223.007 342.3 218.776 332.02C215.021 322.919 214.571 310.358 218.826 301.282C223.232 291.881 230.517 283.231 240.556 279.596C250.094 276.136 241.758 262.371 251.146 267.21C262.111 272.851 293.153 290.928 304.118 296.569C291.776 320.312 278.733 343.553 265.54 366.694C263.037 365.416 260.509 364.112 258.005 362.833C252.147 359.825 246.289 356.816 240.431 353.782Z" fill="#CFD9B5"/>
<path d="M236.125 297.747C233.096 277.414 230.067 257.056 227.038 236.723C226.161 230.806 230.417 224.288 236.576 223.611C242.709 222.934 248.717 226.82 249.669 233.163C252.698 253.496 255.727 273.854 258.756 294.187C259.632 300.104 255.376 306.623 249.218 307.3C243.085 307.977 237.076 304.091 236.125 297.747Z" fill="#CFD9B5"/>
<path d="M237.227 297.447C235.374 285.036 233.547 272.651 231.694 260.24C230.818 254.298 229.917 248.331 229.041 242.389C228.165 236.497 226.988 230.255 232.696 226.343C237.452 223.059 244.537 224.965 247.391 229.929C248.768 232.311 248.868 235.294 249.268 237.977C249.719 240.96 250.145 243.944 250.595 246.902C252.448 259.313 254.275 271.723 256.128 284.134C256.353 285.588 258.556 284.961 258.331 283.532C256.053 268.138 253.75 252.769 251.471 237.375C250.72 232.411 250.07 227.848 245.689 224.814C242.159 222.357 237.252 221.63 233.272 223.41C221.956 228.449 226.838 242.816 228.19 251.967C230.468 267.336 232.771 282.729 235.049 298.098C235.224 299.502 237.452 298.876 237.227 297.447Z" fill="#4B3425"/>
<path d="M230.643 336.333C225.461 303.163 220.279 269.968 215.097 236.798C214.17 230.881 218.376 224.338 224.56 223.611C230.693 222.884 236.726 226.745 237.728 233.088C242.91 266.257 248.092 299.452 253.274 332.622C254.2 338.539 249.994 345.083 243.811 345.81C237.677 346.537 231.644 342.676 230.643 336.333Z" fill="#CFD9B5"/>
<path d="M225.936 302.937C223.884 289.123 221.831 275.308 219.778 261.469C218.827 255.05 217.875 248.632 216.924 242.214C215.973 235.795 215.047 227.672 222.807 225.04C228.64 223.059 235.074 226.945 236.376 232.837C237.778 239.306 238.379 246.05 239.33 252.593C241.383 266.408 243.435 280.222 245.488 294.037C245.714 295.491 247.917 294.864 247.691 293.435C245.789 280.598 243.861 267.762 241.958 254.95C241.007 248.532 240.056 242.114 239.105 235.695C238.479 231.558 237.678 227.973 234.298 225.215C228.39 220.376 219.428 221.68 215.497 228.324C213.144 232.311 213.695 236.222 214.346 240.584C215.297 247.002 216.248 253.421 217.2 259.839C219.377 274.406 221.53 288.947 223.708 303.514C223.934 305.018 226.162 304.391 225.936 302.937Z" fill="#4B3425"/>
<path d="M229.366 245.097C233.046 269.818 236.726 294.538 240.406 319.259C241.282 325.176 237.026 331.694 230.868 332.371C224.735 333.048 218.726 329.162 217.775 322.819C214.095 298.098 210.415 273.378 206.735 248.657C205.859 242.74 210.115 236.222 216.273 235.545C222.406 234.868 228.415 238.754 229.366 245.097Z" fill="#CFD9B5"/>
<path d="M220.804 335.505C217.249 311.662 213.695 287.794 210.165 263.951C209.364 258.51 207.786 252.644 207.786 247.153C207.761 239.807 214.871 234.742 221.756 237.375C227.814 239.707 228.29 245.423 229.116 251.014C229.917 256.429 230.718 261.845 231.544 267.26C233.296 279.094 235.074 290.928 236.826 302.787C237.052 304.241 239.255 303.614 239.029 302.185C237.202 289.975 235.399 277.765 233.572 265.53C232.696 259.588 231.794 253.646 230.918 247.704C230.142 242.565 228.64 238.127 223.683 235.695C213.544 230.731 204.357 239.682 205.784 249.936C207.661 263.324 209.764 276.662 211.742 290.025C214.02 305.394 216.323 320.738 218.601 336.107C218.802 337.586 221.03 336.959 220.804 335.505Z" fill="#4B3425"/>
<path d="M31.6453 349.244C61.0355 333.55 90.4508 317.855 119.841 302.16C123.997 299.929 128.152 297.722 132.308 295.491C133.61 294.789 132.458 292.808 131.157 293.51C101.766 309.205 72.351 324.9 42.9608 340.595C38.8051 342.826 34.6494 345.032 30.4937 347.264C29.1669 347.966 30.3435 349.946 31.6453 349.244Z" fill="#4B3425"/>
<path d="M391.288 340.093C365.978 326.931 340.694 313.743 315.384 300.58C311.854 298.75 308.324 296.895 304.769 295.065C303.468 294.388 302.291 296.368 303.618 297.045C328.927 310.208 354.212 323.396 379.522 336.558C383.052 338.388 386.581 340.244 390.136 342.074C391.438 342.751 392.59 340.77 391.288 340.093Z" fill="#4B3425"/>
<path d="M48.8189 326.73C54.2263 328.209 59.6337 329.664 65.0661 331.143C66.4931 331.519 67.0939 329.313 65.6669 328.936C60.2595 327.457 54.8521 326.003 49.4197 324.524C47.9927 324.123 47.3919 326.329 48.8189 326.73Z" fill="#4B3425"/>
<path d="M368.282 329.137C372.612 327.783 376.843 326.154 380.974 324.248C382.301 323.646 381.149 321.666 379.822 322.267C375.867 324.073 371.811 325.627 367.681 326.931C366.279 327.357 366.88 329.588 368.282 329.137Z" fill="#4B3425"/>
<path d="M318.964 115.878C323.169 125.029 334.735 124.528 341.77 119.213C349.305 113.496 356.891 101.236 353.586 91.4834C351.133 84.2377 340.068 79.8502 335.887 88.2241C334.084 91.8093 335.511 96.0965 338.29 98.7792C341.845 102.189 347.277 102.766 351.959 102.916C363.049 103.292 376.017 98.3029 377.719 85.8924C378.12 83.0092 373.714 81.7556 373.313 84.6639C372.061 93.6646 363.55 97.9268 355.213 98.3029C351.258 98.4784 346.351 98.5034 342.821 96.4225C340.894 95.2943 339.292 93.2133 339.842 90.9318C340.393 88.5751 343.122 87.7979 345.225 88.4748C349.531 89.8788 350.156 95.2943 349.43 99.055C348.554 103.568 346.026 108.031 343.122 111.541C338.39 117.232 327.25 122.948 322.944 113.521C321.667 110.889 317.737 113.22 318.964 115.878Z" fill="#4B3425"/>
<path d="M72.0507 54.7536C71.2245 65.5845 80.2369 74.9613 91.1518 73.8832C101.816 72.8052 109.076 62.3002 106.348 51.8954C105.346 48.1096 102.167 43.6469 97.811 46.1039C93.455 48.5609 92.5287 55.1046 93.1296 59.5423C94.8069 71.8274 106.222 78.1203 117.037 81.3295C119.866 82.1819 121.068 77.7443 118.264 76.9169C111.505 74.9112 104.27 71.9527 100.264 65.8102C98.2616 62.7264 97.0599 58.7901 97.6608 55.0795C97.7859 54.3525 97.9612 53.6003 98.2366 52.9234C98.537 52.096 99.8137 50.1154 101.015 50.692C102.117 51.2185 102.342 55.4807 102.342 56.283C102.392 63.7042 96.384 69.596 88.9739 69.3954C81.2383 69.1948 76.0812 62.1748 76.632 54.7536C76.8573 51.8202 72.276 51.8202 72.0507 54.7536Z" fill="#4B3425"/>
<path d="M76.0311 229.302C81.8641 234.818 91.1268 235.846 97.9612 231.483C101.691 229.101 103.944 225.341 105.496 221.304C107.049 217.167 108.951 211.601 106.473 207.414C104.745 204.481 100.69 202.576 97.5356 204.381C94.3312 206.211 93.8806 210.348 94.8819 213.557C97.3353 221.505 106.548 225.466 114.284 225.065C125.274 224.488 133.585 216.164 139.518 207.64C141.195 205.208 137.24 202.927 135.563 205.334C131.232 211.551 125.624 217.669 118.114 219.825C112.005 221.58 103.994 220.051 100.339 214.409C99.6635 213.356 98.587 211.451 98.9625 210.122C100.064 206.186 102.367 209.495 102.793 210.874C103.193 212.178 102.993 213.382 102.718 214.685C101.967 218.446 100.465 222.783 97.811 225.642C92.9793 230.831 84.2924 230.806 79.2605 226.018C77.1326 224.012 73.8782 227.271 76.0311 229.302Z" fill="#4B3425"/>
<path d="M267.168 49.5889C263.012 42.97 263.588 33.7687 269.571 28.3783C274.728 23.74 287.07 21.5839 291.226 28.8296C292.628 31.2866 291.601 34.6211 288.247 33.894C285.643 33.3174 284.466 30.6347 284.266 28.2028C283.941 24.3919 285.393 20.4306 287.32 17.2214C291.226 10.753 298.11 6.31528 305.62 5.58821C308.524 5.31242 308.549 0.724318 305.62 1.00011C296.433 1.85254 288.147 6.94207 283.365 14.8898C279.359 21.5337 276.631 34.596 286.169 38.0308C289.523 39.2343 293.554 38.4571 295.507 35.273C297.96 31.3117 296.107 26.4728 292.803 23.6648C285.768 17.7479 274.578 18.7006 267.593 24.091C259.157 30.6097 257.655 43.0452 263.212 51.8954C264.79 54.4026 268.745 52.096 267.168 49.5889Z" fill="#4B3425"/>
</svg>
