<svg width="131" height="56" viewBox="0 0 131 56" fill="none" xmlns="http://www.w3.org/2000/svg">
<path d="M8.22493 55.5665C2.29454 53.1283 -1.23164 45.9221 0.397883 39.664C2.05412 33.4059 8.67906 28.9629 15.0101 29.857C18.2692 30.3175 21.2077 31.9701 24.066 33.5955C27.699 35.6545 31.3321 37.7405 34.9651 39.7994C25.9092 36.5756 21.5282 25.2514 23.505 15.7153C24.9476 8.86124 29.569 2.30516 36.2474 0.517139C41.6969 -0.945787 47.4937 0.896418 52.4891 3.52427C68.0097 11.5975 78.882 26.4705 88.1249 41.4791C85.2398 37.4425 88.4455 31.2386 93.1203 29.6131C97.7952 28.0147 102.924 29.6944 107.332 31.9159C117.162 36.9007 125.337 46.4368 131 56L8.22493 55.5665Z" fill="#F2F5EB"/>
</svg>
