<svg width="142" height="55" viewBox="0 0 142 55" fill="none" xmlns="http://www.w3.org/2000/svg">
<path d="M8.91618 54.5502C2.48748 52.1727 -1.35057 45.0723 0.440514 38.9357C2.2316 32.7991 9.42792 28.3975 16.2724 29.2971C19.7906 29.7469 22.989 31.3855 26.0914 32.9919C30.0254 35.016 33.9593 37.0401 37.8933 39.0963C28.0744 35.9156 23.3088 24.7991 25.4837 15.4497C27.0189 8.73479 32.0723 2.27694 39.3006 0.50987C45.2176 -0.935918 51.4864 0.895413 56.9236 3.4657C73.747 11.4015 85.5489 26.02 95.5598 40.7349C92.4254 36.7509 95.9116 30.6786 100.965 29.0722C106.018 27.4979 111.584 29.1365 116.349 31.3533C127 36.269 135.891 45.6184 142 55L8.91618 54.5502Z" fill="#F2F5EB"/>
</svg>
