<svg width="159" height="67" viewBox="0 0 159 67" fill="none" xmlns="http://www.w3.org/2000/svg">
<path d="M9.93428 66.2109C2.78363 63.3262 -1.50269 54.7129 0.488114 47.2576C2.47892 39.8022 10.5031 34.5002 18.1413 35.5565C22.0619 36.105 25.6373 38.0755 29.0907 40.0257C33.4786 42.4837 37.8665 44.9418 42.2544 47.3998C31.3253 43.5401 26.0232 30.0717 28.4203 18.716C30.147 10.5496 35.7538 2.74888 43.8186 0.615871C50.4004 -1.13116 57.3886 1.08311 63.4626 4.1912C82.2127 13.8202 95.3561 31.514 106.509 49.3906C103.015 44.5761 106.895 37.1817 112.542 35.2721C118.169 33.3626 124.385 35.3534 129.708 38.0146C141.571 43.9667 151.464 55.3021 158.29 66.6984L9.93428 66.2109Z" fill="#F2F5EB"/>
</svg>
