<svg width="678" height="597" viewBox="0 0 678 597" fill="none" xmlns="http://www.w3.org/2000/svg">
<path d="M413.648 393.591C421.79 402.556 434.381 394.917 438.294 385.889C441.387 378.787 441.955 370.612 443.028 363.036C444.258 354.513 445.363 345.99 446.373 337.468C450.065 306.06 454.357 273.232 447.004 242.013C445.395 235.258 438.61 206.029 426.397 213.51C424.819 214.488 426.271 216.982 427.849 216.003C439.02 209.185 446.467 253.945 447.099 260.037C448.74 276.041 448.014 292.203 446.625 308.206C445.079 325.662 443.028 343.086 440.566 360.416C439.493 368.023 438.957 376.167 436.243 383.396C433.403 391.003 423.147 399.747 415.731 391.571C414.437 390.182 412.418 392.202 413.648 393.591Z" fill="#FFCE5C"/>
<path d="M98.237 314.204C91.0736 299.747 92.4621 283.396 96.5645 268.244C100.541 253.566 106.6 239.141 113.984 225.852C128.405 199.936 151.757 177.114 182.336 173.232C184.166 173.011 184.166 170.107 182.336 170.359C150.685 174.4 126.48 197.506 111.491 224.431C103.475 238.825 96.8485 254.703 92.967 270.706C89.3064 285.732 88.7384 301.546 95.7756 315.687C96.5645 317.329 99.0575 315.845 98.237 314.204Z" fill="#FFCE5C"/>
<path d="M671.973 339.046C659.918 338.225 647.264 337.184 638.049 338.257C618.137 340.561 599.518 349.179 580.174 354.387C560.293 359.721 539.655 361.489 519.143 363.194C504.185 364.456 489.227 365.719 474.237 365.719C460.51 365.75 446.783 364.772 433.119 363.541C411.439 361.615 389.349 359.564 367.196 356.817C317.115 350.631 266.877 340.971 221.151 321.653C210.043 316.95 199.061 311.931 188.237 306.597C137.241 281.47 89.5902 249.4 46.9884 211.489C30.9575 197.222 15.6524 182.165 1.13625 166.319L1.07314 166.256C-1.8301 163.068 1.64116 158.144 5.55422 159.88L26.8551 169.318C30.2317 170.801 34.271 170.328 36.9849 167.803C40.2668 164.741 39.1308 160.921 37.8369 157.575C33.6083 146.591 27.7387 136.269 23.7941 125.189C21.5851 118.939 19.9126 109.122 19.6286 99.7473C19.4708 94.4758 26.6027 92.9291 28.5592 97.7902C32.2514 106.944 42.2233 123.895 51.3748 135.7C52.8896 137.658 55.8559 135.637 54.6568 133.459C46.8622 119.507 38.1525 101.389 37.5214 91.2877C37.332 88.1627 39.541 85.2902 42.6336 85.0061C46.5782 84.6273 48.2823 88.9834 49.4183 92.4872C53.6154 105.271 60.337 117.487 71.0032 125.473C66.0804 117.866 60.7472 107.197 58.0649 98.4531C56.5502 93.5288 62.9878 90.1829 65.9857 94.318C69.1414 98.674 72.1393 105.177 74.2851 108.933C86.5292 130.271 102.718 149.274 121.778 164.615C133.517 174.084 146.298 182.133 159.015 190.183C182.809 205.176 210.359 219.097 238.381 229.671C254.349 235.637 270.443 240.561 286.064 244.002C307.775 248.768 329.928 251.799 352.27 253.756C386.383 256.755 420.875 257.291 454.767 257.765C502.134 258.427 550.857 258.522 595.069 241.224C604.283 237.626 622.555 231.218 638.996 227.272C643.887 226.104 646.222 233.175 641.615 235.227C628.771 241.003 614.003 247.222 601.822 251.578C600.055 252.209 598.666 253.693 598.351 255.555C597.625 259.879 604.378 258.996 608.701 257.891L661.685 244.381C667.271 242.96 670.963 250.063 666.671 253.945C664.21 256.155 661.149 258.017 658.277 259.311C647.327 264.236 630.097 269.949 615.17 275.378C610.342 277.146 612.236 284.501 617.285 283.585C632.022 280.965 653.512 274.652 671.531 269.728C677.148 268.181 680.462 275.883 675.57 279.071C663.011 287.184 649.82 293.749 636.03 299.368C619.525 306.123 622.807 319.854 634.42 321.843C641.016 322.979 647.201 323.579 651.272 323.61C657.173 323.674 666.261 325.41 674.213 328.535C679.957 330.839 678.032 339.456 671.973 339.046Z" fill="#FEAF8F"/>
<path d="M246.838 270.138C253.402 290.34 273.851 296.117 289.408 289.393C305.597 282.765 318.22 267.518 327.371 251.104C311.814 249.179 294.994 247.948 279.815 244.002C268.833 241.161 257.599 237.279 246.365 232.638C242.957 244.791 243.619 258.049 246.838 270.138Z" fill="#FEAF8F"/>
<path d="M369.153 362.973C368.49 360.952 367.828 358.901 367.165 356.817C361.422 338.793 355.994 319.538 354.668 300.915C353.248 280.965 352.522 265.561 352.238 253.756C348.231 253.408 331.316 251.515 327.34 251.073C316.611 267.487 310.646 280.586 291.618 287.184C273.346 293.907 254.98 290.309 247.28 270.107C243.493 258.017 242.704 244.76 246.744 232.638C243.935 231.66 241.158 230.65 238.35 229.608C222.003 243.213 209.254 261.142 199.787 280.018C195.432 288.667 191.582 297.537 188.206 306.596C173.816 344.949 167.504 386.363 165.863 427.019C163.591 483.49 166.116 541.35 176.088 597L525.675 583.553C458.68 520.232 398.185 452.272 369.153 362.973Z" fill="#FFCE5C"/>
<path d="M293.29 200.883C286.632 194.507 287.074 182.512 294.174 176.515C298.055 173.232 303.357 171.717 306.86 168.087C314.97 159.69 309.416 146.306 309.574 134.848C309.7 123.737 316.989 113.983 326.141 107.197C342.771 94.7914 353.722 101.641 367.039 96.9379C398.817 85.7321 393.483 68.0238 406.201 54.7031C418.918 41.414 438.42 36.4266 457.039 36.395C470.861 36.395 483.831 43.7183 497.653 43.3079C513.778 42.8344 515.072 24.6842 545.872 22.9165C567.299 21.717 588.063 33.2701 598.035 51.6728C608.039 70.0755 602.863 100.536 585.412 112.815C572.695 121.748 546.913 125.505 531.419 123.611C515.198 121.622 505.731 109.343 492.288 118.434C476.857 128.851 476.478 152.335 461.678 163.541C450.096 172.316 433.813 170.643 419.265 168.939C404.749 167.234 388.087 166.572 377.547 176.515C370.384 183.301 366.944 194.349 357.572 197.695C344.444 202.367 329.044 188.352 316.926 195.17C313.676 197.001 311.372 200.094 308.343 202.272C305.313 204.45 300.738 205.523 297.992 203.061L293.29 200.883Z" fill="#4B3425"/>
<path d="M295.973 181.439C304.461 174.873 306.165 163.983 305.376 153.819C304.272 139.362 299.917 124.147 311.404 112.5C329.36 94.3179 358.771 99.3684 378.557 84.3432C389.413 76.1046 392.852 62.4367 401.941 52.6829C411.281 42.6451 424.378 36.2688 438.073 35.2903C460.826 33.6805 492.572 46.717 509.676 24.7158C514.977 17.8661 517.912 2.14644 505.984 0.157803C502.292 -0.441943 497.81 1.04164 496.296 4.73481C494.749 8.52268 498.883 10.9848 502.228 9.91157C503.996 9.34339 503.238 6.56562 501.471 7.1338C500.714 6.53405 499.988 5.90274 499.231 5.30299C500.019 4.1982 501.061 3.50376 502.355 3.15653C503.743 2.71462 505.416 2.77775 506.773 3.2828C510.181 4.54542 511.569 8.36486 511.601 11.7108C511.664 17.361 508.382 22.6325 504.248 26.2625C496.043 33.4279 484.367 35.2272 473.859 34.8168C460.857 34.3118 447.919 31.0921 434.886 32.7019C425.324 33.9014 416.11 37.5946 408.315 43.2448C400.016 49.2739 394.462 57.0074 389.476 65.8774C386.478 71.1804 383.417 76.4518 378.778 80.4607C374.202 84.4064 368.743 87.121 363.094 89.1412C344.854 95.7068 322.449 96.0856 308.501 111.363C300.548 120.107 299.822 131.06 301.148 142.329C302.536 154.356 305.724 170.328 294.552 178.914C293.069 180.05 294.489 182.544 295.973 181.439Z" fill="#4B3425"/>
<path d="M339.269 191.698C348.767 196.369 360.033 195.738 368.648 189.393C373.319 185.953 376.948 181.06 382.06 178.188C389.223 174.179 397.428 175.505 405.033 177.462C417.056 180.524 428.48 183.87 441.04 182.26C451.674 180.902 461.078 176.231 468.273 168.213C475.847 159.753 481.022 148.926 490.395 142.203C501.755 134.059 516.682 134.848 529.715 137.531C552.53 142.171 580.521 154.04 599.739 134.248C604.915 128.914 613.151 113.857 603.368 109.185C600.181 107.67 595.952 107.828 593.807 110.953C591.787 113.92 592.481 117.992 595.605 119.76C597.215 120.675 598.666 118.182 597.057 117.266C592.702 114.804 597.72 110.48 601.033 111.363C603.021 111.9 604.252 113.194 604.662 115.404C605.072 117.74 604.41 120.549 603.652 122.727C601.917 127.935 598.161 132.354 593.807 135.606C584.876 142.266 573.926 143.371 563.133 142.045C542.274 139.457 521.51 128.567 500.177 134.438C481.401 139.615 475.721 158.238 462.341 170.075C454.23 177.241 443.501 179.955 432.866 179.829C422.011 179.671 412.26 175.852 401.751 173.705C391.243 171.559 382.533 173.106 374.518 180.334C370.068 184.311 366.092 188.604 360.286 190.593C353.816 192.803 346.842 192.203 340.752 189.204C339.048 188.383 337.596 190.877 339.269 191.698Z" fill="#4B3425"/>
<path d="M187.764 320.359C176.688 308.996 158.227 310.479 142.701 313.825C127.175 317.171 109.976 321.338 96.2805 313.32C95.3338 309.564 98.7104 305.997 102.276 304.482C105.874 302.966 109.913 302.588 113.227 300.536C124.051 293.781 119.349 275.599 128.121 266.319C135.19 258.869 148.917 259.564 154.061 250.662C160.152 240.119 149.138 224.021 157.88 215.561C160.12 213.383 163.213 212.373 165.99 211.016C180.664 203.914 188.237 184.911 182.526 169.633C189.216 169.413 195.275 173.958 199.093 179.45C202.911 184.943 205.026 191.414 207.771 197.506C213.514 210.164 227.494 220.959 238.35 229.64C239.77 230.776 236.078 232.449 236.709 234.154C237.308 235.795 236.993 237.594 236.646 239.299C233.206 257.039 229.703 274.905 222.887 291.634C216.071 308.364 205.562 324.052 190.604 334.216L187.764 320.359Z" fill="#FFCE5C"/>
<path d="M345.043 260.132C366.376 236.268 396.418 219.507 428.89 213.352C417.782 222.38 405.664 233.775 407.368 247.506C407.873 251.515 409.577 255.46 409.104 259.501C407.684 271.653 387.866 277.525 389.16 289.677C390.012 297.758 400.394 303.251 399.826 311.363C399.258 319.317 388.182 324.81 389.728 332.638C390.706 337.594 396.386 340.372 399.132 344.696C403.171 351.041 400.268 359.122 400.836 366.476C401.593 376.641 411.092 391.95 421.569 394.349C390.359 395.296 358.076 372.632 342.929 346.937C327.75 321.243 329.202 287.594 346.526 263.131L345.043 260.132Z" fill="#FFCE5C"/>
<path d="M374.518 376.83C352.712 362.626 331.379 346.969 325.699 319.98C320.334 294.539 331.001 268.213 351.986 253.061C353.09 252.241 352.017 250.378 350.881 251.199C329.991 266.287 318.851 291.887 323.017 317.455C327.75 346.559 350.187 363.604 373.413 378.692C374.612 379.45 375.685 377.588 374.518 376.83Z" fill="#4B3425"/>
<path d="M184.861 320.927C196.537 287.91 214.082 255.965 238.223 230.397C239.17 229.387 237.655 227.84 236.677 228.882C212.284 254.766 194.58 286.994 182.778 320.359C182.305 321.653 184.387 322.222 184.861 320.927Z" fill="#4B3425"/>
<path d="M168.546 300.347C170.881 300.22 172.964 300.852 174.889 302.177C176.025 302.966 177.129 301.104 175.993 300.315C173.816 298.8 171.228 298.042 168.577 298.2C167.157 298.232 167.157 300.41 168.546 300.347Z" fill="#4B3425"/>
<path d="M174.762 284.217C177.192 286.584 179.78 288.73 182.525 290.687C183.661 291.508 184.734 289.614 183.63 288.825C181.011 286.963 178.581 284.911 176.309 282.67C175.267 281.723 173.752 283.238 174.762 284.217Z" fill="#4B3425"/>
<path d="M206.824 239.709C210.043 241.13 213.293 242.518 216.512 243.939C217.774 244.475 218.879 242.613 217.616 242.076C214.398 240.656 211.147 239.267 207.929 237.847C206.666 237.31 205.562 239.172 206.824 239.709Z" fill="#4B3425"/>
<path d="M216.102 233.364C217.017 236.174 218.879 238.51 221.467 239.93C222.697 240.593 223.77 238.731 222.571 238.068C220.488 236.9 218.942 235.069 218.185 232.796C217.775 231.47 215.692 232.039 216.102 233.364Z" fill="#4B3425"/>
<path d="M220.93 222.601C222.287 226.041 224.465 228.851 227.431 231.029C228.567 231.849 229.64 229.987 228.535 229.166C226.074 227.335 224.149 224.873 223.045 222.032C222.508 220.738 220.394 221.306 220.93 222.601Z" fill="#4B3425"/>
<path d="M342.866 269.097C345.801 268.371 348.736 267.645 351.67 266.919C353.027 266.571 352.459 264.488 351.102 264.835C348.168 265.561 345.233 266.287 342.298 267.013C340.941 267.329 341.509 269.412 342.866 269.097Z" fill="#4B3425"/>
<path d="M338.606 280.744C341.856 280.334 345.012 280.586 348.168 281.565C349.493 281.975 350.061 279.892 348.736 279.482C345.422 278.44 342.045 278.156 338.606 278.566C337.249 278.756 337.217 280.934 338.606 280.744Z" fill="#4B3425"/>
<path d="M331.821 327.651C334.061 329.987 336.302 332.323 338.542 334.69C339.521 335.7 341.035 334.153 340.089 333.175C337.848 330.839 335.608 328.503 333.367 326.136C332.389 325.094 330.874 326.641 331.821 327.651Z" fill="#4B3425"/>
<path d="M332.389 322.158C335.355 322.695 338.322 323.232 341.288 323.8C342.645 324.052 343.244 321.969 341.856 321.716C338.89 321.18 335.923 320.643 332.957 320.075C331.6 319.822 331 321.906 332.389 322.158Z" fill="#4B3425"/>
<path d="M331.222 312.91C333.841 314.33 336.649 315.088 339.584 315.151C340.973 315.182 340.973 313.036 339.584 312.973C336.997 312.91 334.567 312.247 332.295 311.016C331.064 310.384 329.991 312.247 331.222 312.91Z" fill="#4B3425"/>
<path d="M1.04146 161.426C3.97625 163.32 5.17541 166.887 4.16559 170.202C3.75535 171.527 5.83811 172.096 6.24835 170.77C7.57374 166.508 5.83811 161.963 2.14595 159.532C0.978346 158.775 -0.126146 160.669 1.04146 161.426Z" fill="#4B3425"/>
<path d="M23.5418 96.5276C21.2066 101.452 24.5201 107.418 29.9163 108.112C31.3048 108.302 31.2733 106.124 29.9163 105.934C26.2241 105.461 23.8258 100.947 25.4352 97.6008C26.0348 96.3697 24.1414 95.2965 23.5418 96.5276Z" fill="#4B3425"/>
<path d="M42.8229 88.7624C41.5607 92.4556 43.7065 96.5591 47.3987 97.7586C48.7241 98.2005 49.2921 96.1172 47.9667 95.6753C45.3475 94.823 44.0221 91.8874 44.9057 89.3306C45.3475 88.0364 43.2647 87.4682 42.8229 88.7624Z" fill="#4B3425"/>
<path d="M59.5478 94.1601C60.6523 97.9165 63.24 101.01 66.7428 102.778C67.9735 103.409 69.078 101.547 67.8473 100.915C64.8178 99.4 62.6089 96.8432 61.6621 93.592C61.2204 92.2347 59.1376 92.8028 59.5478 94.1601Z" fill="#4B3425"/>
<path d="M55.8242 158.933C58.4434 157.923 61.0626 156.944 63.6818 155.934C64.9757 155.429 64.4076 153.346 63.1138 153.851C60.4946 154.861 57.8754 155.839 55.2561 156.849C53.9623 157.323 54.5303 159.438 55.8242 158.933Z" fill="#FFCE5C"/>
<path d="M75.5473 151.168C78.135 150.126 80.7542 149.084 83.3419 148.043C84.6041 147.538 84.0677 145.423 82.7738 145.959C80.1862 147.001 77.5669 148.043 74.9793 149.084C73.6854 149.589 74.2535 151.673 75.5473 151.168Z" fill="#FFCE5C"/>
<path d="M93.1562 146.117C94.7971 145.486 96.4381 144.823 98.0791 144.192C99.3729 143.687 98.8049 141.603 97.511 142.108C95.8701 142.74 94.2291 143.402 92.5882 144.034C91.2943 144.507 91.8624 146.622 93.1562 146.117Z" fill="#FFCE5C"/>
<path d="M589.357 300.504C590.304 303.787 591.282 307.07 592.229 310.353C592.607 311.679 594.722 311.11 594.311 309.785C593.365 306.502 592.386 303.219 591.44 299.936C591.029 298.579 588.947 299.147 589.357 300.504Z" fill="#FFCE5C"/>
<path d="M581.373 275.978C582.036 278.282 582.698 280.555 583.329 282.859C583.708 284.185 585.791 283.617 585.412 282.291C584.75 279.987 584.087 277.714 583.456 275.41C583.077 274.052 580.994 274.621 581.373 275.978Z" fill="#FFCE5C"/>
<path d="M572.727 251.609C573.989 254.576 575.251 257.544 576.514 260.511C577.05 261.773 578.912 260.7 578.376 259.406C577.113 256.439 575.851 253.472 574.589 250.504C574.052 249.242 572.19 250.347 572.727 251.609Z" fill="#FFCE5C"/>
<path d="M304.493 168.592C305.755 152.272 292.754 140.404 289.756 125.158C286.442 108.333 300.075 101.988 311.025 92.9922C321.407 84.4695 323.932 71.5592 324.153 58.5542C324.247 52.3357 323.048 45.0441 317.936 40.8459C314.433 37.9734 308.942 37.0896 305.313 40.2461C302.126 43.0239 301.4 48.9898 305.313 51.5466C308.816 53.8193 313.613 51.9254 314.686 47.9797C315.191 46.1804 312.382 45.4229 311.909 47.2221C310.615 51.957 304.808 48.8004 305.66 44.981C306.67 40.4671 311.814 40.688 314.907 42.4557C319.325 44.9494 320.776 50.3155 321.186 55.0819C321.754 62.0895 320.587 69.8546 318.788 76.6728C315.664 88.5415 304.777 93.371 296.099 100.694C287.547 107.954 284.549 117.519 287.547 128.409C291.365 142.203 302.757 153.661 301.59 168.655C301.463 170.454 304.335 170.454 304.493 168.592Z" fill="#4B3425"/>
<path d="M321.471 135.574C323.743 123.8 332.358 114.362 343.939 111.174C345.738 110.669 344.98 107.891 343.182 108.396C330.685 111.837 321.155 122.064 318.694 134.817C318.346 136.647 321.123 137.405 321.471 135.574Z" fill="#1F160F"/>
<path d="M385.436 103.788C392.094 99.6209 398.974 95.2017 402.918 88.1626C405.127 84.2485 406.611 79.9871 409.104 76.2308C411.881 72.0642 415.32 68.5288 419.202 65.4038C420.653 64.2359 418.602 62.2157 417.151 63.3521C410.713 68.4973 405.979 74.8104 402.54 82.2914C398.469 91.1929 392.094 96.2118 383.953 101.294C382.406 102.272 383.858 104.766 385.436 103.788Z" fill="#1F160F"/>
<path d="M437.095 56.1236C448.928 46.9696 464.234 51.6413 476.983 55.9027C478.75 56.5024 479.507 53.6931 477.74 53.1249C463.729 48.4848 447.824 44.1918 435.043 54.1034C433.56 55.2082 435.643 57.2284 437.095 56.1236Z" fill="#1F160F"/>
<path d="M530.093 45.5806C537.13 38.794 547.071 36.5213 556.38 39.5516C558.147 40.1198 558.905 37.342 557.137 36.7739C546.85 33.4595 535.805 36.0794 528.042 43.5605C526.685 44.8231 528.736 46.8748 530.093 45.5806Z" fill="#FFCE5C"/>
<path d="M297.803 254.924L311.057 168.024C311.057 168.024 268.076 176.988 260.503 209.185L278.395 210.827L259.619 241.035C252.74 252.114 257.946 266.761 270.285 270.991C270.506 271.054 270.695 271.148 270.916 271.211C283.003 275.283 295.878 267.518 297.803 254.924Z" fill="#FEAF8F"/>
<path d="M318.031 207.512C313.581 210.037 307.932 208.459 305.408 204.008C302.883 199.558 304.461 193.907 308.911 191.382C313.36 188.857 319.009 190.435 321.533 194.886C324.026 199.337 322.48 204.987 318.031 207.512Z" fill="#FEAF8F"/>
<path d="M309.447 201.104C312.792 200.473 316.137 199.873 319.482 199.305C320.839 199.084 320.271 197.001 318.914 197.222C315.569 197.79 312.224 198.39 308.879 199.021C307.522 199.273 308.09 201.357 309.447 201.104Z" fill="#4B3425"/>
<path d="M278.364 210.827L260.692 239.33L291.649 211.111L278.364 210.827Z" fill="#4B3425"/>
<path d="M272.936 192.582C272.936 192.582 284.517 195.612 294.268 196.369C294.268 196.369 276.092 206.313 266.277 202.683L272.936 192.582Z" fill="white"/>
<path d="M289.945 175.252C284.233 177.241 278.427 179.734 273.22 182.796C272.557 183.175 272.463 184.311 273.22 184.659C275.366 185.7 277.48 186.71 279.626 187.752C280.888 188.352 281.961 186.489 280.731 185.89C278.585 184.848 276.47 183.838 274.325 182.796C274.325 183.428 274.325 184.027 274.325 184.659C279.374 181.691 284.991 179.292 290.513 177.335C291.839 176.893 291.271 174.81 289.945 175.252Z" fill="#4B3425"/>
<path d="M293.732 187.594C296.225 185.921 300.738 188.131 301.968 190.53C302.6 191.761 304.461 190.688 303.83 189.425C302.063 186.016 296.067 183.364 292.628 185.7C291.492 186.489 292.596 188.383 293.732 187.594Z" fill="#4B3425"/>
</svg>
