<svg width="25" height="24" viewBox="0 0 25 24" fill="none" xmlns="http://www.w3.org/2000/svg">
<path d="M8.63483 11.9458C8.63483 9.74672 10.418 7.96355 12.6183 7.96355C14.8185 7.96355 16.6027 9.74672 16.6027 11.9458C16.6027 14.1449 14.8185 15.9281 12.6183 15.9281C10.418 15.9281 8.63483 14.1449 8.63483 11.9458ZM6.48093 11.9458C6.48093 15.3336 9.22862 18.0798 12.6183 18.0798C16.0079 18.0798 18.7556 15.3336 18.7556 11.9458C18.7556 8.55797 16.0079 5.81178 12.6183 5.81178C9.22862 5.81178 6.48093 8.55797 6.48093 11.9458ZM17.5643 5.56856C17.5642 5.85208 17.6482 6.12926 17.8057 6.36506C17.9632 6.60086 18.1871 6.78469 18.4492 6.89329C18.7112 7.00189 18.9996 7.0304 19.2778 6.9752C19.5561 6.92 19.8117 6.78357 20.0124 6.58317C20.213 6.38277 20.3497 6.1274 20.4052 5.84936C20.4606 5.57131 20.4323 5.28307 20.3239 5.02109C20.2154 4.75911 20.0317 4.53515 19.7959 4.37754C19.5601 4.21993 19.2828 4.13575 18.9992 4.13564H18.9986C18.6183 4.13581 18.2537 4.28682 17.9848 4.55549C17.7159 4.82416 17.5646 5.18853 17.5643 5.56856ZM7.78956 21.6694C6.62427 21.6164 5.99089 21.4224 5.56998 21.2585C5.01195 21.0413 4.6138 20.7827 4.19518 20.3649C3.77657 19.9471 3.51744 19.5495 3.30115 18.9918C3.13707 18.5713 2.94297 17.9381 2.89 16.7734C2.83205 15.5143 2.82048 15.136 2.82048 11.9459C2.82048 8.75579 2.83301 8.37859 2.89 7.11836C2.94306 5.95369 3.1386 5.32171 3.30115 4.89998C3.5184 4.34225 3.77714 3.94431 4.19518 3.52592C4.61323 3.10753 5.011 2.84855 5.56998 2.63238C5.9907 2.46838 6.62427 2.27438 7.78956 2.22144C9.04943 2.16353 9.42788 2.15196 12.6183 2.15196C15.8087 2.15196 16.1875 2.16448 17.4484 2.22144C18.6137 2.27448 19.246 2.46991 19.668 2.63238C20.226 2.84855 20.6242 3.10811 21.0428 3.52592C21.4614 3.94374 21.7196 4.34225 21.9368 4.89998C22.1009 5.32047 22.295 5.95369 22.348 7.11836C22.4059 8.37859 22.4175 8.75579 22.4175 11.9459C22.4175 15.136 22.4059 15.5132 22.348 16.7734C22.2949 17.9381 22.0999 18.5711 21.9368 18.9918C21.7196 19.5495 21.4608 19.9475 21.0428 20.3649C20.6248 20.7823 20.226 21.0413 19.668 21.2585C19.2473 21.4225 18.6137 21.6165 17.4484 21.6694C16.1886 21.7273 15.8101 21.7389 12.6183 21.7389C9.42645 21.7389 9.04904 21.7273 7.78956 21.6694ZM7.6906 0.0723438C6.41821 0.130257 5.54875 0.331902 4.78945 0.627202C4.00309 0.932155 3.33739 1.34127 2.67218 2.00508C2.00696 2.66888 1.59867 3.33527 1.29356 4.12121C0.998097 4.88058 0.796343 5.74908 0.738399 7.02079C0.679498 8.2945 0.666016 8.7017 0.666016 11.9458C0.666016 15.1899 0.679498 15.5971 0.738399 16.8708C0.796343 18.1426 0.998097 19.011 1.29356 19.7704C1.59867 20.5559 2.00706 21.223 2.67218 21.8865C3.3373 22.55 4.00309 22.9586 4.78945 23.2644C5.55019 23.5597 6.41821 23.7613 7.6906 23.8193C8.96567 23.8772 9.37243 23.8916 12.6183 23.8916C15.8641 23.8916 16.2716 23.8781 17.546 23.8193C18.8184 23.7613 19.6873 23.5597 20.4471 23.2644C21.233 22.9586 21.8992 22.5503 22.5644 21.8865C23.2296 21.2227 23.637 20.5559 23.943 19.7704C24.2385 19.011 24.4412 18.1425 24.4982 16.8708C24.5561 15.5962 24.5696 15.1899 24.5696 11.9458C24.5696 8.7017 24.5561 8.2945 24.4982 7.02079C24.4402 5.74899 24.2385 4.8801 23.943 4.12121C23.637 3.33575 23.2285 2.66993 22.5644 2.00508C21.9002 1.34022 21.233 0.932155 20.4481 0.627202C19.6873 0.331902 18.8183 0.129301 17.5469 0.0723438C16.2725 0.0144305 15.8651 0 12.6192 0C9.37338 0 8.96567 0.0134749 7.6906 0.0723438Z" fill="#16572E"/>
</svg>
